<?xml version="1.0" encoding="UTF-8" standalone="no"?>
<!DOCTYPE svg PUBLIC "-//W3C//DTD SVG 1.1//EN" "http://www.w3.org/Graphics/SVG/1.1/DTD/svg11.dtd">
<svg xmlns="http://www.w3.org/2000/svg">
<metadata/>
<defs>
<font id="calluna_sansblack" horiz-adv-x="1862">
<font-face units-per-em="2048" ascent="1536" descent="-512"/>
<missing-glyph horiz-adv-x="554"/>
<glyph unicode="ﬁ" horiz-adv-x="1348" d="M42 817v192l164 55v51q0 140 44 254.5t121.5 189t182 114.5t226.5 40q93 0 178.5 -22.5t124.5 -45.5l39 -22l-113 -241q-12 8 -33 20t-81.5 31.5t-114.5 19.5q-222 0 -222 -309v-84h661v-1060h-349v828h-312v-828h-352v817h-164z"/>
<glyph unicode="ﬂ" horiz-adv-x="1392" d="M42 817v192l164 55v51q0 140 44 254.5t121.5 189t182 114.5t226.5 40q178 0 315 -77l168 28v-1664h-347v1420q-75 33 -136 33q-222 0 -222 -309v-84h215v-243h-215v-817h-352v817h-164z"/>
<glyph unicode="ﬃ" horiz-adv-x="2084" d="M42 817v192l164 55v19q0 135 43 245t117.5 181t174 109.5t214.5 38.5q93 0 177 -26t116.5 -46.5t44.5 -31.5q153 160 400 160q92 0 176.5 -22.5t122.5 -45.5l39 -22l-111 -241q-11 8 -31 20t-77 31.5t-110 19.5q-206 0 -206 -287v-106h660v-1060h-348v828h-312v-828h-349 v828h-389v-828h-352v817h-164zM558 1060h389v79q0 89 18 177q-96 82 -201 82q-206 0 -206 -287v-51z"/>
<glyph unicode="ﬄ" horiz-adv-x="2131" d="M42 817v192l164 55v19q0 135 43 245t117.5 181t174 109.5t214.5 38.5q194 0 335 -102q72 76 173.5 117t217.5 41q172 0 310 -84l211 35v-1664h-350v1407q-85 46 -164 46q-192 0 -192 -276v-117h215v-243h-215v-817h-349v828h-389v-828h-352v817h-164zM558 1060h389v93 q0 96 18 163q-95 82 -201 82q-206 0 -206 -287v-51z"/>
<glyph horiz-adv-x="2048"/>
<glyph horiz-adv-x="2048"/>
<glyph unicode="&#xD;" horiz-adv-x="2048"/>
<glyph unicode=" " horiz-adv-x="554"/>
<glyph unicode="&#9;" horiz-adv-x="554"/>
<glyph unicode=" " horiz-adv-x="554"/>
<glyph unicode="!" horiz-adv-x="675" d="M134 172q0 83 59 143t140 60q83 0 142 -60t59 -143q0 -82 -59 -141t-142 -59q-81 0 -140 59t-59 141zM146 1572h400l-67 -1012h-271z"/>
<glyph unicode="&quot;" horiz-adv-x="943" d="M120 890v654h295v-86l-95 -568h-200zM570 890v654h296v-86l-100 -568h-196z"/>
<glyph unicode="#" horiz-adv-x="1630" d="M77 243l25 181h319l65 307h-314l27 179h324l88 428h188l-88 -428h316l88 428h188l-88 -428h340l-27 -179h-351l-62 -307h345l-25 -181h-357l-90 -449h-189l89 449h-312l-92 -449h-190l92 449h-309zM611 424h314l66 307h-318z"/>
<glyph unicode="$" horiz-adv-x="1122" d="M79 93l69 282q5 -4 14 -11t41 -25.5t68.5 -33.5t96.5 -29t125 -17l6 264q-204 70 -305 165.5t-101 234.5q0 144 105 252t323 132l7 206h117l-7 -199q101 -1 191.5 -18t130.5 -34l40 -17l-88 -271q-11 6 -33 15.5t-95 26.5t-152 21l-7 -262q229 -73 324 -162.5t95 -221.5 q0 -162 -116 -272t-323 -130l-6 -195h-118l5 188q-114 3 -216 31t-146 54zM391 939q0 -43 30.5 -72t88.5 -52l4 222q-123 -12 -123 -98zM611 259q122 14 122 101q0 46 -28.5 73t-86.5 51z"/>
<glyph unicode="%" horiz-adv-x="1811" d="M71 1185q0 156 112 263t285 107q174 0 284.5 -106.5t110.5 -263.5q0 -159 -110.5 -268t-284.5 -109q-173 0 -285 109.5t-112 267.5zM278 0l1106 1590l125 -84l-1043 -1506h-188zM287 1185q0 -72 48.5 -125t132 -53t131.5 53t48 125q0 70 -48 124t-131.5 54t-132 -54 t-48.5 -124zM947 347q0 157 111.5 265t283.5 108q174 0 286 -108t112 -265t-112 -266t-286 -109q-172 0 -283.5 109t-111.5 266zM1164 347q0 -71 48 -123t130 -52q84 0 134 52.5t50 122.5t-49.5 123t-131.5 53q-84 0 -132.5 -52.5t-48.5 -123.5z"/>
<glyph unicode="&amp;" horiz-adv-x="1658" d="M69 396q0 75 22.5 139.5t65 114t91 87t112.5 71.5q-101 183 -101 351q0 65 16.5 123.5t52.5 112t88.5 92.5t130.5 62t173 23q212 0 330 -105t118 -284q0 -85 -27 -155t-78.5 -123t-106.5 -90.5t-130 -74.5q16 -20 31 -31q117 -134 226 -234q169 228 200 585h309 q-21 -209 -90.5 -414t-194.5 -361q157 -121 283 -165l-113 -217q-166 19 -401 178q-183 -109 -418 -109q-83 0 -162 12.5t-158 43.5t-137.5 78t-95 121.5t-36.5 168.5zM391 409q0 -79 66.5 -125t180.5 -46q102 0 188 35q-163 142 -280 280q-30 38 -30 39q-125 -79 -125 -183 zM601 1159q0 -90 68 -205q97 46 149 98t52 123q0 58 -35.5 94t-96.5 36q-70 0 -103.5 -40.5t-33.5 -105.5z"/>
<glyph unicode="'" horiz-adv-x="499" d="M120 890v654h320v-86l-160 -568h-160z"/>
<glyph unicode="(" horiz-adv-x="720" d="M93 625q0 123 19.5 245.5t51 219t70.5 185.5t77.5 153t70.5 111.5t52 70.5l19 24l236 -81q-13 -16 -35.5 -45t-81.5 -124t-103 -196.5t-81 -255t-37 -307.5q0 -123 19.5 -243.5t50 -216t67 -182t74 -148t68 -108t49.5 -68.5l19 -23l-232 -89q-8 9 -21.5 25.5t-52 73.5 t-74.5 119t-78.5 160.5t-73 199.5t-52 234t-21.5 266z"/>
<glyph unicode=")" horiz-adv-x="720" d="M20 -364q7 8 20 23.5t49 67.5t69.5 109.5t73.5 147t69.5 182.5t49.5 214.5t20 244.5q0 154 -35 306t-85 259t-100 192.5t-85 127.5l-35 43l238 81q15 -17 39 -47.5t86.5 -133t109.5 -212.5t86 -278.5t39 -337.5q0 -133 -20 -265.5t-53.5 -236t-73 -197.5t-79 -161.5 t-73 -117.5t-53.5 -75l-20 -25z"/>
<glyph unicode="*" horiz-adv-x="1184" d="M77 965l365 95l53 -93l-263 -271zM77 1203l155 269l263 -271l-53 -90zM437 576l102 366h104l105 -366h-311zM437 1592h311l-105 -366h-104zM687 967l53 93l366 -95l-155 -269zM687 1201l264 271l155 -269l-366 -92z"/>
<glyph unicode="+" horiz-adv-x="1202" d="M49 493v209h446v462h216v-462h435v-209h-435v-493h-216v493h-446z"/>
<glyph unicode="," horiz-adv-x="598" d="M51 -351q90 85 119 123q62 82 62 182q0 61 -30 122.5t-121 201.5l303 97q62 -93 87.5 -167t25.5 -153q0 -240 -331 -527z"/>
<glyph unicode="-" horiz-adv-x="894" d="M115 499v193h665v-193h-665z"/>
<glyph unicode="." horiz-adv-x="603" d="M102 172q0 83 58.5 143t140.5 60t141.5 -60t59.5 -143q0 -82 -59.5 -141t-141.5 -59t-140.5 59t-58.5 141z"/>
<glyph unicode="/" horiz-adv-x="1089" d="M42 -453l770 1997h213l-768 -1997h-215z"/>
<glyph unicode="0" horiz-adv-x="1307" d="M86 541q0 87 22.5 171.5t70 160.5t114 134.5t162.5 93t209 34.5q133 0 242 -47t178 -125.5t106.5 -177.5t37.5 -206q0 -110 -38.5 -217t-108.5 -194.5t-183 -141.5t-248 -54t-245 48.5t-178 130t-104.5 182t-36.5 208.5zM400 553q0 -58 13.5 -110.5t42 -100t80.5 -76 t122 -28.5q67 0 118.5 28.5t80 75.5t42 100t13.5 111q0 61 -13.5 115t-42.5 100t-79 73t-117 27q-71 0 -123.5 -27t-81.5 -74t-42 -100t-13 -114z"/>
<glyph unicode="1" horiz-adv-x="1073" d="M111 0v263h296v556h-292v287h635v-843h268v-263h-907z"/>
<glyph unicode="2" horiz-adv-x="1100" d="M81 988q7 5 20 15.5t55.5 35.5t88 44.5t116.5 35.5t141 16q195 0 312.5 -106.5t117.5 -264.5q0 -75 -27 -145t-83 -136t-105 -112t-127 -110h439v-261h-943l7 190q19 13 51.5 36t116 89.5t146.5 128t115 138t52 131.5q0 62 -36 99.5t-110 37.5q-46 0 -99.5 -19.5 t-84.5 -38.5l-32 -19z"/>
<glyph unicode="3" horiz-adv-x="967" d="M14 983q7 6 21 16.5t58.5 36.5t91.5 46t117.5 36.5t139.5 16.5q180 0 299.5 -95.5t119.5 -240.5q0 -123 -81 -219t-204 -165q153 -41 236.5 -142t83.5 -231q0 -154 -107.5 -271.5t-279.5 -177t-377 -59.5q-52 0 -74 3l-27 262q61 -5 92 -5q176 0 295 68t119 184 q0 56 -30 95t-81.5 57.5t-102 26t-108.5 7.5h-36v249q122 6 223.5 81t101.5 174q0 56 -36 85t-91 29q-44 0 -98.5 -21.5t-86.5 -43.5l-33 -21z"/>
<glyph unicode="4" horiz-adv-x="1270" d="M51 14v229l576 859h387v-841h198v-247h-198v-460h-336v460h-627zM375 261h303v492z"/>
<glyph unicode="5" horiz-adv-x="965" d="M77 -199q60 -7 113 -7q104 0 182 23t129.5 79.5t51.5 143.5q0 59 -27 106.5t-67 78t-104.5 54.5t-123 36.5t-138.5 24.5v766h747v-261h-414v-287q486 -118 486 -491q0 -171 -95 -292.5t-257.5 -181t-376.5 -59.5q-51 0 -77 3z"/>
<glyph unicode="6" horiz-adv-x="1223" d="M75 636q0 140 36.5 273t114 250.5t186.5 206.5t263 144t336 62l21 -269q-477 -35 -583 -413q104 130 275 130q131 0 233 -68t154.5 -180t52.5 -244q0 -107 -35.5 -205.5t-102 -177t-170 -126t-229.5 -47.5q-137 0 -244 54t-173 147.5t-100.5 211.5t-34.5 251zM421 641 q7 -403 220 -403q81 0 127.5 70.5t46.5 186.5q0 34 -3.5 64.5t-15 66t-30 60.5t-51 42t-77.5 17q-113 0 -217 -104z"/>
<glyph unicode="7" horiz-adv-x="1098" d="M49 810v296h1011v-194q-262 -662 -639 -1393l-337 66q365 686 578 1225h-613z"/>
<glyph unicode="8" horiz-adv-x="1202" d="M88 377q0 94 38.5 174t92 130t132.5 101q-210 160 -210 364q0 177 131 301.5t346 124.5q89 0 171 -25t149.5 -71.5t107.5 -122.5t40 -170q0 -120 -59.5 -208t-160.5 -163q55 -36 95 -69.5t78 -79.5t57 -102t19 -121q0 -91 -37 -174.5t-104 -149t-169 -105t-222 -39.5 q-69 0 -135.5 13t-132.5 44t-116 76t-80.5 116t-30.5 156zM384 400q0 -71 52.5 -122t133.5 -51q85 0 145 54.5t60 125.5q0 61 -51.5 114t-147.5 113q-92 -57 -142 -111.5t-50 -122.5zM486 1177q0 -67 39.5 -120.5t112.5 -102.5q144 92 144 212q0 65 -37.5 107.5t-115.5 42.5 q-43 0 -73.5 -14t-44.5 -37t-19.5 -44t-5.5 -44z"/>
<glyph unicode="9" horiz-adv-x="1254" d="M90 572q0 105 36.5 204.5t103 179.5t172 129.5t232.5 49.5q136 0 243.5 -54.5t175 -147.5t102.5 -211.5t35 -251.5q0 -140 -37.5 -273t-115 -251t-187 -207.5t-264 -144.5t-336.5 -62l-21 269q499 40 588 433q-51 -68 -117.5 -103.5t-171.5 -35.5q-191 0 -314.5 139.5 t-123.5 337.5zM440 599q0 -31 3.5 -59t15.5 -59.5t30.5 -54.5t52 -38t76.5 -15q50 0 102 22t78.5 42.5t41.5 37.5q-6 171 -65 282t-161 111q-84 0 -129 -73t-45 -196z"/>
<glyph unicode=":" horiz-adv-x="652" d="M128 172q0 83 58 143t140.5 60t142 -60t59.5 -143q0 -82 -59.5 -141t-142 -59t-140.5 59t-58 141zM128 898q0 84 58 144t140.5 60t142 -60t59.5 -144q0 -80 -59.5 -140t-142 -60t-140.5 60t-58 140z"/>
<glyph unicode=";" horiz-adv-x="645" d="M75 -351q91 87 119 125q60 81 60 180q0 61 -30 122.5t-120 201.5l303 97q63 -94 88.5 -168t25.5 -152q0 -240 -331 -527zM123 898q0 84 59 144t140 60q83 0 142 -60t59 -144q0 -81 -59 -140.5t-142 -59.5q-81 0 -140 59.5t-59 140.5z"/>
<glyph unicode="&lt;" horiz-adv-x="1202" d="M53 541v106l987 530l53 -210l-735 -373l735 -395l-53 -208z"/>
<glyph unicode="=" horiz-adv-x="1202" d="M102 285v203h1000v-203h-1000zM102 671v204h1000v-204h-1000z"/>
<glyph unicode="&gt;" horiz-adv-x="1202" d="M113 199l732 395l-732 373l53 210l987 -530v-106l-987 -550z"/>
<glyph unicode="?" horiz-adv-x="932" d="M93 1363l79 306q14 -3 38.5 -11t95.5 -34t136 -55.5t143.5 -77t136 -97t96.5 -117t39 -136.5q0 -62 -34.5 -124t-84 -114t-98 -104t-83 -114t-34.5 -125h-282q-3 23 -3 39q0 69 24.5 135t59.5 115.5t70.5 92.5t60 81.5t24.5 66.5q0 40 -39.5 82.5t-96 75t-113 60 t-96.5 41.5zM188 172q0 83 58 143t140.5 60t142 -60t59.5 -143q0 -82 -59.5 -141t-142 -59t-140.5 59t-58 141z"/>
<glyph unicode="@" horiz-adv-x="2058" d="M79 442q0 189 74 361.5t203.5 303.5t320 210t409.5 79q255 0 457 -102t312 -277.5t110 -391.5q0 -103 -25.5 -197t-86 -180t-150.5 -140q-59 -35 -129 -54.5t-167 -39.5t-169 -42q-26 100 -46 165q-34 -66 -117 -115.5t-177 -49.5q-148 0 -248 120t-100 317 q0 181 89.5 320.5t237 212t324.5 72.5q49 0 105 -6t88 -11l32 -6v-549q0 -42 5 -91.5t11 -79.5l4 -28q133 3 202.5 108.5t69.5 255.5q0 117 -43 223t-121.5 186.5t-199 128t-266.5 47.5q-167 0 -310.5 -62t-239 -165t-149 -235.5t-53.5 -274.5q0 -143 55.5 -267.5 t145.5 -206.5t199.5 -130.5t221.5 -53.5l-39 -225q-175 12 -330 82t-267.5 183.5t-177.5 270t-65 334.5zM863 412q0 -194 107 -194q67 0 136 94v474q-107 0 -175 -108t-68 -266z"/>
<glyph unicode="A" horiz-adv-x="1491" d="M2 0l574 1555h340l574 -1555h-363l-98 278h-576l-97 -278h-354zM558 579h367l-185 523z"/>
<glyph unicode="B" horiz-adv-x="1418" d="M174 0v1544h576q143 0 248.5 -32.5t163 -87t84 -117.5t26.5 -134q0 -184 -186 -323q43 -23 82.5 -55t80 -80t65 -117.5t24.5 -148.5q0 -204 -147 -326.5t-381 -122.5h-636zM532 298h243q97 0 143.5 46t46.5 126q0 74 -47.5 119t-142.5 45h-243v-336zM532 921h296 q8 6 20 17t32.5 52.5t20.5 89.5q0 165 -186 165h-183v-324z"/>
<glyph unicode="C" horiz-adv-x="1563" d="M79 738q0 175 61.5 327.5t173 265t278 177t366.5 64.5q103 0 197 -13t155 -31t106.5 -37t66.5 -31l21 -14l-132 -298q-6 5 -17 12t-51 26.5t-85 34t-118.5 26.5t-151.5 12q-228 0 -368.5 -131t-140.5 -357q0 -119 41.5 -214t112 -153t159 -88.5t186.5 -30.5q79 0 154 14 t125.5 34t89.5 39t57 33l19 14l146 -260q-8 -8 -22.5 -20t-70 -44.5t-120 -57.5t-172 -45t-226.5 -20q-171 0 -321.5 49.5t-266.5 143.5t-184 242t-68 331z"/>
<glyph unicode="D" horiz-adv-x="1691" d="M174 0v1544h594q129 0 247 -24.5t228 -81.5t189.5 -141.5t127.5 -212.5t48 -287q0 -191 -68 -342.5t-191 -251t-293 -151.5t-376 -52h-506zM532 298h126q151 0 264.5 37.5t181 104.5t100 154t32.5 192q0 211 -127 335t-373 124h-204v-947z"/>
<glyph unicode="E" horiz-adv-x="1281" d="M174 0v1544h1009v-299h-651v-313h514v-303h-514v-331h680v-298h-1038z"/>
<glyph unicode="F" horiz-adv-x="1248" d="M174 0v1544h1016v-299h-658v-329h521v-296h-521v-620h-358z"/>
<glyph unicode="G" horiz-adv-x="1645" d="M75 742q0 167 61.5 316t174.5 263.5t286.5 182.5t381.5 68q90 0 178.5 -11.5t149.5 -28t109 -33t71 -28.5l24 -11l-131 -301q-7 5 -20.5 11t-56.5 23.5t-89 30.5t-113 24t-134 11q-247 0 -388.5 -139.5t-141.5 -357.5q0 -117 43.5 -209.5t117.5 -150t168 -87.5t199 -30 q44 0 99 4t86 7l33 5v271h-299v300h651v-832q-359 -68 -593 -68q-184 0 -343 54.5t-275 153.5t-182.5 244.5t-66.5 317.5z"/>
<glyph unicode="H" horiz-adv-x="1774" d="M174 0v1544h358v-605h713v605h356v-1544h-356v636h-713v-636h-358z"/>
<glyph unicode="I" horiz-adv-x="707" d="M174 0v1544h358v-1544h-358z"/>
<glyph unicode="J" horiz-adv-x="705" d="M-130 -144q306 23 306 445v1243h358v-1232q0 -118 -13 -212t-49.5 -190t-97.5 -165t-164 -120.5t-241 -70.5z"/>
<glyph unicode="K" horiz-adv-x="1499" d="M174 0v1544h358v-584h49l463 584h444l-613 -720l648 -824h-452l-490 658h-49v-658h-358z"/>
<glyph unicode="L" horiz-adv-x="1239" d="M174 0v1544h358v-1246h674v-298h-1032z"/>
<glyph unicode="M" horiz-adv-x="2061" d="M146 0l57 1544h512l319 -961l320 961h507l55 -1544h-346l-40 1148l-391 -1148h-227l-382 1129l-37 -1129h-347z"/>
<glyph unicode="N" horiz-adv-x="1727" d="M174 0v1544h363l666 -988v988h352v-1544h-367l-663 988v-988h-351z"/>
<glyph unicode="O" d="M75 768q0 121 35 236.5t106.5 218t172 180.5t242 123.5t304.5 45.5q194 0 356.5 -61.5t270.5 -167.5t167.5 -245.5t59.5 -296.5q0 -159 -62.5 -308t-172.5 -265t-277 -186t-363 -70q-155 0 -290 43t-234.5 118t-171 175t-107.5 217.5t-36 242.5zM446 775 q0 -72 18.5 -142.5t56.5 -135.5t93 -115t134 -79.5t173 -29.5q113 0 208 42.5t156 114.5t95 163t34 189q0 95 -31.5 182t-89.5 156t-151 109.5t-210 40.5q-115 0 -209 -41t-153.5 -110t-91.5 -158t-32 -186z"/>
<glyph unicode="P" horiz-adv-x="1385" d="M174 0v1544h590q145 0 258 -41t182.5 -111.5t105 -162t35.5 -197.5q0 -166 -78 -292t-209 -191t-294 -65h-232v-484h-358zM532 782h179q130 0 195.5 62.5t65.5 171.5q0 229 -261 229h-179v-463z"/>
<glyph unicode="Q" d="M71 768q0 121 35.5 237t108 218t173.5 180t243 123.5t306 45.5q193 0 355 -61.5t269 -167.5t166.5 -245.5t59.5 -296.5q0 -169 -67.5 -325t-198.5 -277.5t-306 -180.5q34 -44 62 -75.5t78.5 -70t105.5 -61t137 -36t179 -9.5l-53 -319q-91 -1 -174 12t-144.5 32 t-121.5 50.5t-98 58t-80.5 66t-63 62.5t-51.5 60q-12 15 -19 22l-69 82q-24 28 -69 56t-84 36q-314 63 -496.5 279.5t-182.5 504.5zM446 775q0 -95 30 -184t86.5 -163t150 -119.5t208.5 -45.5q151 0 266 76t171 191.5t56 249.5q0 97 -31.5 184.5t-90 156.5t-152.5 109 t-210 40q-115 0 -209 -41t-152.5 -110.5t-90.5 -158t-32 -185.5z"/>
<glyph unicode="R" horiz-adv-x="1506" d="M174 0v1544h574q286 0 432.5 -134t146.5 -352q0 -138 -61 -245.5t-178 -171.5l418 -641h-426l-344 544h-204v-544h-358zM532 840h128q166 0 230 54.5t64 154.5q0 95 -60.5 145.5t-201.5 50.5h-160v-405z"/>
<glyph unicode="S" horiz-adv-x="1200" d="M81 102l104 313q7 -6 19 -15t50.5 -32t79 -40.5t100.5 -32.5t119 -15q96 0 151 35.5t55 96.5q0 48 -36 88t-94 73t-128 66t-140.5 75.5t-128.5 93.5t-94 127t-36 169q0 194 148 331t397 137q100 0 208 -17.5t167 -35.5l58 -17l-48 -317q-22 9 -57.5 22t-134 34.5 t-180.5 21.5q-95 0 -146 -32t-51 -87q0 -48 36.5 -87.5t94.5 -70.5t127.5 -64t139.5 -75t128.5 -94t94.5 -131.5t36 -177.5q0 -142 -75 -250.5t-200.5 -165t-279.5 -56.5q-80 0 -160 13.5t-135.5 32t-100 38t-65.5 32.5z"/>
<glyph unicode="T" horiz-adv-x="1400" d="M40 1245v299h1321v-299h-477v-1245h-359v1245h-485z"/>
<glyph unicode="U" horiz-adv-x="1637" d="M157 590v954h359v-926q0 -181 81.5 -263t224.5 -82q144 0 225.5 89.5t81.5 246.5v935h357v-921q0 -155 -52 -280t-143 -205t-212 -123t-260 -43q-141 0 -257.5 34.5t-209 105.5t-144 193t-51.5 285z"/>
<glyph unicode="V" horiz-adv-x="1422" d="M2 1544h380l333 -1007l338 1007h367l-539 -1555h-340z"/>
<glyph unicode="W" horiz-adv-x="2274" d="M33 1544h369l296 -1069l313 1069h261l313 -1060l292 1060h363l-458 -1555h-366l-285 921l-272 -921h-366z"/>
<glyph unicode="X" horiz-adv-x="1475" d="M23 0l502 764l-502 780h421l296 -486l302 486h409l-500 -771l500 -773h-424l-296 484l-294 -484h-414z"/>
<glyph unicode="Y" horiz-adv-x="1450" d="M-11 1544h420l315 -568l334 568h404l-557 -912v-632h-359v629z"/>
<glyph unicode="Z" horiz-adv-x="1351" d="M84 0v223l687 1022h-663v299h1128v-223l-676 -1023h708v-298h-1184z"/>
<glyph unicode="[" horiz-adv-x="675" d="M159 -384v1928h488v-183h-254v-1562h254v-183h-488z"/>
<glyph unicode="\" horiz-adv-x="1105" d="M64 1544h228l770 -1997h-229z"/>
<glyph unicode="]" horiz-adv-x="667" d="M18 -236h258v1629h-258v151h492v-1928h-492v148z"/>
<glyph unicode="^" horiz-adv-x="1058" d="M-60 579l495 993h188l495 -993h-230l-360 731l-364 -731h-224z"/>
<glyph unicode="_" horiz-adv-x="1175" d="M11 -86h1157v-171h-1157v171z"/>
<glyph unicode="`" horiz-adv-x="1188" d="M303 1645h320l243 -375l-183 -93z"/>
<glyph unicode="a" horiz-adv-x="1168" d="M49 259q0 324 611 405v40q0 70 -28.5 101.5t-92.5 31.5q-84 0 -171.5 -32t-133.5 -64l-46 -32l-75 238q8 6 22.5 15.5t65 33.5t105 43t141.5 34t178 15q213 0 298.5 -84.5t85.5 -265.5v-372q0 -32 12.5 -55t30 -33t35 -16.5t29.5 -6.5l13 -1l-97 -270q-239 -3 -330 150 q-14 -23 -35.5 -46.5t-58.5 -52t-96.5 -46t-129.5 -17.5q-150 0 -241.5 79.5t-91.5 207.5zM400 292q0 -80 77 -80q91 0 183 115v157q-133 -21 -196.5 -71t-63.5 -121z"/>
<glyph unicode="b" horiz-adv-x="1250" d="M120 44v1564l352 56v-657q100 81 246 81q115 0 206 -41t147.5 -113t85 -165t28.5 -202q0 -121 -36.5 -225.5t-110 -188.5t-199 -132.5t-289.5 -48.5q-104 0 -211.5 18t-163.5 36zM472 227q38 -21 100 -21q116 0 186 90t70 257q0 132 -53 205t-137 73q-85 0 -166 -56v-548 z"/>
<glyph unicode="c" horiz-adv-x="1091" d="M60 504q0 155 75 288t214 214.5t311 81.5q108 0 207 -26.5t143 -52.5l45 -26l-116 -250q-4 4 -12 10.5t-33.5 23t-52 29t-65 22.5t-74.5 10q-121 0 -202 -76t-81 -227q0 -140 72 -216.5t187 -76.5q44 0 88 10.5t75.5 26t57 30.5t38.5 26l12 11l106 -230q-4 -5 -14 -14.5 t-46 -32.5t-78 -40.5t-113.5 -32t-150.5 -14.5q-269 0 -431 152.5t-162 379.5z"/>
<glyph unicode="d" horiz-adv-x="1263" d="M67 497q0 113 34.5 217.5t99.5 189t168.5 134.5t231.5 50q97 0 181 -30v550l349 56v-1342q0 -56 12.5 -137t24.5 -133l12 -52l-323 -16q-22 74 -33 150q-112 -162 -312 -162q-135 0 -237.5 72t-155 191t-52.5 262zM426 519q0 -139 44.5 -219t130.5 -80q101 0 181 109v398 q-3 53 -40 80.5t-99 27.5q-103 0 -160 -80t-57 -236z"/>
<glyph unicode="e" horiz-adv-x="1149" d="M67 525q0 155 65 283t188 204t281 76q211 0 339 -139.5t129 -409.5l-183 -51l-462 -60q60 -196 252 -196q73 0 155 31.5t127 63.5l44 31l91 -240q-8 -6 -22 -16t-61 -35t-97.5 -44.5t-128 -35t-155.5 -15.5q-135 0 -244 45t-177.5 122t-104.5 176t-36 210zM407 611 l295 39q0 8 -1.5 20.5t-8.5 44t-19.5 56.5t-39 44.5t-61.5 19.5q-71 0 -114.5 -61t-50.5 -163z"/>
<glyph unicode="f" horiz-adv-x="870" d="M42 817v192l164 55v75q0 136 43 246t117.5 180.5t174 109t214.5 38.5q94 0 177.5 -22.5t120.5 -45.5l37 -22l-109 -258q-11 8 -30.5 20.5t-76.5 33.5t-110 21q-94 0 -150 -65t-56 -209v-106h277v-243h-277v-817h-352v817h-164z"/>
<glyph unicode="g" horiz-adv-x="1200" d="M44 -282q0 149 243 293q-86 35 -121.5 72.5t-35.5 92.5q0 123 166 222q-103 47 -159 132.5t-56 189.5q0 115 69 201t177 126.5t236 40.5q74 0 163.5 -22t148.5 -22h143q35 0 72 5.5t56 11.5l18 6l16 -234h-106q-15 0 -81 9q62 -71 62 -157q0 -100 -72.5 -177t-188 -117 t-248.5 -40q-42 0 -60 3q-65 -44 -65 -67q0 -26 199 -82q90 -26 146 -43q61 -18 99.5 -30.5t98.5 -41t94.5 -58t61 -77t26.5 -103.5q0 -159 -172.5 -279.5t-432.5 -120.5q-129 0 -240.5 30.5t-184 92t-72.5 143.5zM349 -215q0 -42 48 -72.5t163 -30.5t190.5 31.5t75.5 78.5 q0 42 -71 72q-36 15 -158 50l-111 31q-137 -87 -137 -160zM402 715q0 -49 43.5 -95t117.5 -46q72 0 118 44t46 100q0 53 -41 99t-116 46q-78 0 -123 -48.5t-45 -99.5z"/>
<glyph unicode="h" horiz-adv-x="1250" d="M130 0v1608l351 56v-757q154 181 359 181q297 0 297 -343v-745h-351v581q0 116 -18.5 159.5t-65.5 43.5q-92 0 -221 -139v-645h-351z"/>
<glyph unicode="i" horiz-adv-x="610" d="M108 1453.5q0 82.5 54 132.5t141 50t141.5 -50t54.5 -132.5t-54.5 -133t-141.5 -50.5t-141 50.5t-54 133zM130 0v1060h351v-1060h-351z"/>
<glyph unicode="j" horiz-adv-x="610" d="M-170 -282q50 6 90 18t81 38t68 63.5t44 97t17 136.5v989h351v-989q0 -117 -29 -214.5t-79 -166.5t-120.5 -119t-149 -78.5t-167.5 -40.5zM106 1453.5q0 82.5 54 132.5t141 50t141.5 -50t54.5 -132.5t-54.5 -133t-141.5 -50.5t-141 50.5t-54 133z"/>
<glyph unicode="k" horiz-adv-x="1267" d="M130 0v1608l351 56v-944h40l307 340h440l-446 -461l453 -599h-425l-334 466h-35v-466h-351z"/>
<glyph unicode="l" horiz-adv-x="610" d="M130 0v1608l351 56v-1664h-351z"/>
<glyph unicode="m" horiz-adv-x="1897" d="M125 0v1032l334 54v-188q82 87 169 138.5t196 51.5q227 0 282 -194q175 194 375 194q301 0 301 -343v-745h-349v634q0 86 -21 118t-72 32q-89 0 -216 -126v-658h-351v634q0 85 -22 117.5t-66 32.5q-48 0 -97 -31.5t-111 -97.5v-655h-352z"/>
<glyph unicode="n" horiz-adv-x="1246" d="M125 0v1032l334 54v-190q167 192 376 192q296 0 296 -343v-745h-351v581q0 115 -14.5 159t-69.5 44q-91 0 -219 -131v-653h-352z"/>
<glyph unicode="o" horiz-adv-x="1323" d="M64 528q0 83 20 160.5t65.5 151t113 128.5t170.5 87.5t229 32.5q121 0 222 -30t170 -81.5t117 -121t70 -146.5t22 -161q0 -78 -19 -155.5t-65 -154t-113 -135t-172.5 -95t-235.5 -36.5q-147 0 -263 46t-186.5 124.5t-107.5 177t-37 208.5zM424 541q0 -127 63 -224 t173 -97q103 0 174 85t71 216q0 78 -26 148.5t-82.5 119t-132.5 48.5q-101 0 -170.5 -82t-69.5 -214z"/>
<glyph unicode="p" horiz-adv-x="1261" d="M125 -548v1580l336 54v-174q88 176 294 176q135 0 237.5 -71.5t153.5 -189t51 -262.5q0 -113 -33.5 -217t-97.5 -189.5t-169 -136t-237 -50.5q-128 0 -183 35v-500zM477 292q0 -29 34 -49t94 -20q97 0 164.5 81t67.5 240q0 128 -45.5 204t-113.5 76q-106 0 -201 -144 v-388z"/>
<glyph unicode="q" horiz-adv-x="1254" d="M67 486q0 97 23 185t72 164.5t119 132.5t169 88t217 32q86 0 201.5 -16.5t189.5 -31.5l73 -17v-1516l-351 -55v599q-87 -79 -241 -79q-119 0 -211 41t-148.5 113.5t-84.5 163.5t-28 196zM424 512q0 -130 53 -203t134 -73q83 0 169 51v541q-58 24 -109 24 q-107 0 -177 -90.5t-70 -249.5z"/>
<glyph unicode="r" horiz-adv-x="885" d="M125 0v1032l334 54v-223q22 36 49.5 69t68 71.5t93.5 61.5t110 23q26 0 48.5 -4t32.5 -8l9 -5l-46 -326q-51 21 -106 21q-124 0 -241 -148v-618h-352z"/>
<glyph unicode="s" horiz-adv-x="980" d="M62 64l70 281q5 -5 14.5 -13t40.5 -27t65 -33.5t87 -27t107 -12.5q128 0 128 64q0 24 -26.5 43.5t-69.5 37t-94.5 37.5t-103 48t-94 64t-69.5 91.5t-27 124.5q0 68 26 127.5t80.5 109.5t149 79.5t219.5 29.5q87 0 166.5 -14.5t116.5 -29.5l36 -15l-65 -279q-12 9 -34 22 t-91.5 34.5t-140.5 21.5q-118 0 -118 -62q0 -25 26.5 -46t69.5 -38.5t94.5 -37t103 -47t94.5 -63t69.5 -90t26.5 -122.5q0 -152 -125 -251t-348 -99q-106 0 -202 23t-139 46z"/>
<glyph unicode="t" horiz-adv-x="965" d="M37 817v190l186 57v250l335 63v-317h314v-243h-312v-426q0 -71 24 -104t74 -33q69 0 194 86l97 -247q-7 -5 -19 -13.5t-52 -29.5t-81 -36.5t-103 -28.5t-122 -13q-165 0 -264.5 87.5t-99.5 245.5v512h-171z"/>
<glyph unicode="u" horiz-adv-x="1256" d="M118 292v768h352v-629q0 -86 19 -123t69 -37q89 0 213 118v671h351v-738q0 -56 12 -135.5t23 -130.5l11 -49l-337 -30q-19 94 -30 171q-182 -176 -386 -176q-134 0 -215.5 79.5t-81.5 240.5z"/>
<glyph unicode="v" horiz-adv-x="1126" d="M0 1060h366l199 -611l210 611h354l-411 -1065h-313z"/>
<glyph unicode="w" horiz-adv-x="1809" d="M20 1060h355l178 -669l206 669h294l222 -671l162 671h347l-309 -1065h-340l-225 634l-204 -634h-342z"/>
<glyph unicode="x" horiz-adv-x="1149" d="M16 0l364 528l-364 532h393l170 -267l176 267h376l-363 -523l363 -537h-381l-178 271l-179 -271h-377z"/>
<glyph unicode="y" horiz-adv-x="1124" d="M-5 1060h359l216 -669l207 669h350l-423 -1135q-32 -83 -86.5 -163t-129 -146.5t-172.5 -111t-203 -52.5l-104 270q120 9 226.5 73t144.5 154l25 60z"/>
<glyph unicode="z" horiz-adv-x="1064" d="M77 0v215l444 584h-426v261h875v-215l-454 -584h469v-261h-908z"/>
<glyph unicode="{" horiz-adv-x="772" d="M18 519v177q44 2 79 17t60 47t43 63.5t29 87t17 95t9 111t3.5 111.5t0.5 117q0 126 67.5 211t179.5 122t262 37v-171q-99 -9 -152 -24.5t-80.5 -60.5t-32.5 -88.5t-8 -148.5q-5 -160 -21 -268.5t-48.5 -175.5t-70 -103.5t-96.5 -63.5v-4q79 -37 127 -105.5t75.5 -197.5 t33.5 -335q3 -103 8 -146t32.5 -88t80.5 -60.5t152 -25.5v-172q-153 0 -251 25t-156 86t-80 150t-22 229q0 117 -11.5 208.5t-32 149t-44 97.5t-52.5 60t-52 28t-49 9z"/>
<glyph unicode="|" horiz-adv-x="550" d="M157 -521v2254h236v-2254h-236z"/>
<glyph unicode="}" horiz-adv-x="772" d="M7 -351q39 4 69.5 8.5t56.5 12.5t45 15t34 21t24.5 24.5t17 32.5t11 38.5t6 48t3.5 54.5t2 65q4 162 22 276t51 185.5t72 111t95 65.5v4q-81 38 -128.5 97t-77 183.5t-34.5 330.5q-1 41 -2 64.5t-3.5 55t-6 48t-11 39t-17 33t-24.5 25.5t-34 21.5t-44.5 14.5t-56.5 12.5 t-70 8.5v171q142 0 234.5 -23t155 -80t89 -152t26.5 -241q0 -517 243 -523v-177q-31 -1 -58.5 -11t-63 -45t-61 -92t-43 -162.5t-17.5 -245.5q0 -139 -22 -227.5t-79.5 -148.5t-154.5 -85t-249 -25v172z"/>
<glyph unicode="~" horiz-adv-x="1341" d="M113 380q0 208 88 308.5t248 100.5q75 0 133.5 -22t94 -54t65.5 -63.5t65 -53.5t76.5 -22t71.5 21t45 54.5t21 65.5t6 65h211q0 -208 -88 -308.5t-247 -100.5q-76 0 -134 22t-93.5 53.5t-65.5 63t-65 53.5t-77 22t-72 -20.5t-44.5 -54t-21 -66t-6.5 -64.5h-211z"/>
<glyph unicode="¡" horiz-adv-x="689" d="M146 -514l66 1011h272l62 -1011h-400zM157 886q0 81 59.5 140.5t141.5 59.5t141 -59.5t59 -140.5q0 -83 -59 -143t-141 -60t-141.5 59.5t-59.5 143.5z"/>
<glyph unicode="¢" horiz-adv-x="1128" d="M75 643q0 97 33.5 184.5t98 157t165.5 113t227 50.5l10 206h118l-12 -208q100 -9 182.5 -40.5t114.5 -59.5l34 -26l-165 -210q-8 6 -22.5 15.5t-61 28.5t-93.5 25l-24 -458q59 6 120 29t93 44l30 20l104 -229q-4 -5 -13 -13t-42.5 -28.5t-71.5 -37.5t-100.5 -33 t-130.5 -20l-7 -204h-116l10 204q-223 17 -352 155t-129 335zM412 655q0 -87 41 -147.5t114 -79.5l21 449q-82 -16 -129 -71.5t-47 -150.5z"/>
<glyph unicode="£" horiz-adv-x="1297" d="M79 153q6 2 16 6.5t36.5 22.5t47.5 38.5t40 56t24 74.5l24 202h-139v143h154l21 183q24 205 146 326.5t333 121.5q68 0 131 -13.5t105 -33.5t73.5 -39t46.5 -33l15 -14l-165 -209q-11 9 -27.5 23t-68 36.5t-101.5 22.5q-67 0 -104.5 -42t-50.5 -153l-18 -176h367 l-18 -143h-362q-8 -81 -26.5 -153t-31.5 -104l-15 -33q10 -5 29 -15t77.5 -25t118.5 -15q103 0 161.5 40.5t66.5 144.5h237q-8 -78 -23.5 -140t-44.5 -122t-70.5 -100t-106 -64.5t-146.5 -24.5q-84 0 -165.5 26t-154.5 52t-138 26q-72 0 -248 -46z"/>
<glyph unicode="¥" horiz-adv-x="1323" d="M79 1298h358l225 -446l226 446h348l-285 -523h239v-143h-318l-39 -72v-99h357v-143h-357v-318h-349v318h-334v143h334v97l-42 74h-292v143h214z"/>
<glyph unicode="¦" horiz-adv-x="532" d="M148 -409v828h236v-828h-236zM148 777v829h236v-829h-236z"/>
<glyph unicode="§" horiz-adv-x="1144" d="M64 -428l70 171q19 -12 50 -30t120.5 -48.5t170.5 -30.5q125 0 189.5 92t64.5 239q0 53 -11 123l-117 648q-25 126 -25 236q0 152 60 236l181 -25q-40 -84 -40 -213q0 -60 12 -130l127 -734q14 -77 14 -152q0 -83 -16.5 -156.5t-52 -137t-87.5 -110t-127 -72.5t-168 -26 q-67 0 -134 12.5t-115.5 30t-87 35t-58.5 29.5zM190 1069q0 104 27 192.5t79.5 159.5t140.5 111t201 40q68 0 136 -12.5t116 -30t87 -35.5t58 -31l20 -12l-70 -171q-18 13 -49.5 31t-121.5 48t-171 30q-123 0 -187.5 -93t-64.5 -238q0 -53 11 -123l121 -648q23 -115 23 -236 q0 -155 -58 -236l-181 26q40 91 40 212q0 60 -11 130l-133 733q-13 76 -13 153z"/>
<glyph unicode="¨" horiz-adv-x="1188" d="M153 1449q0 79 46.5 123t127 44t126.5 -44t46 -123t-46 -121.5t-126 -42.5q-82 0 -128 42.5t-46 121.5zM689 1449q0 79 46.5 123t127.5 44t127.5 -44t46.5 -123t-46 -121.5t-128 -42.5t-128 42.5t-46 121.5z"/>
<glyph unicode="©" horiz-adv-x="1758" d="M79 770.5q0 161.5 63.5 309.5t170 255.5t254.5 171t310 63.5q216 0 400 -107.5t291.5 -292t107.5 -400t-107.5 -400t-291.5 -291.5t-400 -107q-162 0 -310 63t-254.5 170.5t-170 255.5t-63.5 309.5zM215 771q0 -183 87.5 -338t240 -245.5t334.5 -90.5q138 0 262 54 t212.5 144t140.5 214.5t52 261t-52 261t-140.5 215t-212.5 144t-262 53.5q-182 0 -334.5 -90.5t-240 -245t-87.5 -337.5zM431 771q0 87 31 171t88.5 152t149 109.5t201.5 41.5q65 0 124 -14t95.5 -35t64 -41t40.5 -34l11 -15l-105 -161q-3 4 -9.5 11.5t-27 26t-45 32.5 t-63 26t-79.5 12q-121 0 -185 -78t-64 -189q0 -119 69.5 -201.5t186.5 -82.5q69 0 132.5 28t92.5 55l29 29l64 -170q-5 -6 -13.5 -15t-38.5 -32t-65.5 -40.5t-93.5 -32t-123 -14.5q-204 0 -335.5 132t-131.5 329z"/>
<glyph unicode="ª" horiz-adv-x="918" d="M71 993q0 114 110.5 185.5t320.5 98.5v26q0 41 -18 63.5t-65 22.5q-53 0 -115.5 -25t-97.5 -50l-36 -25l-55 180q6 5 16.5 11.5t47.5 23.5t77 30.5t103.5 24.5t128.5 11q154 0 216 -60.5t62 -182.5v-267q0 -36 21 -57t42 -24l21 -3l-64 -179q-192 0 -258 101 q-82 -109 -210 -109q-110 0 -178.5 57.5t-68.5 146.5zM338 1023q0 -26 16.5 -42t41.5 -16q47 0 106 55v124q-164 -26 -164 -121z"/>
<glyph unicode="«" horiz-adv-x="1177" d="M28 576v9q35 27 234 257q117 133 199 227l177 -53l-320 -435q14 -22 320 -435l-177 -53q-98 110 -182.5 205.5t-120 136.5t-65 74t-40.5 44.5t-25 22.5zM486 576v9q26 21 60 58t173 195q36 42 58.5 67.5t63 72.5t80.5 91l178 -53l-322 -435q16 -22 322 -435l-178 -53 q-99 110 -183.5 205.5t-120.5 136.5t-65.5 74t-41 44.5t-24.5 22.5z"/>
<glyph unicode="¬" horiz-adv-x="1305" d="M99 715v204h1078v-662h-212v458h-866z"/>
<glyph unicode="­" horiz-adv-x="894" d="M115 499v193h665v-193h-665z"/>
<glyph unicode="®" horiz-adv-x="965" d="M81 1228q0 165 117.5 283t282.5 118t282.5 -118t117.5 -283t-117.5 -282.5t-282.5 -117.5t-282.5 117.5t-117.5 282.5zM172 1228q0 -127 93 -224t216.5 -97t217.5 97.5t94 224t-94 223t-217.5 96.5t-216.5 -96.5t-93 -223.5zM333 1037v394h139q162 0 162 -119 q0 -71 -64 -106l124 -169h-124l-100 143h-24v-143h-113zM446 1254h33q20 0 32 15t12 36q0 49 -60 49h-17v-100z"/>
<glyph unicode="¯" horiz-adv-x="1058" d="M212 1323v203h636v-203h-636z"/>
<glyph unicode="°" horiz-adv-x="711" d="M75 1294q0 115 81.5 196.5t199 81.5t200 -81.5t82.5 -196.5t-82.5 -196.5t-200 -81.5t-199 81.5t-81.5 196.5zM212 1294q0 -62 42 -104t102 -42t100.5 42t40.5 104t-40.5 102.5t-100.5 40.5t-102 -40.5t-42 -102.5z"/>
<glyph unicode="±" horiz-adv-x="1202" d="M113 696v207h382v389h218v-389h373v-207h-373v-365h-218v365h-382zM137 0v206h937v-206h-937z"/>
<glyph unicode="²" horiz-adv-x="818" d="M55 1694q6 6 15.5 14t42 30.5t67.5 39t89.5 30.5t110.5 14q144 0 239.5 -81t95.5 -213q0 -113 -75.5 -219.5t-230.5 -244.5h348v-194h-676l-21 157q20 18 62 54.5t64 56t59 54t58.5 56t50.5 52.5t45 54t32 50t23 51t7 47q0 46 -32 69t-84 23q-44 0 -84.5 -16t-57.5 -32 l-18 -16z"/>
<glyph unicode="³" horiz-adv-x="781" d="M37 945l109 175q9 -7 26 -17t65 -27.5t92 -17.5q55 0 85 24.5t30 67.5q0 86 -143 86h-91v190q87 3 139.5 31.5t52.5 81.5q0 69 -84 69q-34 0 -71 -13t-56 -25l-19 -13l-108 163q6 4 16 11t43.5 24.5t68.5 31t87.5 24.5t104.5 11q139 0 215.5 -69t76.5 -163 q0 -79 -51 -143t-111 -89q92 -20 148 -77t56 -137q0 -117 -107.5 -205.5t-268.5 -88.5q-78 0 -154 23.5t-113 47.5z"/>
<glyph unicode="´" horiz-adv-x="1237" d="M329 1270l241 375h316l-379 -468z"/>
<glyph unicode="¶" horiz-adv-x="1575" d="M67 976q0 109 42 209t122 180.5t209.5 129.5t288.5 49h746v-167h-172v-1377h-179v1377h-173v-1423q0 -502 -441 -502l-35 180q150 0 218.5 83.5t68.5 273.5v426h-22q-168 0 -300.5 47.5t-212 127t-120 178.5t-40.5 208z"/>
<glyph unicode="·" horiz-adv-x="607" d="M104 592q0 81 58.5 141t140.5 60t143 -60t61 -141t-60.5 -140t-143.5 -59q-82 0 -140.5 59t-58.5 140z"/>
<glyph unicode="¸" horiz-adv-x="1188" d="M366 -477l58 139q9 -8 26 -18.5t65.5 -29.5t93.5 -19q46 0 75 15.5t29 38.5t-31 43.5t-68.5 35t-68.5 43.5t-31 67q0 42 34 104l31 58h154l-22 -46q-19 -51 -19 -56q0 -19 21 -32.5t52 -26t62 -29t52.5 -50t21.5 -82.5q0 -99 -80 -162.5t-212 -63.5q-68 0 -128.5 17.5 t-87.5 35.5z"/>
<glyph unicode="¹" horiz-adv-x="769" d="M69 870v185h225v565h-206v185h456v-750h201v-185h-676z"/>
<glyph unicode="º" horiz-adv-x="1007" d="M71 1177q0 74 24.5 140.5t73.5 125t135.5 93t199.5 34.5q107 0 192.5 -32.5t136.5 -86t77.5 -119.5t26.5 -140q0 -55 -14 -109.5t-47 -108t-81.5 -94t-124.5 -66t-168 -25.5q-106 0 -190.5 32t-136 87.5t-78 124t-26.5 144.5zM347 1183q0 -85 41 -149t116 -64 q68 0 113 56.5t45 146.5q0 86 -40.5 151t-111.5 65q-68 0 -115.5 -57.5t-47.5 -148.5z"/>
<glyph unicode="»" horiz-adv-x="1177" d="M81 146l319 435q-15 17 -319 435l178 53q376 -431 396 -451q17 -18 37 -33v-9q-14 -11 -25.5 -22.5t-40.5 -44.5t-65 -74t-120 -136.5t-182 -205.5zM539 146l322 435q-16 17 -322 435l176 53q86 -97 207 -234q142 -162 174 -195.5t57 -54.5v-9q-14 -11 -25.5 -22.5 t-40.5 -44.5t-65.5 -74t-121.5 -136.5t-185 -205.5z"/>
<glyph unicode="¼" horiz-adv-x="2008" d="M97 605v184h225v565h-207v185h457v-750h201v-184h-676zM537 0l925 1608l163 -73l-883 -1535h-205zM1157 360l347 577h311v-564h120v-185h-120v-188h-241v188h-394zM1356 373h218v356z"/>
<glyph unicode="½" horiz-adv-x="2080" d="M95 605v184h225v565h-207v185h457v-750h201v-184h-676zM605 0l925 1608l162 -73l-882 -1535h-205zM1303 824q6 5 15.5 13.5t41.5 30.5t67 39t90 30.5t110 13.5q145 0 240.5 -80.5t95.5 -212.5q0 -113 -76 -219.5t-230 -244.5h348v-194h-676l-22 157q20 17 62.5 54.5 t63.5 56.5t59.5 53.5t59 56t49 52.5t44.5 54t32.5 49.5t23 51t6.5 47.5q0 46 -32 69t-83 23q-44 0 -84 -16t-57 -32l-18 -16z"/>
<glyph unicode="¾" horiz-adv-x="2047" d="M75 678l108 176q9 -6 26 -17t65 -28.5t92 -17.5q55 0 85 25t30 68q0 86 -143 86h-91v189q87 4 140 32t53 81q0 70 -86 70q-34 0 -71 -12t-56 -26l-19 -12l-106 161q5 5 15.5 11.5t43.5 24t68 31t88 24.5t104 11q139 0 215.5 -69t76.5 -163q0 -79 -51 -142t-112 -88 q92 -21 148.5 -78.5t56.5 -137.5q0 -117 -107.5 -205.5t-267.5 -88.5q-78 0 -154.5 24t-113.5 47zM574 0l926 1608l161 -73l-881 -1535h-206zM1194 360l347 577h310v-564h121v-185h-121v-188h-241v188h-393zM1393 373h217v356z"/>
<glyph unicode="¿" horiz-adv-x="918" d="M75 -58q0 60 34.5 119.5t83 109.5l97 100t83 109.5t34.5 118.5h282q3 -24 3 -38q0 -65 -24.5 -128t-60 -110.5t-70.5 -88.5t-59.5 -78t-24.5 -63q0 -39 39.5 -82t96 -75.5t113 -59.5t96.5 -42l39 -14l-78 -305q-14 3 -38.5 11t-95.5 34t-136 54.5t-143.5 76t-135.5 97.5 t-96 117t-39 137zM342 888q0 80 59.5 140t142 60t140.5 -60t58 -140q0 -85 -58 -144t-140 -59q-84 0 -143 59t-59 144z"/>
<glyph unicode="À" horiz-adv-x="1491" d="M2 0l574 1555h340l574 -1555h-363l-98 278h-576l-97 -278h-354zM412 1789l85 234l532 -221l-66 -175zM558 579h367l-185 523z"/>
<glyph unicode="Á" horiz-adv-x="1491" d="M2 0l574 1555h340l574 -1555h-363l-98 278h-576l-97 -278h-354zM453 1802l532 221l84 -234l-550 -162zM558 579h367l-185 523z"/>
<glyph unicode="Â" horiz-adv-x="1491" d="M2 0l574 1555h340l574 -1555h-363l-98 278h-576l-97 -278h-354zM318 1768l291 248h266l289 -248l-176 -107l-250 190l-248 -190zM558 579h367l-185 523z"/>
<glyph unicode="Ã" horiz-adv-x="1491" d="M2 0l574 1555h340l574 -1555h-363l-98 278h-576l-97 -278h-354zM292 1727q0 34 4.5 66t20 73t42.5 71t77 51t117 21q71 0 134 -22.5t99.5 -50t75.5 -50.5t68 -23q68 0 68 109l-2 30h196q2 -15 2 -46q0 -33 -4.5 -65.5t-21.5 -75.5t-44 -74.5t-78.5 -54t-120.5 -22.5 q-72 0 -132 23.5t-92 51t-69.5 51t-71.5 23.5q-72 0 -72 -108l2 -31h-196q-2 20 -2 53zM558 579h367l-185 523z"/>
<glyph unicode="Ä" horiz-adv-x="1491" d="M2 0l574 1555h340l574 -1555h-363l-98 278h-576l-97 -278h-354zM257 1840q0 79 49.5 126.5t131 47.5t131 -47.5t49.5 -126.5q0 -78 -49.5 -124.5t-131 -46.5t-131 46.5t-49.5 124.5zM558 579h367l-185 523zM863 1840q0 79 50.5 126.5t130.5 47.5t130 -47.5t50 -126.5 q0 -78 -50 -124.5t-130 -46.5t-130.5 47t-50.5 124z"/>
<glyph unicode="Å" horiz-adv-x="1491" d="M2 0l574 1555h340l574 -1555h-363l-98 278h-576l-97 -278h-354zM497 1833q0 76 60.5 129.5t182.5 53.5q120 0 180.5 -53.5t60.5 -129.5q0 -88 -59.5 -143.5t-181.5 -55.5q-123 0 -183 55.5t-60 143.5zM558 579h367l-185 523zM638 1831q0 -44 27 -69.5t75.5 -25.5t76.5 26 t28 69q0 32 -28 57.5t-77 25.5q-50 0 -76 -25.5t-26 -57.5z"/>
<glyph unicode="Æ" horiz-adv-x="2131" d="M-35 0l868 1544h1196v-299h-647v-313h513v-303h-513v-331h680v-298h-1039v380h-470l-206 -380h-382zM718 680h305v561z"/>
<glyph unicode="Ç" horiz-adv-x="1563" d="M81 738q0 175 62 327.5t173 265t277.5 177t366.5 64.5q103 0 197 -13t155 -31t106.5 -37t67.5 -32l20 -13l-131 -298q-3 2 -8.5 6t-26 15.5t-43.5 22t-61 23.5t-78 22t-94.5 15.5t-112.5 6.5q-111 0 -205.5 -34t-162 -95.5t-104.5 -153.5t-37 -205q0 -69 14 -130.5 t40 -110.5t62 -89t79.5 -68.5t93.5 -48.5t103 -29.5t108 -9.5q80 0 154.5 14t125 34t89.5 39t57 34l19 13l145 -260q-6 -8 -21 -19.5t-67.5 -43.5t-114.5 -56t-165 -45t-217 -23q-28 -50 -28 -74q0 -19 21.5 -32.5t52 -26t61 -29t52 -50t21.5 -82.5q0 -99 -80 -162.5 t-212 -63.5q-68 0 -128.5 17.5t-87.5 35.5l-27 18l58 139q9 -8 26 -18.5t65.5 -29.5t93.5 -19q46 0 75 15.5t29 38.5t-31 43.5t-68.5 35t-68.5 43.5t-31 67q0 40 35 104l18 38q-120 13 -225.5 51t-194.5 103t-154 151.5t-101.5 202t-36.5 250.5z"/>
<glyph unicode="È" horiz-adv-x="1281" d="M174 0v1544h1009v-299h-651v-313h514v-303h-514v-331h680v-298h-1038zM358 1789l86 234l532 -221l-66 -175z"/>
<glyph unicode="É" horiz-adv-x="1281" d="M174 0v1544h1009v-299h-651v-313h514v-303h-514v-331h680v-298h-1038zM400 1802l532 221l84 -234l-550 -162z"/>
<glyph unicode="Ê" horiz-adv-x="1281" d="M174 0v1544h1009v-299h-651v-313h514v-303h-514v-331h680v-298h-1038zM263 1768l293 248h266l289 -248l-176 -107l-250 190l-248 -190z"/>
<glyph unicode="Ë" horiz-adv-x="1281" d="M174 0v1544h1009v-299h-651v-313h514v-303h-514v-331h680v-298h-1038zM203 1840q0 79 50 126.5t131.5 47.5t131 -47.5t49.5 -126.5q0 -78 -49.5 -124.5t-131 -46.5t-131.5 46.5t-50 124.5zM810 1840q0 79 50.5 126.5t130.5 47.5t130 -47.5t50 -126.5q0 -78 -50 -124.5 t-130 -46.5t-130.5 47t-50.5 124z"/>
<glyph unicode="Ì" horiz-adv-x="707" d="M31 1789l84 234l532 -221l-66 -175zM174 0v1544h358v-1544h-358z"/>
<glyph unicode="Í" horiz-adv-x="707" d="M71 1802l534 221l82 -234l-550 -162zM174 0v1544h358v-1544h-358z"/>
<glyph unicode="Î" horiz-adv-x="707" d="M-64 1768l291 248h266l289 -248l-175 -107l-251 190l-248 -190zM174 0v1544h358v-1544h-358z"/>
<glyph unicode="Ï" horiz-adv-x="707" d="M-81 1846.5q0 79.5 46.5 123.5t127 44t127.5 -44t47 -123.5t-46.5 -121.5t-128 -42t-127.5 42t-46 121.5zM174 0v1544h358v-1544h-358zM455 1846.5q0 79.5 46.5 123.5t127.5 44t127.5 -44t46.5 -123.5t-46 -121.5t-128 -42t-128 42t-46 121.5z"/>
<glyph unicode="Ð" horiz-adv-x="1732" d="M51 650v269h167v625h592q129 0 247 -24.5t228.5 -81.5t190.5 -141.5t128 -212.5t48 -287q0 -191 -68.5 -343t-191.5 -251t-293 -151t-377 -52h-504v650h-167zM574 298h124q153 0 267 37.5t182.5 104.5t102 154t33.5 192q0 211 -128.5 335t-377.5 124h-203v-326h338v-269 h-338v-352z"/>
<glyph unicode="Ñ" horiz-adv-x="1727" d="M174 0v1544h363l666 -988v988h352v-1544h-367l-663 988v-988h-351zM415 1727q0 34 4.5 66t20 73t43 71t77 51t116.5 21q71 0 134 -22.5t99.5 -50t75.5 -50.5t68 -23q67 0 67 109l-2 30h196q2 -15 2 -46q0 -34 -4.5 -66t-20.5 -75t-43.5 -74.5t-78.5 -54t-120 -22.5 q-60 0 -110 15.5t-82.5 37t-61 43.5t-56.5 37.5t-56 15.5q-72 0 -72 -108l3 -31h-197q-2 20 -2 53z"/>
<glyph unicode="Ò" d="M75 768q0 121 35 236.5t106.5 218t172 180.5t242 123.5t304.5 45.5q194 0 356.5 -61.5t270.5 -167.5t167.5 -245.5t59.5 -296.5q0 -159 -62.5 -308t-172.5 -265t-277 -186t-363 -70q-155 0 -290 43t-234.5 118t-171 175t-107.5 217.5t-36 242.5zM446 775 q0 -72 18.5 -142.5t56.5 -135.5t93 -115t134 -79.5t173 -29.5q113 0 208 42.5t156 114.5t95 163t34 189q0 95 -31.5 182t-89.5 156t-151 109.5t-210 40.5q-115 0 -209 -41t-153.5 -110t-91.5 -158t-32 -186zM601 1789l86 234l532 -221l-66 -175z"/>
<glyph unicode="Ó" d="M75 768q0 121 35 236.5t106.5 218t172 180.5t242 123.5t304.5 45.5q194 0 356.5 -61.5t270.5 -167.5t167.5 -245.5t59.5 -296.5q0 -159 -62.5 -308t-172.5 -265t-277 -186t-363 -70q-155 0 -290 43t-234.5 118t-171 175t-107.5 217.5t-36 242.5zM446 775 q0 -72 18.5 -142.5t56.5 -135.5t93 -115t134 -79.5t173 -29.5q113 0 208 42.5t156 114.5t95 163t34 189q0 95 -31.5 182t-89.5 156t-151 109.5t-210 40.5q-115 0 -209 -41t-153.5 -110t-91.5 -158t-32 -186zM643 1802l532 221l84 -234l-550 -162z"/>
<glyph unicode="Ô" d="M75 768q0 121 35 236.5t106.5 218t172 180.5t242 123.5t304.5 45.5q194 0 356.5 -61.5t270.5 -167.5t167.5 -245.5t59.5 -296.5q0 -159 -62.5 -308t-172.5 -265t-277 -186t-363 -70q-155 0 -290 43t-234.5 118t-171 175t-107.5 217.5t-36 242.5zM446 775 q0 -72 18.5 -142.5t56.5 -135.5t93 -115t134 -79.5t173 -29.5q113 0 208 42.5t156 114.5t95 163t34 189q0 95 -31.5 182t-89.5 156t-151 109.5t-210 40.5q-115 0 -209 -41t-153.5 -110t-91.5 -158t-32 -186zM507 1768l292 248h265l290 -248l-177 -107l-249 190l-248 -190z "/>
<glyph unicode="Õ" d="M75 768q0 121 35 236.5t106.5 218t172 180.5t242 123.5t304.5 45.5q194 0 356.5 -61.5t270.5 -167.5t167.5 -245.5t59.5 -296.5q0 -159 -62.5 -308t-172.5 -265t-277 -186t-363 -70q-155 0 -290 43t-234.5 118t-171 175t-107.5 217.5t-36 242.5zM446 775 q0 -72 18.5 -142.5t56.5 -135.5t93 -115t134 -79.5t173 -29.5q113 0 208 42.5t156 114.5t95 163t34 189q0 95 -31.5 182t-89.5 156t-151 109.5t-210 40.5q-115 0 -209 -41t-153.5 -110t-91.5 -158t-32 -186zM481 1727q0 34 4.5 66t20.5 73t43 71t77 51t116 21 q72 0 135 -22.5t99 -50t75 -50.5t69 -23q68 0 68 109l-3 30h197q2 -15 2 -46q0 -33 -4.5 -65.5t-21.5 -75.5t-44 -74.5t-78.5 -54t-120.5 -22.5q-72 0 -132 23.5t-92 51t-69.5 51t-71.5 23.5q-72 0 -72 -108l2 -31h-196q-3 20 -3 53z"/>
<glyph unicode="Ö" d="M75 768q0 121 35 236.5t106.5 218t172 180.5t242 123.5t304.5 45.5q194 0 356.5 -61.5t270.5 -167.5t167.5 -245.5t59.5 -296.5q0 -159 -62.5 -308t-172.5 -265t-277 -186t-363 -70q-155 0 -290 43t-234.5 118t-171 175t-107.5 217.5t-36 242.5zM446 775 q0 -72 18.5 -142.5t56.5 -135.5t93 -115t134 -79.5t173 -29.5q113 0 208 42.5t156 114.5t95 163t34 189q0 95 -31.5 182t-89.5 156t-151 109.5t-210 40.5q-115 0 -209 -41t-153.5 -110t-91.5 -158t-32 -186zM446 1840q0 79 50 126.5t131.5 47.5t131 -47.5t49.5 -126.5 q0 -78 -49.5 -124.5t-131 -46.5t-131.5 46.5t-50 124.5zM1053 1840q0 79 50.5 126.5t130.5 47.5t130 -47.5t50 -126.5q0 -78 -50 -124.5t-130 -46.5t-130.5 47t-50.5 124z"/>
<glyph unicode="×" horiz-adv-x="1202" d="M75 190l388 400l-388 401l137 140l389 -400l390 400l138 -140l-391 -401l391 -400l-141 -141l-387 397l-386 -397z"/>
<glyph unicode="Ø" d="M75 768q0 121 35 236.5t106.5 218t172 180.5t242 123.5t304.5 45.5q236 0 423 -91l100 132h199l-162 -215q140 -105 217 -262t77 -335q0 -159 -62.5 -308t-172.5 -265t-277 -186t-363 -70q-236 0 -428 99l-109 -140h-201l175 228q-134 112 -205 271t-71 338zM446 775 q0 -198 117 -338l596 782q-107 51 -227 51q-115 0 -209 -40.5t-153.5 -110t-91.5 -158t-32 -186.5zM683 331q109 -58 238 -58q113 0 208 42.5t156 114.5t95 163t34 189q0 209 -127 342z"/>
<glyph unicode="Ù" horiz-adv-x="1637" d="M157 590v954h359v-926q0 -181 81.5 -263t224.5 -82q144 0 225.5 89.5t81.5 246.5v935h357v-921q0 -155 -52 -280t-143 -205t-212 -123t-260 -43q-141 0 -257.5 34.5t-209 105.5t-144 193t-51.5 285zM490 1789l86 234l533 -221l-67 -175z"/>
<glyph unicode="Ú" horiz-adv-x="1637" d="M157 590v954h359v-926q0 -181 81.5 -263t224.5 -82q144 0 225.5 89.5t81.5 246.5v935h357v-921q0 -155 -52 -280t-143 -205t-212 -123t-260 -43q-141 0 -257.5 34.5t-209 105.5t-144 193t-51.5 285zM532 1802l532 221l84 -234l-551 -162z"/>
<glyph unicode="Û" horiz-adv-x="1637" d="M157 590v954h359v-926q0 -181 81.5 -263t224.5 -82q144 0 225.5 89.5t81.5 246.5v935h357v-921q0 -155 -52 -280t-143 -205t-212 -123t-260 -43q-141 0 -257.5 34.5t-209 105.5t-144 193t-51.5 285zM396 1768l291 248h267l289 -248l-176 -107l-250 190l-247 -190z"/>
<glyph unicode="Ü" horiz-adv-x="1637" d="M157 590v954h359v-926q0 -181 81.5 -263t224.5 -82q144 0 225.5 89.5t81.5 246.5v935h357v-921q0 -155 -52 -280t-143 -205t-212 -123t-260 -43q-141 0 -257.5 34.5t-209 105.5t-144 193t-51.5 285zM336 1840q0 79 49.5 126.5t131 47.5t130.5 -47.5t49 -126.5 q0 -78 -49 -124.5t-130.5 -46.5t-131 46.5t-49.5 124.5zM942 1840q0 79 50 126.5t130 47.5t130.5 -47.5t50.5 -126.5q0 -77 -50.5 -124t-130.5 -47t-130 46.5t-50 124.5z"/>
<glyph unicode="Ý" horiz-adv-x="1450" d="M-11 1544h420l315 -568l334 568h404l-557 -912v-632h-359v629zM433 1802l532 221l84 -234l-552 -162z"/>
<glyph unicode="Þ" horiz-adv-x="1376" d="M174 0v1544h358v-296h250q141 0 248.5 -36t170.5 -98t94.5 -141t31.5 -172q0 -224 -151.5 -355t-393.5 -131h-250v-315h-358zM532 618h195q123 0 175 42.5t52 123.5q0 79 -48 122t-179 43h-195v-331z"/>
<glyph unicode="ß" horiz-adv-x="1422" d="M42 817v192l164 55v77q0 261 137.5 403.5t396.5 142.5q218 0 350 -98.5t132 -265.5q0 -64 -21 -120t-50.5 -95t-59 -73.5t-50.5 -70t-21 -70.5t20.5 -66.5t52.5 -58.5t71 -54.5t78 -61.5t71.5 -73.5t53 -96t20.5 -123.5q0 -172 -125.5 -280t-342.5 -108q-67 0 -128 10.5 t-88 22.5l-27 11l44 269q8 -6 22 -15t55 -23.5t82 -14.5q68 0 108 36.5t40 89.5q0 38 -23 70.5t-57.5 55t-75 55t-75 65.5t-58 89.5t-23.5 125.5q0 62 19 113t45.5 86.5t53 69.5t45 80.5t18.5 101.5q0 167 -156 167q-96 0 -139 -67t-43 -220v-1150h-352v817h-164z"/>
<glyph unicode="à" horiz-adv-x="1168" d="M49 259q0 324 611 405v40q0 70 -28.5 101.5t-92.5 31.5q-84 0 -171.5 -32t-133.5 -64l-46 -32l-75 238q8 6 22.5 15.5t65 33.5t105 43t141.5 34t178 15q213 0 298.5 -84.5t85.5 -265.5v-372q0 -32 12.5 -55t30 -33t35 -16.5t29.5 -6.5l13 -1l-97 -270q-239 -3 -330 150 q-14 -23 -35.5 -46.5t-58.5 -52t-96.5 -46t-129.5 -17.5q-150 0 -241.5 79.5t-91.5 207.5zM148 1645h320l243 -375l-183 -93zM400 292q0 -80 77 -80q91 0 183 115v157q-133 -21 -196.5 -71t-63.5 -121z"/>
<glyph unicode="á" horiz-adv-x="1168" d="M49 259q0 324 611 405v40q0 70 -28.5 101.5t-92.5 31.5q-84 0 -171.5 -32t-133.5 -64l-46 -32l-75 238q8 6 22.5 15.5t65 33.5t105 43t141.5 34t178 15q213 0 298.5 -84.5t85.5 -265.5v-372q0 -32 12.5 -55t30 -33t35 -16.5t29.5 -6.5l13 -1l-97 -270q-239 -3 -330 150 q-14 -23 -35.5 -46.5t-58.5 -52t-96.5 -46t-129.5 -17.5q-150 0 -241.5 79.5t-91.5 207.5zM382 1270l241 375h316l-379 -468zM400 292q0 -80 77 -80q91 0 183 115v157q-133 -21 -196.5 -71t-63.5 -121z"/>
<glyph unicode="â" horiz-adv-x="1168" d="M49 259q0 324 611 405v40q0 70 -28.5 101.5t-92.5 31.5q-84 0 -171.5 -32t-133.5 -64l-46 -32l-75 238q8 6 22.5 15.5t65 33.5t105 43t141.5 34t178 15q213 0 298.5 -84.5t85.5 -265.5v-372q0 -32 12.5 -55t30 -33t35 -16.5t29.5 -6.5l13 -1l-97 -270q-239 -3 -330 150 q-14 -23 -35.5 -46.5t-58.5 -52t-96.5 -46t-129.5 -17.5q-150 0 -241.5 79.5t-91.5 207.5zM176 1250l268 395h206l271 -400l-185 -70l-190 269l-190 -269zM400 292q0 -80 77 -80q91 0 183 115v157q-133 -21 -196.5 -71t-63.5 -121z"/>
<glyph unicode="ã" horiz-adv-x="1168" d="M49 259q0 324 611 405v40q0 70 -28.5 101.5t-92.5 31.5q-84 0 -171.5 -32t-133.5 -64l-46 -32l-75 238q8 6 22.5 15.5t65 33.5t105 43t141.5 34t178 15q213 0 298.5 -84.5t85.5 -265.5v-372q0 -32 12.5 -55t30 -33t35 -16.5t29.5 -6.5l13 -1l-97 -270q-239 -3 -330 150 q-14 -23 -35.5 -46.5t-58.5 -52t-96.5 -46t-129.5 -17.5q-150 0 -241.5 79.5t-91.5 207.5zM120 1303q0 34 4 68t19.5 79t41.5 78t74.5 56.5t113.5 23.5q69 0 126.5 -27t89 -59.5t66 -59.5t63.5 -27q64 0 64 115l-2 42h208q3 -17 3 -39q0 -34 -4 -68t-20.5 -80.5t-43 -81 t-76 -58.5t-116.5 -24q-58 0 -104 18t-76 43t-54.5 50t-49 43.5t-49.5 18.5q-69 0 -69 -120l2 -35h-208q-3 16 -3 44zM400 292q0 -80 77 -80q91 0 183 115v157q-133 -21 -196.5 -71t-63.5 -121z"/>
<glyph unicode="ä" horiz-adv-x="1168" d="M49 259q0 324 611 405v40q0 70 -28.5 101.5t-92.5 31.5q-84 0 -171.5 -32t-133.5 -64l-46 -32l-75 238q8 6 22.5 15.5t65 33.5t105 43t141.5 34t178 15q213 0 298.5 -84.5t85.5 -265.5v-372q0 -32 12.5 -55t30 -33t35 -16.5t29.5 -6.5l13 -1l-97 -270q-239 -3 -330 150 q-14 -23 -35.5 -46.5t-58.5 -52t-96.5 -46t-129.5 -17.5q-150 0 -241.5 79.5t-91.5 207.5zM104 1449q0 79 47 123t127 44t126.5 -44t46.5 -123t-46.5 -121.5t-126.5 -42.5q-81 0 -127.5 42.5t-46.5 121.5zM400 292q0 -80 77 -80q91 0 183 115v157q-133 -21 -196.5 -71 t-63.5 -121zM641 1449q0 79 46 123t128 44q80 0 126.5 -44t46.5 -123t-46.5 -121.5t-126.5 -42.5q-83 0 -128.5 42.5t-45.5 121.5z"/>
<glyph unicode="å" horiz-adv-x="1168" d="M49 259q0 324 611 405v40q0 70 -28.5 101.5t-92.5 31.5q-84 0 -171.5 -32t-133.5 -64l-46 -32l-75 238q8 6 22.5 15.5t65 33.5t105 43t141.5 34t178 15q213 0 298.5 -84.5t85.5 -265.5v-372q0 -32 12.5 -55t30 -33t35 -16.5t29.5 -6.5l13 -1l-97 -270q-239 -3 -330 150 q-14 -23 -35.5 -46.5t-58.5 -52t-96.5 -46t-129.5 -17.5q-150 0 -241.5 79.5t-91.5 207.5zM298 1458q0 81 63.5 146t184.5 65q118 0 180.5 -65t62.5 -146q0 -84 -63 -153t-180 -69q-120 0 -184 69.5t-64 152.5zM400 292q0 -80 77 -80q91 0 183 115v157q-133 -21 -196.5 -71 t-63.5 -121zM442 1455.5q0 -39.5 28.5 -69.5t75.5 -30q45 0 74.5 30t29.5 69t-28.5 67t-75.5 28q-49 0 -76.5 -27.5t-27.5 -67z"/>
<glyph unicode="æ" horiz-adv-x="1737" d="M49 254q0 158 158.5 248.5t456.5 126.5v49q0 90 -27.5 131t-104.5 41q-47 0 -100 -13.5t-94.5 -33t-76.5 -39t-54 -33.5l-19 -13l-75 229q8 6 24 15.5t66 33.5t102.5 43t130.5 34t154 15q113 0 179 -34t108 -98q125 132 315 132q101 0 184.5 -32t147 -96t99 -167.5 t36.5 -236.5l-182 -61l-468 -51q28 -105 97 -163t171 -58q48 0 98.5 13.5t88.5 32.5t69 38.5t47 32.5l17 14l81 -236q-8 -6 -21.5 -16t-60 -35t-96 -44.5t-126 -35t-152.5 -15.5q-277 0 -423 213q-19 -35 -51.5 -68t-81.5 -67.5t-119.5 -56t-150.5 -21.5q-161 0 -254 79.5 t-93 202.5zM389 280q0 -39 26 -60t64 -21q72 0 131 66t59 163q-280 -21 -280 -148zM1000 643l294 33q0 7 -1 18t-8.5 40.5t-20 52t-39 40.5t-61.5 18q-67 0 -110.5 -53.5t-53.5 -148.5z"/>
<glyph unicode="ç" horiz-adv-x="1096" d="M62 504q0 115 44.5 221.5t122 186.5t191 128t242.5 48q68 0 134 -10.5t111.5 -26t81 -31t52.5 -26.5l17 -11l-116 -250q-4 4 -12 10.5t-34 23t-52.5 29t-65 22.5t-74.5 10q-58 0 -107.5 -18t-89 -53.5t-63 -95t-23.5 -136.5q0 -140 72 -216.5t187 -76.5q44 0 88 10.5 t76 26t57.5 30.5t37.5 26l12 11l107 -230q-5 -5 -14.5 -13.5t-43.5 -30.5t-73.5 -39t-106 -33t-140.5 -18q-27 -54 -27 -74q0 -22 33 -39.5t71.5 -31t71 -52t32.5 -97.5q0 -99 -79.5 -162.5t-211.5 -63.5q-68 0 -128.5 17.5t-87.5 35.5l-27 18l57 139q9 -8 26 -18.5 t65.5 -29.5t94.5 -19t74.5 15.5t28.5 38.5t-31 43.5t-68 35t-68 43.5t-31 67q0 40 35 104l20 40q-144 23 -251 98t-162 184.5t-55 239.5z"/>
<glyph unicode="è" horiz-adv-x="1149" d="M67 525q0 155 65 283t188 204t281 76q211 0 339 -139.5t129 -409.5l-183 -51l-462 -60q60 -196 252 -196q73 0 155 31.5t127 63.5l44 31l91 -240q-8 -6 -22 -16t-61 -35t-97.5 -44.5t-128 -35t-155.5 -15.5q-135 0 -244 45t-177.5 122t-104.5 176t-36 210zM183 1645h319 l243 -375l-182 -93zM407 611l295 39q0 8 -1.5 20.5t-8.5 44t-19.5 56.5t-39 44.5t-61.5 19.5q-71 0 -114.5 -61t-50.5 -163z"/>
<glyph unicode="é" horiz-adv-x="1149" d="M67 525q0 155 65 283t188 204t281 76q211 0 339 -139.5t129 -409.5l-183 -51l-462 -60q60 -196 252 -196q73 0 155 31.5t127 63.5l44 31l91 -240q-8 -6 -22 -16t-61 -35t-97.5 -44.5t-128 -35t-155.5 -15.5q-135 0 -244 45t-177.5 122t-104.5 176t-36 210zM407 611 l295 39q0 8 -1.5 20.5t-8.5 44t-19.5 56.5t-39 44.5t-61.5 19.5q-71 0 -114.5 -61t-50.5 -163zM419 1270l241 375h316l-379 -468z"/>
<glyph unicode="ê" horiz-adv-x="1149" d="M67 525q0 155 65 283t188 204t281 76q211 0 339 -139.5t129 -409.5l-183 -51l-462 -60q60 -196 252 -196q73 0 155 31.5t127 63.5l44 31l91 -240q-8 -6 -22 -16t-61 -35t-97.5 -44.5t-128 -35t-155.5 -15.5q-135 0 -244 45t-177.5 122t-104.5 176t-36 210zM212 1250 l269 395h206l271 -400l-185 -70l-190 269l-190 -269zM407 611l295 39q0 8 -1.5 20.5t-8.5 44t-19.5 56.5t-39 44.5t-61.5 19.5q-71 0 -114.5 -61t-50.5 -163z"/>
<glyph unicode="ë" horiz-adv-x="1149" d="M67 525q0 155 65 283t188 204t281 76q211 0 339 -139.5t129 -409.5l-183 -51l-462 -60q60 -196 252 -196q73 0 155 31.5t127 63.5l44 31l91 -240q-8 -6 -22 -16t-61 -35t-97.5 -44.5t-128 -35t-155.5 -15.5q-135 0 -244 45t-177.5 122t-104.5 176t-36 210zM141 1449 q0 79 47 123t127.5 44t126.5 -44t46 -123t-46 -121.5t-127 -42.5t-127.5 42.5t-46.5 121.5zM407 611l295 39q0 8 -1.5 20.5t-8.5 44t-19.5 56.5t-39 44.5t-61.5 19.5q-71 0 -114.5 -61t-50.5 -163zM678 1449q0 79 46.5 123t127.5 44q80 0 126.5 -44t46.5 -123t-46.5 -121.5 t-126.5 -42.5q-82 0 -128 42.5t-46 121.5z"/>
<glyph unicode="ì" horiz-adv-x="610" d="M-93 1645h320l243 -375l-183 -93zM130 0v1060h351v-1060h-351z"/>
<glyph unicode="í" horiz-adv-x="610" d="M130 0v1060h351v-1060h-351zM144 1270l240 375h318l-380 -468z"/>
<glyph unicode="î" horiz-adv-x="610" d="M-62 1250l268 395h206l271 -400l-186 -70l-190 269l-189 -269zM130 0v1060h351v-1060h-351z"/>
<glyph unicode="ï" horiz-adv-x="610" d="M-134 1449q0 79 46.5 123t127 44t126.5 -44t46 -123t-46 -121.5t-126 -42.5q-82 0 -128 42.5t-46 121.5zM130 0v1060h351v-1060h-351zM402 1449q0 79 46.5 123t127.5 44t127.5 -44t46.5 -123t-46 -121.5t-128 -42.5t-128 42.5t-46 121.5z"/>
<glyph unicode="ð" horiz-adv-x="1274" d="M64 499q0 109 36 213t100 188t165 136t218 52q28 0 54 -3.5t46 -8t36.5 -10.5t27.5 -12t19 -11t11 -8l5 -3q-77 150 -217 257l-313 -171l-80 154l217 121q-137 58 -261 84l66 247q266 -49 477 -176l343 188l79 -157l-267 -146q172 -147 267 -346.5t95 -431.5 q0 -192 -66.5 -345t-201 -245.5t-315.5 -92.5q-128 0 -232 42t-170.5 115.5t-102.5 168t-36 201.5zM400 521q0 -71 19 -136t70 -115t125 -50q105 0 174 91t69 298q0 93 -48.5 160.5t-144.5 67.5q-115 0 -189.5 -88.5t-74.5 -227.5z"/>
<glyph unicode="ñ" horiz-adv-x="1246" d="M125 0v1032l334 54v-190q167 192 376 192q296 0 296 -343v-745h-351v581q0 115 -14.5 159t-69.5 44q-91 0 -219 -131v-653h-352zM215 1303q0 34 4 68t19.5 79t41.5 78t74.5 56.5t113.5 23.5q69 0 126.5 -27t89 -59.5t66 -59.5t62.5 -27q65 0 65 115l-2 42h208 q3 -17 3 -39q0 -34 -4 -68t-20.5 -80.5t-43 -81t-76 -58.5t-116.5 -24q-58 0 -104 18t-76 43t-54.5 50t-49 43.5t-49.5 18.5q-69 0 -69 -120l2 -35h-208q-3 16 -3 44z"/>
<glyph unicode="ò" horiz-adv-x="1323" d="M64 528q0 83 20 160.5t65.5 151t113 128.5t170.5 87.5t229 32.5q121 0 222 -30t170 -81.5t117 -121t70 -146.5t22 -161q0 -78 -19 -155.5t-65 -154t-113 -135t-172.5 -95t-235.5 -36.5q-147 0 -263 46t-186.5 124.5t-107.5 177t-37 208.5zM269 1645h319l243 -375 l-184 -93zM424 541q0 -127 63 -224t173 -97q103 0 174 85t71 216q0 78 -26 148.5t-82.5 119t-132.5 48.5q-101 0 -170.5 -82t-69.5 -214z"/>
<glyph unicode="ó" horiz-adv-x="1323" d="M64 528q0 83 20 160.5t65.5 151t113 128.5t170.5 87.5t229 32.5q121 0 222 -30t170 -81.5t117 -121t70 -146.5t22 -161q0 -78 -19 -155.5t-65 -154t-113 -135t-172.5 -95t-235.5 -36.5q-147 0 -263 46t-186.5 124.5t-107.5 177t-37 208.5zM424 541q0 -127 63 -224 t173 -97q103 0 174 85t71 216q0 78 -26 148.5t-82.5 119t-132.5 48.5q-101 0 -170.5 -82t-69.5 -214zM502 1270l240 375h318l-380 -468z"/>
<glyph unicode="ô" horiz-adv-x="1323" d="M64 528q0 83 20 160.5t65.5 151t113 128.5t170.5 87.5t229 32.5q121 0 222 -30t170 -81.5t117 -121t70 -146.5t22 -161q0 -78 -19 -155.5t-65 -154t-113 -135t-172.5 -95t-235.5 -36.5q-147 0 -263 46t-186.5 124.5t-107.5 177t-37 208.5zM294 1250l269 395h205l272 -400 l-186 -70l-190 269l-189 -269zM424 541q0 -127 63 -224t173 -97q103 0 174 85t71 216q0 78 -26 148.5t-82.5 119t-132.5 48.5q-101 0 -170.5 -82t-69.5 -214z"/>
<glyph unicode="õ" horiz-adv-x="1323" d="M64 528q0 83 20 160.5t65.5 151t113 128.5t170.5 87.5t229 32.5q121 0 222 -30t170 -81.5t117 -121t70 -146.5t22 -161q0 -78 -19 -155.5t-65 -154t-113 -135t-172.5 -95t-235.5 -36.5q-147 0 -263 46t-186.5 124.5t-107.5 177t-37 208.5zM238 1303q0 34 4 68t20 79 t41.5 78t74 56.5t112.5 23.5q69 0 127 -27t89.5 -59.5t66 -59.5t62.5 -27q66 0 66 115l-3 42h208q3 -17 3 -39q0 -34 -4 -68t-20 -80.5t-42.5 -81t-76.5 -58.5t-116 -24q-58 0 -104.5 18t-76 43t-54 50t-49.5 43.5t-50 18.5q-27 0 -44 -22t-21.5 -46.5t-4.5 -51.5l3 -35 h-208q-3 16 -3 44zM424 541q0 -127 63 -224t173 -97q103 0 174 85t71 216q0 78 -26 148.5t-82.5 119t-132.5 48.5q-101 0 -170.5 -82t-69.5 -214z"/>
<glyph unicode="ö" horiz-adv-x="1323" d="M64 528q0 83 20 160.5t65.5 151t113 128.5t170.5 87.5t229 32.5q121 0 222 -30t170 -81.5t117 -121t70 -146.5t22 -161q0 -78 -19 -155.5t-65 -154t-113 -135t-172.5 -95t-235.5 -36.5q-147 0 -263 46t-186.5 124.5t-107.5 177t-37 208.5zM223 1449q0 79 46 123t126.5 44 t127.5 -44t47 -123t-46.5 -121.5t-127.5 -42.5t-127 42.5t-46 121.5zM424 541q0 -127 63 -224t173 -97q103 0 174 85t71 216q0 78 -26 148.5t-82.5 119t-132.5 48.5q-101 0 -170.5 -82t-69.5 -214zM759 1449q0 79 46 123t127 44q80 0 127 -44t47 -123t-46 -121.5t-128 -42.5 t-127.5 42.5t-45.5 121.5z"/>
<glyph unicode="÷" horiz-adv-x="1202" d="M84 486v206h1036v-206h-1036zM433 162q0 73 48.5 125.5t119.5 52.5q74 0 124 -52.5t50 -125.5q0 -72 -49.5 -121.5t-124.5 -49.5q-71 0 -119.5 49.5t-48.5 121.5zM433 1016q0 71 48.5 122.5t119.5 51.5q74 0 124 -51t50 -123t-50 -123t-124 -51q-71 0 -119.5 51.5 t-48.5 122.5z"/>
<glyph unicode="ø" horiz-adv-x="1323" d="M64 528q0 83 19.5 160.5t65 151t113.5 128.5t172 87.5t233 32.5q152 0 275 -51l69 92h172l-121 -162q100 -73 150.5 -183.5t50.5 -230.5q0 -81 -19 -159t-65 -155t-113 -136t-172.5 -95t-235.5 -36q-168 0 -292 59l-77 -100h-171l129 173q-91 76 -137 187t-46 237z M424 548q0 -96 27 -168l320 428q-50 29 -109 29q-98 0 -168 -83t-70 -206zM537 261q55 -41 127 -41q99 0 170 85.5t71 217.5q0 100 -42 179z"/>
<glyph unicode="ù" horiz-adv-x="1254" d="M118 292v768h352v-629q0 -86 19 -123t69 -37q89 0 213 118v671h351v-738q0 -56 12 -135.5t23 -130.5l11 -49l-337 -30q-19 94 -30 171q-182 -176 -386 -176q-134 0 -215.5 79.5t-81.5 240.5zM223 1645h318l243 -375l-183 -93z"/>
<glyph unicode="ú" horiz-adv-x="1254" d="M118 292v768h352v-629q0 -86 19 -123t69 -37q89 0 213 118v671h351v-738q0 -56 12 -135.5t23 -130.5l11 -49l-337 -30q-19 94 -30 171q-182 -176 -386 -176q-134 0 -215.5 79.5t-81.5 240.5zM455 1270l241 375h318l-380 -468z"/>
<glyph unicode="û" horiz-adv-x="1254" d="M118 292v768h352v-629q0 -86 19 -123t69 -37q89 0 213 118v671h351v-738q0 -56 12 -135.5t23 -130.5l11 -49l-337 -30q-19 94 -30 171q-182 -176 -386 -176q-134 0 -215.5 79.5t-81.5 240.5zM247 1250l269 395h206l271 -400l-185 -70l-190 269l-190 -269z"/>
<glyph unicode="ü" horiz-adv-x="1254" d="M118 292v768h352v-629q0 -86 19 -123t69 -37q89 0 213 118v671h351v-738q0 -56 12 -135.5t23 -130.5l11 -49l-337 -30q-19 94 -30 171q-182 -176 -386 -176q-134 0 -215.5 79.5t-81.5 240.5zM176 1449q0 79 46.5 123t126.5 44t127 -44t47 -123t-46 -121.5t-128 -42.5 q-80 0 -126.5 42.5t-46.5 121.5zM713 1449q0 79 46 123t127 44q80 0 127 -44t47 -123t-46.5 -121.5t-127.5 -42.5q-83 0 -128 42.5t-45 121.5z"/>
<glyph unicode="ý" horiz-adv-x="1124" d="M-5 1060h359l216 -669l207 669h350l-423 -1135q-32 -83 -86.5 -163t-129 -146.5t-172.5 -111t-203 -52.5l-104 270q120 9 226.5 73t144.5 154l25 60zM402 1270l241 375h317l-379 -468z"/>
<glyph unicode="þ" horiz-adv-x="1265" d="M130 -548v2156l351 56v-743q84 167 278 167q136 0 238 -72t153 -189t51 -260q0 -90 -20 -176t-63.5 -162t-106 -133.5t-150.5 -90.5t-192 -33q-129 0 -188 35v-500zM481 301q0 -40 36 -60.5t94 -20.5q101 0 165 81t64 243q0 133 -42 206.5t-115 73.5q-104 0 -202 -144 v-379z"/>
<glyph unicode="ÿ" horiz-adv-x="1124" d="M-5 1060h359l216 -669l207 669h350l-423 -1135q-32 -83 -86.5 -163t-129 -146.5t-172.5 -111t-203 -52.5l-104 270q120 9 226.5 73t144.5 154l25 60zM123 1449q0 79 46.5 123t126.5 44t127 -44t47 -123t-46.5 -121.5t-127.5 -42.5q-80 0 -126.5 42.5t-46.5 121.5z M660 1449q0 79 45.5 123t127.5 44q80 0 127 -44t47 -123t-46.5 -121.5t-127.5 -42.5q-83 0 -128 42.5t-45 121.5z"/>
<glyph unicode="Œ" horiz-adv-x="2299" d="M75 768q0 152 57.5 294.5t162 256.5t267.5 183.5t359 69.5q155 0 289 -28h991v-299h-648v-313h514v-303h-514v-331h678v-298h-1037q-174 -28 -296 -28q-184 0 -340.5 66t-261 176t-163 254t-58.5 300zM446 775q0 -94 32 -183t89 -160.5t145 -115t191 -43.5q191 0 291 34 v917q-118 46 -275 46q-108 0 -198 -41t-149.5 -110t-92.5 -158t-33 -186z"/>
<glyph unicode="œ" horiz-adv-x="1978" d="M64 530q0 103 37 200t107 178.5t187.5 130.5t264.5 49q265 0 414 -183q142 183 366 183q209 0 333.5 -147.5t126.5 -410.5l-180 -53l-450 -58q26 -94 90 -145t155 -51q49 0 99 13.5t88 32.5t69 38.5t48 32.5l16 14l84 -236q-8 -6 -22 -16t-60.5 -35t-95.5 -44.5t-124 -35 t-148 -15.5q-250 0 -402 172q-153 -172 -422 -172q-141 0 -254 46t-183 124.5t-107 177.5t-37 210zM424 541q0 -127 63 -224t173 -97q97 0 163.5 84.5t66.5 216.5q0 79 -23.5 149t-76.5 118.5t-126 48.5q-101 0 -170.5 -82t-69.5 -214zM1248 611l298 39q0 8 -1 20.5t-10 44 t-23 56.5t-42.5 44.5t-67.5 19.5q-64 0 -106 -61t-48 -163z"/>
<glyph unicode="Ÿ" horiz-adv-x="1450" d="M-11 1544h420l315 -568l334 568h404l-557 -912v-632h-359v629zM236 1840q0 79 50 126.5t131 47.5t130.5 -47.5t49.5 -126.5q0 -78 -49.5 -124.5t-130.5 -46.5t-131 46.5t-50 124.5zM842 1840q0 79 50 126.5t130.5 47.5t130.5 -47.5t50 -126.5q0 -77 -50 -124t-130.5 -47 t-130.5 47t-50 124z"/>
<glyph unicode="ˆ" horiz-adv-x="1188" d="M225 1250l268 395h205l272 -400l-186 -70l-190 269l-189 -269z"/>
<glyph unicode="˜" horiz-adv-x="1188" d="M176 1303q0 34 4 68t20 79t41.5 78t74 56.5t112.5 23.5q69 0 126.5 -27t89.5 -59.5t66.5 -59.5t62.5 -27q64 0 64 115l-2 42h209q2 -17 2 -39q0 -34 -4 -68t-20 -80.5t-42.5 -81t-76.5 -58.5t-117 -24q-57 0 -103.5 18t-76.5 43t-54 50t-49 43.5t-50 18.5q-69 0 -69 -120 l2 -35h-207q-3 16 -3 44z"/>
<glyph unicode=" " horiz-adv-x="1011"/>
<glyph unicode=" " horiz-adv-x="2023"/>
<glyph unicode=" " horiz-adv-x="1011"/>
<glyph unicode=" " horiz-adv-x="2023"/>
<glyph unicode=" " horiz-adv-x="674"/>
<glyph unicode=" " horiz-adv-x="505"/>
<glyph unicode=" " horiz-adv-x="337"/>
<glyph unicode=" " horiz-adv-x="337"/>
<glyph unicode=" " horiz-adv-x="252"/>
<glyph unicode=" " horiz-adv-x="404"/>
<glyph unicode=" " horiz-adv-x="112"/>
<glyph unicode="‐" horiz-adv-x="894" d="M115 499v193h665v-193h-665z"/>
<glyph unicode="‑" horiz-adv-x="894" d="M115 499v193h665v-193h-665z"/>
<glyph unicode="‒" horiz-adv-x="894" d="M115 499v193h665v-193h-665z"/>
<glyph unicode="–" horiz-adv-x="1179" d="M115 493v205h949v-205h-949z"/>
<glyph unicode="—" horiz-adv-x="2082" d="M115 493v205h1852v-205h-1852z"/>
<glyph unicode="‘" horiz-adv-x="534" d="M84 1277q0 246 270 461l109 -118q-83 -64 -121.5 -125.5t-38.5 -136.5q0 -58 34 -116.5t133 -174.5l-252 -137q-134 188 -134 347z"/>
<glyph unicode="’" horiz-adv-x="508" d="M55 1601l250 137q139 -190 139 -347q0 -122 -65 -234.5t-209 -226.5l-106 119q82 65 120.5 125.5t38.5 132.5q0 61 -34 119t-134 175z"/>
<glyph unicode="‚" horiz-adv-x="563" d="M97 254l241 137q134 -188 134 -349q0 -244 -271 -461l-104 121q79 64 116 124.5t37 133.5q0 63 -30.5 122.5t-122.5 171.5z"/>
<glyph unicode="“" horiz-adv-x="1013" d="M84 1280q0 243 270 458l109 -118q-160 -123 -160 -259q0 -67 30.5 -125.5t136.5 -168.5l-252 -137q-134 188 -134 350zM563 1280q0 243 272 458l107 -118q-78 -62 -118 -123.5t-40 -135.5q0 -67 30.5 -125.5t136.5 -168.5l-253 -137q-135 184 -135 350z"/>
<glyph unicode="”" horiz-adv-x="989" d="M55 1601l250 137q139 -190 139 -347q0 -122 -65 -234.5t-209 -226.5l-106 119q82 65 120.5 125.5t38.5 132.5q0 61 -34 119t-134 175zM537 1601l249 137q137 -191 137 -347q0 -121 -65 -233.5t-211 -227.5l-103 119q82 64 121 125t39 133q0 60 -34 117t-133 177z"/>
<glyph unicode="„" horiz-adv-x="1045" d="M97 254l241 137q134 -188 134 -349q0 -244 -271 -461l-104 121q79 64 116 124.5t37 133.5q0 63 -30.5 122.5t-122.5 171.5zM576 254l241 137q134 -183 134 -349q0 -247 -271 -461l-104 121q82 63 118.5 124t36.5 134q0 64 -30.5 123t-124.5 171z"/>
<glyph unicode="•" horiz-adv-x="976" d="M120 592q0 156 106.5 262t261.5 106q157 0 263 -106t106 -262t-106 -261.5t-263 -105.5q-155 0 -261.5 105.5t-106.5 261.5z"/>
<glyph unicode="…" horiz-adv-x="1915" d="M102 172q0 83 58.5 143t140.5 60t141.5 -60t59.5 -143q0 -82 -59.5 -141t-141.5 -59t-140.5 59t-58.5 141zM757 172q0 82 59.5 142.5t139.5 60.5q84 0 143.5 -60t59.5 -143q0 -82 -60.5 -141t-142.5 -59q-80 0 -139.5 59t-59.5 141zM1414 172q0 83 58.5 143t140.5 60 q84 0 143 -60t59 -143q0 -82 -59 -141t-143 -59q-82 0 -140.5 59t-58.5 141z"/>
<glyph unicode=" " horiz-adv-x="404"/>
<glyph unicode="‹" horiz-adv-x="716" d="M28 576v9q35 27 234 257q117 133 199 227l177 -53l-320 -435q14 -22 320 -435l-177 -53q-98 110 -182.5 205.5t-120 136.5t-65 74t-40.5 44.5t-25 22.5z"/>
<glyph unicode="›" horiz-adv-x="716" d="M81 146l319 435q-15 17 -319 435l178 53q376 -431 396 -451q17 -18 37 -33v-9q-14 -11 -25.5 -22.5t-40.5 -44.5t-65 -74t-120 -136.5t-182 -205.5z"/>
<glyph unicode=" " horiz-adv-x="505"/>
<glyph unicode="€" horiz-adv-x="1314" d="M77 727v143h152q69 205 233.5 331t391.5 126q91 0 183 -21t138 -43l47 -20l-83 -258q-14 9 -38.5 23t-95 36.5t-135.5 22.5q-204 0 -280 -197h514l-42 -143h-506q-3 -39 -3 -77q0 -54 5 -90h458l-42 -143h-382q81 -185 285 -185q58 0 125.5 15t107.5 31l38 16l55 -243 q-17 -9 -46.5 -22t-123.5 -35t-188 -22q-236 0 -400.5 119.5t-224.5 325.5h-141v143h118q-5 41 -5 67q0 51 7 100h-122z"/>
<glyph unicode="™" horiz-adv-x="1667" d="M79 1409v135h576v-135h-202v-481h-173v481h-201zM753 928l22 616h248l125 -369l129 369h241l23 -616h-169l-16 430l-153 -430h-113l-155 433l-12 -433h-170z"/>
<glyph unicode="" horiz-adv-x="1062" d="M0 1062h1062v-1062h-1062v1062z"/>
</font>
</defs>
</svg>
