<?xml version="1.0" encoding="UTF-8" standalone="no"?>
<!DOCTYPE svg PUBLIC "-//W3C//DTD SVG 1.1//EN" "http://www.w3.org/Graphics/SVG/1.1/DTD/svg11.dtd">
<svg xmlns="http://www.w3.org/2000/svg">
<metadata/>
<defs>
<font id="_.regular" horiz-adv-x="1223">
<font-face units-per-em="2048" ascent="1536" descent="-512"/>
<missing-glyph horiz-adv-x="564"/>
<glyph unicode="ﬁ" horiz-adv-x="1236" d="M66 912v97l167 63v90q0 259 125 406t337 147q85 0 165 -22.5t118 -45.5l37 -22l-85 -146q-12 8 -34.5 20.5t-86.5 34t-119 21.5q-118 0 -196 -94.5t-78 -289.5v-111h642v-1060h-184v923h-458v-923h-183v912h-167z"/>
<glyph unicode="ﬂ" horiz-adv-x="1270" d="M66 912v97l167 63v90q0 259 125 406t337 147q135 0 261 -59l136 25v-1681h-182v1490q-119 65 -220 65q-118 0 -196 -94.5t-78 -289.5v-111h300v-148h-300v-912h-183v912h-167z"/>
<glyph unicode="ﬃ" horiz-adv-x="1919" d="M66 912v97l167 63v54q0 251 128 390.5t345 139.5q166 0 316 -94q121 153 333 153q78 0 152 -22.5t110 -45.5l34 -22l-85 -146q-11 8 -32 20.5t-77.5 34t-106.5 21.5q-108 0 -179.5 -87.5t-71.5 -273.5v-134h641v-1060h-183v923h-458v-923h-182v923h-501v-923h-183v912 h-167zM416 1060h501v124q0 127 32 229q-135 82 -247 82q-126 0 -206 -87t-80 -273v-75z"/>
<glyph unicode="ﬄ" horiz-adv-x="1953" d="M66 912v97l167 63v54q0 251 128 390.5t345 139.5q171 0 326 -101q124 160 346 160q135 0 261 -59l137 25v-1681h-184v1490q-119 65 -219 65q-118 0 -196 -94.5t-78 -289.5v-111h301v-148h-301v-912h-182v923h-501v-923h-183v912h-167zM416 1060h501v102q0 149 36 247 q-139 86 -251 86q-126 0 -206 -87t-80 -273v-75z"/>
<glyph horiz-adv-x="2048"/>
<glyph horiz-adv-x="2048"/>
<glyph unicode="&#xD;" horiz-adv-x="2048"/>
<glyph unicode=" " horiz-adv-x="564"/>
<glyph unicode="&#9;" horiz-adv-x="564"/>
<glyph unicode=" " horiz-adv-x="564"/>
<glyph unicode="!" horiz-adv-x="638" d="M179 112.5q0 58.5 41.5 100t100.5 41.5t99.5 -41.5t40.5 -100t-40.5 -100t-99.5 -41.5t-100.5 41.5t-41.5 100zM209 1600h220l-31 -1139h-162z"/>
<glyph unicode="&quot;" horiz-adv-x="818" d="M151 1015v556h174v-87l-54 -469h-120zM519 1015v556h173v-87l-54 -469h-119z"/>
<glyph unicode="#" horiz-adv-x="1523" d="M85 294l23 130h283l68 334h-284l23 130h290l96 474h137l-97 -474h358l97 474h137l-97 -474h317l-23 -130h-323l-68 -334h325l-23 -130h-328l-101 -503h-139l104 503h-359l-101 -503h-139l104 503h-280zM528 424h358l67 334h-357z"/>
<glyph unicode="$" horiz-adv-x="1087" d="M94 99l43 167q6 -5 16 -12.5t46 -27t74.5 -35t98 -30t120.5 -17.5l12 445q-65 23 -109 42t-100.5 53.5t-91 72t-59 93.5t-24.5 123q0 140 100.5 234.5t302.5 109.5l7 204h104l-5 -202q89 -3 170.5 -21t118.5 -34l38 -16l-54 -158q-118 58 -278 69l-12 -422 q63 -23 113.5 -47t101 -59.5t84.5 -76t55 -95t21 -117.5q0 -149 -105.5 -242.5t-290.5 -108.5l-5 -200h-103l5 195q-111 4 -209 32t-141 54zM306 984q0 -79 51 -126t151 -85l13 386q-215 -14 -215 -175zM596 146q204 25 204 189q0 79 -49 127.5t-144 86.5z"/>
<glyph unicode="%" horiz-adv-x="1721" d="M92 1193.5q0 147.5 102.5 251t253 103.5t253 -103.5t102.5 -251t-102.5 -250t-253 -102.5t-253 102.5t-102.5 250zM224 1194q0 -91 64.5 -160.5t159 -69.5t159.5 69.5t65 160.5t-65 161t-162 70q-93 0 -157 -70t-64 -161zM247 0l1100 1582l99 -67l-1055 -1515h-144z M926 325.5q0 147.5 102 250t253 102.5t253 -102.5t102 -250t-102 -251t-253 -103.5t-253 103.5t-102 251zM1058 325.5q0 -90.5 64.5 -161t158.5 -70.5t159 70.5t65 161t-65 160t-161 69.5q-93 0 -157 -69.5t-64 -160z"/>
<glyph unicode="&amp;" horiz-adv-x="1603" d="M101 367q0 77 27 145.5t80 126.5t106.5 100.5t130.5 91.5q-137 243 -137 405q0 64 22 125.5t65 116t119.5 88.5t175.5 34q163 0 254.5 -88t91.5 -229q0 -62 -20.5 -120.5t-51.5 -103.5t-82.5 -92.5t-95 -80.5t-108.5 -75q173 -260 363 -444q96 129 155.5 309t73.5 384 h173q-14 -186 -85.5 -407.5t-200.5 -389.5q214 -183 385 -225l-75 -137q-194 30 -435 231q-188 -161 -432 -161q-131 0 -242 42.5t-184 134.5t-73 219zM283 382q0 -81 49 -139t122 -84.5t158 -26.5q164 0 302 104q-196 183 -393 470q-114 -79 -176 -155t-62 -169zM508 1241 q0 -124 97 -306q121 79 185 154.5t64 168.5q0 76 -44 128.5t-125 52.5q-84 0 -130.5 -57.5t-46.5 -140.5z"/>
<glyph unicode="'" horiz-adv-x="451" d="M151 1015v556h174v-87l-54 -469h-120z"/>
<glyph unicode="(" horiz-adv-x="672" d="M125 636q0 128 19 252t50 219.5t68 181t74.5 146t68.5 105.5t50 65l19 22l146 -42q-14 -15 -36.5 -44.5t-80 -125.5t-101.5 -199.5t-80.5 -261.5t-36.5 -318q0 -175 35 -343.5t85 -284t101 -206t85 -133.5l36 -44l-142 -49q-8 8 -20.5 23.5t-50 69.5t-71.5 114.5 t-75 155.5t-71 195.5t-51 233t-21 268.5z"/>
<glyph unicode=")" horiz-adv-x="672" d="M47 -375q14 16 37 45.5t82 130t104 210.5t82 280t37 345q0 160 -34.5 316.5t-83.5 265.5t-98.5 195.5t-83.5 128.5l-35 43l146 42q7 -8 19.5 -22.5t49 -64.5t69 -105.5t73 -144.5t69.5 -183t49 -218.5t20 -252.5q0 -136 -20.5 -268t-52 -234.5t-69.5 -194.5t-76.5 -157 t-70 -112.5t-51.5 -70.5l-20 -23z"/>
<glyph unicode="*" horiz-adv-x="1139" d="M106 982l337 125l35 -62l-278 -227zM106 1297l94 166l278 -229l-35 -61zM476 659l59 354h70l60 -354h-189zM476 1620h189l-60 -353h-70zM661 1045l36 62l337 -125l-94 -164zM661 1234l279 229l94 -166l-337 -124z"/>
<glyph unicode="+" d="M72 513v154h463v482h162v-482h454v-154h-454v-513h-162v513h-463z"/>
<glyph unicode="," horiz-adv-x="541" d="M87 -323q82 73 105 105q44 58 44 142q0 68 -26 131t-85 145l192 63q90 -107 90 -254q0 -237 -238 -416z"/>
<glyph unicode="-" horiz-adv-x="795" d="M132 504v170h533v-170h-533z"/>
<glyph unicode="." horiz-adv-x="560" d="M139 112.5q0 58.5 41.5 100t100 41.5t100 -41.5t41.5 -100t-41.5 -100t-100 -41.5t-100 41.5t-41.5 100z"/>
<glyph unicode="/" horiz-adv-x="1077" d="M54 -461l784 2032h162l-782 -2032h-164z"/>
<glyph unicode="0" horiz-adv-x="1292" d="M117 537q0 115 34 220t98.5 190.5t169.5 136.5t238 51q102 0 188.5 -30.5t146.5 -83t102 -122.5t61.5 -150t19.5 -165q0 -92 -19 -178.5t-61.5 -166t-104.5 -139t-153 -94.5t-201 -35q-123 0 -223.5 49t-164 129.5t-97.5 180.5t-34 207zM301 558q0 -111 38.5 -205.5 t119 -157.5t186.5 -63q115 0 195.5 64t115.5 158t35 208q0 107 -35.5 198.5t-115.5 153t-193 61.5q-108 0 -189 -62t-119 -155t-38 -200z"/>
<glyph unicode="1" horiz-adv-x="852" d="M120 0v158h247v803h-230v146h414v-949h231v-158h-662z"/>
<glyph unicode="2" horiz-adv-x="1045" d="M106 120q11 8 31.5 23t78.5 62t111 94t117 114t110.5 127.5t78.5 129.5t32 126q0 79 -55.5 129t-142.5 50q-65 0 -134 -27t-105 -53l-37 -28l-81 120q7 5 20.5 15.5t55 36t84.5 45t105 35.5t122 16q155 0 257.5 -90.5t102.5 -224.5q0 -72 -31.5 -150.5t-75 -140.5 t-115 -137.5t-123.5 -122t-130 -111.5h574v-158h-831z"/>
<glyph unicode="3" horiz-adv-x="937" d="M47 987q7 5 20 15.5t54.5 36t84 45t106 35.5t124.5 16q153 0 254 -87t101 -223q0 -122 -83.5 -224.5t-201.5 -171.5q155 -33 240 -131t85 -239q0 -226 -192 -367.5t-493 -141.5q-42 0 -63 3l-17 146q23 -3 71 -3q138 0 250 39.5t181.5 120t69.5 189.5q0 72 -31 125.5 t-84.5 82.5t-114.5 42t-132 13h-67v151q136 15 262.5 121.5t126.5 224.5q0 77 -52 123.5t-134 46.5q-67 0 -138.5 -27t-107.5 -53l-38 -28z"/>
<glyph unicode="4" d="M66 61v125l700 949h155v-923h223v-151h-223v-515h-184v515h-671zM266 212h471v638z"/>
<glyph unicode="5" horiz-adv-x="939" d="M72 -301q23 -3 74 -3q100 0 188.5 22.5t159 65t111 112.5t40.5 158q0 62 -17 114t-45.5 88.5t-72 67t-86.5 50t-101.5 35t-104.5 24.5t-105 17v657h667v-158h-488v-367q90 -18 165 -44t147.5 -69t122.5 -98.5t80.5 -134t30.5 -173.5q0 -156 -89 -274t-242.5 -178.5 t-348.5 -60.5q-45 0 -68 3z"/>
<glyph unicode="6" horiz-adv-x="1196" d="M113 652q0 143 32 276t100 253t165.5 210t237 146t305.5 63l15 -151q-112 -7 -207.5 -39.5t-167 -84.5t-126 -122.5t-89 -150.5t-53.5 -171q104 130 311 130q146 0 254 -71t160 -182.5t52 -246.5q0 -103 -32 -198.5t-90.5 -172t-152 -123t-207.5 -46.5q-126 0 -224 55.5 t-159 151t-92.5 216t-31.5 258.5zM306 716q0 -274 84.5 -429t240.5 -155q128 0 203.5 102.5t75.5 255.5q0 47 -7.5 93t-28.5 95.5t-52.5 86.5t-85.5 61t-124 24q-73 0 -142 -27t-103.5 -53t-60.5 -54z"/>
<glyph unicode="7" horiz-adv-x="1068" d="M72 933v174h933v-125q-256 -640 -668 -1445l-179 41q339 619 636 1355h-722z"/>
<glyph unicode="8" horiz-adv-x="1200" d="M115 384q0 59 20 114t50 97.5t79 88t92 77t105 73.5q-56 45 -97.5 85.5t-78.5 91t-56.5 109t-19.5 121.5q0 162 121 260.5t299 98.5q175 0 285.5 -96t110.5 -248q0 -85 -40.5 -163t-96 -132t-139.5 -113q76 -54 126 -95.5t103.5 -99.5t80.5 -124t27 -138 q0 -174 -141 -297t-352 -123q-209 0 -343.5 122t-134.5 291zM292 391q0 -114 91.5 -186.5t212 -72.5t208.5 68.5t88 179.5q0 34 -10 67t-35.5 66t-46 56.5t-66 59.5t-69 53t-79.5 57q-55 -36 -90.5 -62t-78.5 -63t-67.5 -68.5t-41 -72.5t-16.5 -82zM402 1248 q0 -84 57 -156.5t163 -151.5q109 78 167.5 148.5t58.5 154.5q0 97 -67.5 146.5t-156.5 49.5q-87 0 -154.5 -49t-67.5 -142z"/>
<glyph unicode="9" horiz-adv-x="1196" d="M117 612q0 100 31 193t88.5 167t149 118.5t203.5 44.5q125 0 223.5 -55t159 -150.5t92 -216.5t31.5 -259t-32.5 -266t-100 -242.5t-165.5 -201.5t-237 -140.5t-306 -60.5l-14 151q141 8 255.5 54.5t191.5 123t125 167.5t71 197q-106 -128 -308 -128q-144 0 -250.5 72.5 t-157 185t-50.5 246.5zM310 645q0 -52 7 -99.5t26.5 -100t50 -90.5t83.5 -62.5t121 -24.5q171 0 304 132q0 168 -35.5 295.5t-109.5 203.5t-180 76q-120 0 -193.5 -96t-73.5 -234z"/>
<glyph unicode=":" horiz-adv-x="638" d="M179 112.5q0 58.5 41.5 100t100.5 41.5t99.5 -41.5t40.5 -100t-40.5 -100t-99.5 -41.5t-100.5 41.5t-41.5 100zM179 919q0 59 41.5 100t100.5 41t99.5 -41t40.5 -100t-40.5 -100.5t-99.5 -41.5t-100.5 41.5t-41.5 100.5z"/>
<glyph unicode=";" horiz-adv-x="627" d="M137 -323q81 73 105 105q43 58 43 142q0 68 -26 131t-84 145l192 63q90 -107 90 -254q0 -237 -239 -416zM172 919q0 59 41 100t99.5 41t100 -41t41.5 -100t-41.5 -100.5t-100 -41.5t-99.5 41.5t-41 100.5z"/>
<glyph unicode="&lt;" d="M72 532v109l1004 539l36 -160l-827 -434l827 -456l-36 -159z"/>
<glyph unicode="=" d="M85 290v153h1055v-153h-1055zM85 737v153h1055v-153h-1055z"/>
<glyph unicode="&gt;" d="M110 130l825 456l-825 434l36 160l1003 -539v-109l-1003 -561z"/>
<glyph unicode="?" horiz-adv-x="840" d="M108 1477l40 174q13 -3 35 -10.5t85 -31.5t120 -50.5t127 -68t121 -85t85.5 -100t34.5 -114.5q0 -50 -28 -103t-68.5 -97.5t-88.5 -102t-88.5 -115t-68.5 -139.5t-28 -173h-148q-7 33 -7 81q0 87 31.5 170.5t77 146t91 117t77 105.5t31.5 90q0 46 -44 94t-107.5 84.5 t-127 66.5t-108.5 44zM179 112.5q0 58.5 41.5 100t100.5 41.5t99.5 -41.5t40.5 -100t-40.5 -100t-99.5 -41.5t-100.5 41.5t-41.5 100z"/>
<glyph unicode="@" horiz-adv-x="1956" d="M99 459q0 183 68.5 353.5t187.5 301t295.5 209.5t378.5 79q179 0 330.5 -60t256 -163.5t164 -245.5t59.5 -304q0 -151 -52.5 -287t-163.5 -220q-27 -21 -59.5 -37.5t-58.5 -27.5t-74 -24l-72 -19.5t-89 -21t-92 -21.5q-22 97 -34 175q-40 -75 -121 -125t-175 -50 q-143 0 -239 123.5t-96 327.5q0 145 53.5 267t142.5 202.5t204.5 124.5t241.5 44q29 0 68.5 -2t62.5 -5l24 -3v-715q0 -52 4 -100t8 -69l4 -22q178 20 265.5 142.5t87.5 316.5q0 187 -76 336.5t-225 238.5t-346 89q-227 0 -406 -114.5t-273 -299.5t-94 -401 q0 -156 52 -292.5t139 -229.5t200.5 -149t235.5 -62l-24 -128q-213 9 -389 129t-275 316t-99 423zM706 436q0 -128 52 -216t134 -88q38 0 76 18t65 43t49 51t34 44l10 18v606q-183 0 -301.5 -138.5t-118.5 -337.5z"/>
<glyph unicode="A" horiz-adv-x="1457" d="M33 0l603 1582h186l603 -1582h-203l-177 474h-640l-176 -474h-196zM467 636h517l-258 692z"/>
<glyph unicode="B" horiz-adv-x="1382" d="M231 0v1571h410q117 0 210 -22t152.5 -58t98.5 -86t55 -102t16 -109q0 -114 -56.5 -202.5t-134.5 -148.5q33 -12 65 -27.5t73.5 -47.5t71.5 -72t51.5 -103t21.5 -136q0 -207 -149.5 -332t-387.5 -125h-497zM424 162h268q183 0 274.5 75.5t91.5 205.5q0 131 -91 208 t-275 77h-268v-566zM424 890h365q7 4 19 11t42.5 33.5t54 56.5t42.5 80t19 104q0 52 -17 92.5t-57 73t-112.5 50.5t-174.5 18h-181v-519z"/>
<glyph unicode="C" horiz-adv-x="1584" d="M117 775q0 170 60 321t168 262.5t267.5 176.5t348.5 65q88 0 173.5 -14t145.5 -34t107.5 -39.5t70.5 -33.5l23 -14l-77 -175q-8 6 -22 16t-60.5 34t-96.5 42.5t-125.5 34t-153.5 15.5q-120 0 -222.5 -36.5t-175 -98t-123.5 -143.5t-75.5 -174.5t-24.5 -190.5 q0 -133 47 -252.5t128.5 -207t198.5 -139t252 -51.5q75 0 151 16t131 39t98.5 46.5t66.5 40.5l22 16l81 -146q-9 -7 -26 -19t-74 -43t-118.5 -55t-156 -43.5t-191.5 -19.5q-233 0 -419.5 102t-292.5 286t-106 416z"/>
<glyph unicode="D" horiz-adv-x="1701" d="M231 0v1571h475q134 0 256 -25t236.5 -83t198 -143.5t133.5 -216t50 -292.5q0 -259 -123 -443.5t-338 -276t-501 -91.5h-387zM424 162h169q168 0 301 32.5t221.5 88t147 135.5t84.5 171.5t26 199.5q0 287 -181 453.5t-518 166.5h-250v-1247z"/>
<glyph unicode="E" horiz-adv-x="1276" d="M231 0v1571h926v-162h-733v-526h579v-162h-579v-559h731v-162h-924z"/>
<glyph unicode="F" horiz-adv-x="1205" d="M231 0v1571h904v-162h-711v-533h563v-172h-563v-704h-193z"/>
<glyph unicode="G" horiz-adv-x="1643" d="M117 764q0 132 36 255.5t107 229t171.5 184t238 123t296.5 44.5q87 0 173.5 -12t146.5 -29.5t107.5 -35.5t71.5 -30l23 -12l-77 -173q-8 4 -22.5 12.5t-62 30t-97.5 38t-125.5 30t-150.5 13.5q-153 0 -275.5 -55t-198 -147.5t-116 -207.5t-40.5 -242q0 -184 80.5 -328.5 t234.5 -228.5t358 -84q65 0 139.5 10t115.5 20l42 10v464h-337v162h530v-760q-32 -8 -87 -20t-193 -33t-240 -21q-175 0 -329.5 55.5t-270 156t-182.5 250.5t-67 331z"/>
<glyph unicode="H" horiz-adv-x="1775" d="M231 0v1571h193v-688h928v688h192v-1571h-192v721h-928v-721h-193z"/>
<glyph unicode="I" horiz-adv-x="654" d="M231 0v1571h193v-1571h-193z"/>
<glyph unicode="J" horiz-adv-x="656" d="M-40 -263q85 10 143 57.5t84.5 119t36 133.5t9.5 130v1394h194v-1392q0 -82 -11.5 -158.5t-40 -152.5t-72 -133.5t-112 -99.5t-155.5 -55z"/>
<glyph unicode="K" horiz-adv-x="1365" d="M231 0v1571h193v-667h33l629 667h245l-707 -737l735 -834h-254l-648 742h-33v-742h-193z"/>
<glyph unicode="L" horiz-adv-x="1212" d="M231 0v1571h193v-1409h754v-162h-947z"/>
<glyph unicode="M" horiz-adv-x="2032" d="M205 0l56 1571h278l474 -1297l480 1297h278l56 -1571h-188l-50 1335l-503 -1335h-146l-504 1352l-43 -1352h-188z"/>
<glyph unicode="N" horiz-adv-x="1758" d="M231 0v1571h193l916 -1281v1281h188v-1571h-193l-915 1263v-1263h-189z"/>
<glyph unicode="O" horiz-adv-x="1872" d="M117 782q0 158 56.5 304t159.5 261t262 184t351 69q180 0 333 -61.5t256.5 -167.5t161.5 -249.5t58 -306.5q0 -132 -38 -257.5t-111.5 -231t-173 -185.5t-230 -125t-276.5 -45q-235 0 -422 112.5t-287 296.5t-100 402zM325 796q0 -94 25.5 -188t76.5 -178.5t122.5 -149.5 t170.5 -103t213 -38q140 0 259 57t195 150.5t118.5 210.5t42.5 239q0 98 -25.5 190.5t-77.5 173t-124 141.5t-171.5 96t-214.5 35q-114 0 -213.5 -36t-170.5 -97.5t-123 -142.5t-77.5 -173t-25.5 -187z"/>
<glyph unicode="P" horiz-adv-x="1328" d="M231 0v1571h454q148 0 258 -37t174.5 -102t96 -146.5t31.5 -178.5q0 -234 -154 -369t-406 -135h-261v-603h-193zM424 766h226q195 0 291.5 84.5t96.5 239.5q0 145 -92.5 232t-295.5 87h-226v-643z"/>
<glyph unicode="Q" horiz-adv-x="1872" d="M120 782q0 158 55.5 304t158 261t260.5 184t348 69q182 0 335.5 -61.5t258 -167.5t163 -249.5t58.5 -306.5q0 -285 -168.5 -513t-444.5 -302q40 -52 65 -82.5t72 -81t91 -81.5t101.5 -64t125 -48.5t141.5 -15.5l-28 -176q-70 -2 -136 9.5t-118 30.5t-103.5 49.5t-86.5 58 t-75 66t-61 63.5t-50 59.5t-39 45.5l-70 82q-44 53 -142 62q-211 23 -375 138t-250 289t-86 378zM328 795.5q0 -95.5 24.5 -188.5t75 -177.5t121 -149.5t170 -103t214.5 -38q140 0 258.5 57t195.5 150.5t120 211t43 240.5q0 119 -40.5 231.5t-116 202.5t-193.5 145t-260 55 q-114 0 -213.5 -36t-171.5 -97.5t-123.5 -142.5t-77.5 -173t-26 -187.5z"/>
<glyph unicode="R" horiz-adv-x="1398" d="M231 0v1571h412q146 0 257.5 -35t176 -96.5t96 -136.5t31.5 -161q0 -82 -28 -155t-77 -127t-103.5 -92.5t-116.5 -65.5l476 -702h-229l-450 661h-252v-661h-193zM424 825h248q124 0 224 81t100 218q0 58 -21 107t-65 90.5t-121.5 64.5t-181.5 23h-183v-584z"/>
<glyph unicode="S" horiz-adv-x="1198" d="M113 104l51 181q7 -6 21 -15.5t57.5 -33.5t89 -42.5t112.5 -34t131 -15.5q133 0 223 60t90 169q0 72 -41.5 132t-107 103t-145 84.5t-159.5 87.5t-145.5 99.5t-107 132.5t-41.5 177q0 178 136.5 294.5t374.5 116.5q92 0 192 -18t154 -36l54 -18l-49 -181q-20 9 -54 22 t-128 35.5t-176 22.5q-137 0 -222.5 -55.5t-85.5 -160.5q0 -74 41.5 -133.5t107 -102.5t145 -83.5t159 -86.5t145 -100t107 -135.5t41.5 -183.5q0 -132 -70.5 -228t-185 -141.5t-259.5 -45.5q-77 0 -151.5 14t-127 33t-94.5 38.5t-62 33.5z"/>
<glyph unicode="T" horiz-adv-x="1393" d="M40 1409v162h1315v-162h-566v-1409h-193v1409h-556z"/>
<glyph unicode="U" horiz-adv-x="1692" d="M209 566v1005h193v-968q0 -236 122 -350t324 -114q198 0 320 113.5t122 336.5v982h194v-973q0 -120 -33 -222t-91 -176t-138 -126t-175.5 -77.5t-201.5 -25.5q-135 0 -247.5 33.5t-201 102.5t-138 185.5t-49.5 273.5z"/>
<glyph unicode="V" horiz-adv-x="1386" d="M33 1571h205l459 -1297l460 1297h198l-568 -1583h-189z"/>
<glyph unicode="W" horiz-adv-x="2225" d="M59 1571h197l387 -1300l375 1300h198l371 -1300l389 1300h193l-483 -1583h-198l-374 1268l-377 -1268h-198z"/>
<glyph unicode="X" horiz-adv-x="1393" d="M59 0l525 782l-525 789h229l411 -634l415 634h221l-524 -784l524 -787h-228l-412 634l-414 -634h-222z"/>
<glyph unicode="Y" horiz-adv-x="1353" d="M18 1571h229l434 -699l438 699h216l-560 -886v-685h-193v683z"/>
<glyph unicode="Z" horiz-adv-x="1362" d="M85 0v110l913 1299h-859v162h1106v-111l-901 -1298h916v-162h-1175z"/>
<glyph unicode="[" horiz-adv-x="675" d="M200 -365v1936h431v-130h-278v-1677h278v-129h-431z"/>
<glyph unicode="\" horiz-adv-x="1077" d="M78 1571h162l785 -2032h-165z"/>
<glyph unicode="]" horiz-adv-x="675" d="M45 -236h278v1677h-278v130h431v-1936h-431v129z"/>
<glyph unicode="^" horiz-adv-x="1162" d="M18 589l505 1011h118l503 -1011h-178l-386 777l-387 -777h-175z"/>
<glyph unicode="_" horiz-adv-x="1261" d="M43 -87h1177v-140h-1177v140z"/>
<glyph unicode="`" horiz-adv-x="1186" d="M377 1647h200l238 -391l-109 -65z"/>
<glyph unicode="a" horiz-adv-x="1104" d="M85 238q0 161 164.5 264.5t471.5 142.5v40v38.5t-1 35t-3.5 35t-6.5 31t-10.5 30t-15.5 23.5t-22 21t-29.5 15t-38 11t-48.5 3q-78 0 -161.5 -29.5t-126.5 -58.5l-44 -29l-56 148q6 6 20 14.5t59 30.5t92.5 39t121 31t147.5 14q170 0 238 -77.5t68 -259.5v-477 q0 -39 12 -68t30 -42t35 -21t29 -10l12 -1l-61 -148q-104 11 -157 55t-71 116q-12 -19 -35.5 -44t-66 -59.5t-108.5 -57.5t-141 -23q-135 0 -216 74.5t-81 192.5zM281 250q0 -59 38.5 -88.5t100.5 -29.5q87 0 158 49.5t143 133.5v196q-229 -38 -334.5 -99t-105.5 -162z"/>
<glyph unicode="b" horiz-adv-x="1227" d="M175 18v1631l183 32v-732q46 57 124 98t183 41q207 0 331.5 -148t124.5 -374q0 -93 -22.5 -179.5t-70.5 -162.5t-116.5 -131.5t-167 -88.5t-214.5 -33q-168 0 -355 47zM358 148q80 -23 181 -23q174 0 281.5 111.5t107.5 316.5q0 173 -79.5 274t-207.5 101 q-155 0 -283 -141v-639z"/>
<glyph unicode="c" horiz-adv-x="1072" d="M104 519q0 109 36.5 210t103 181.5t171.5 129t230 48.5q63 0 122.5 -12t98 -29t68.5 -33.5t44 -29.5l13 -11l-81 -144q-5 4 -13.5 10.5t-37 24t-58 30t-75.5 23.5t-92 11q-153 0 -245 -115.5t-92 -284.5q0 -167 92.5 -281.5t251.5 -114.5q48 0 95 11.5t80.5 28.5t60 33.5 t38.5 27.5l13 12l63 -137q-4 -6 -14 -15t-44.5 -32.5t-73.5 -41.5t-101.5 -33t-130.5 -15q-231 0 -377 156.5t-146 391.5z"/>
<glyph unicode="d" horiz-adv-x="1254" d="M106 494q0 117 37.5 222.5t108 189t182 133t249.5 49.5q111 0 205 -38v599l184 32v-1353q0 -58 11.5 -140t22.5 -135l13 -53l-182 -16q-22 96 -33 169q-48 -78 -137 -130t-207 -52q-134 0 -239 70.5t-160 188.5t-55 264zM301 506q0 -172 80 -273t203 -101q59 0 113 22.5 t92.5 59t60.5 62t38 49.5v457q-6 151 -203 151q-173 0 -278.5 -113.5t-105.5 -313.5z"/>
<glyph unicode="e" horiz-adv-x="1146" d="M106 506q0 252 142.5 417t366.5 165q189 0 306 -125.5t117 -347.5l-112 -33l-625 -83q13 -167 105.5 -267t245.5 -100q51 0 103.5 14t92.5 33.5t71.5 39t48.5 33.5l16 14l54 -141q-5 -5 -17 -16t-52.5 -37.5t-84 -46.5t-112.5 -37t-141 -17q-127 0 -229 44.5t-166 119 t-97 170t-33 201.5zM304 641l532 67q-1 10 -4 25.5t-18 54.5t-38 68.5t-68.5 54t-104.5 24.5q-122 0 -200.5 -82.5t-98.5 -211.5z"/>
<glyph unicode="f" horiz-adv-x="769" d="M66 912v97l167 63v112q0 251 119.5 391t319.5 140q78 0 152 -22.5t110 -45.5l34 -22l-85 -146q-11 8 -32 20.5t-78 34t-106 21.5q-108 0 -179.5 -87.5t-71.5 -273.5v-134h300v-148h-300v-912h-183v912h-167z"/>
<glyph unicode="g" horiz-adv-x="1179" d="M68 -276q0 183 276 323q-177 53 -177 144q0 92 163 189q-97 49 -151 138.5t-54 200.5q0 112 61.5 198t160 128.5t215.5 42.5q62 0 155.5 -22.5t149.5 -22.5h113q30 0 65 6.5t54 11.5l20 6l16 -165h-135q-40 0 -86 4q80 -86 80 -207q0 -88 -40.5 -160.5t-106 -116.5 t-143.5 -67t-160 -23q-46 0 -85 7q-32 -23 -47.5 -35.5t-31 -30.5t-15.5 -33q0 -33 102 -63q46 -13 209 -49q74 -16 122 -29.5t108 -38t95 -53t60 -73t25 -101.5q0 -106 -78 -196t-208.5 -142.5t-278.5 -52.5q-119 0 -219.5 30t-167 96t-66.5 156zM238 -250q0 -59 50 -99 t113.5 -53.5t133.5 -13.5q148 0 255 67t107 156q0 30 -15 54.5t-37.5 42t-61.5 33t-76.5 25t-91.5 22.5q-47 10 -118 23q-65 -35 -96.5 -54.5t-77 -54t-65.5 -70.5t-20 -78zM313 706q0 -95 63.5 -163.5t183.5 -68.5q108 0 176.5 57.5t68.5 158.5q0 99 -66 177.5t-184 78.5 q-110 0 -176 -68t-66 -172z"/>
<glyph unicode="h" horiz-adv-x="1243" d="M179 0v1649l183 32v-809q31 33 70.5 65t96 69t127.5 59.5t142 22.5q127 0 202.5 -77t75.5 -241v-770h-184v719q0 207 -143 207q-146 0 -387 -224v-702h-183z"/>
<glyph unicode="i" horiz-adv-x="541" d="M146 1456q0 53 37.5 89.5t90.5 36.5t89.5 -36.5t36.5 -89.5t-36.5 -90.5t-89.5 -37.5t-90.5 37.5t-37.5 90.5zM179 0v1060h183v-1060h-183z"/>
<glyph unicode="j" horiz-adv-x="541" d="M-76 -405q124 25 189.5 116t65.5 273v1076h183v-1042q0 -270 -96 -407.5t-284 -168.5zM144 1456q0 53 37 89.5t90 36.5t90 -36.5t37 -89.5t-37 -90.5t-90 -37.5t-90 37.5t-37 90.5z"/>
<glyph unicode="k" horiz-adv-x="1110" d="M179 0v1649l183 32v-1029h27l418 408h245l-494 -469l539 -591h-247l-459 516h-29v-516h-183z"/>
<glyph unicode="l" horiz-adv-x="541" d="M179 0v1649l183 32v-1681h-183z"/>
<glyph unicode="m" horiz-adv-x="1892" d="M175 0v1043l183 33v-204q31 32 68 64t93.5 69t126 60t138.5 23q211 0 254 -212q212 212 422 212q121 0 193.5 -77t72.5 -241v-770h-184v719q0 207 -131 207q-137 0 -361 -207v-719h-183v719q0 207 -132 207q-62 0 -146 -46.5t-136 -90.5t-95 -87v-702h-183z"/>
<glyph unicode="n" horiz-adv-x="1240" d="M175 0v1043l183 33v-207q32 34 70 65.5t95.5 69.5t129 61t143.5 23q126 0 202 -77t76 -241v-770h-184v719q0 207 -144 207q-48 0 -107 -25t-115 -65t-94.5 -72.5t-71.5 -64.5v-699h-183z"/>
<glyph unicode="o" horiz-adv-x="1254" d="M104 526q0 101 33.5 199t97.5 180t167 132.5t229 50.5q120 0 220 -45.5t164.5 -121t100 -171.5t35.5 -199q0 -79 -20.5 -160t-63.5 -156t-104 -133.5t-150 -94.5t-191 -36q-118 0 -218 47.5t-164.5 125.5t-100 177t-35.5 205zM297 546q0 -80 20 -152t59 -132t104 -95 t149 -35q150 0 240 108t90 281q0 79 -19 149.5t-57.5 129.5t-104 93.5t-151.5 34.5q-150 0 -240 -104.5t-90 -277.5z"/>
<glyph unicode="p" horiz-adv-x="1233" d="M175 -546v1589l178 33v-164q41 75 125 125.5t200 50.5q204 0 327 -151.5t123 -376.5q0 -161 -64.5 -294.5t-187 -214t-280.5 -80.5q-153 0 -238 67v-551zM358 266q0 -70 53.5 -104t146.5 -34q172 0 273.5 111t101.5 307q0 175 -78 276t-201 101q-56 0 -109 -21.5 t-91.5 -56t-59 -57.5t-36.5 -46v-476z"/>
<glyph unicode="q" horiz-adv-x="1227" d="M106 494q0 118 36.5 222.5t107.5 188.5t186.5 133.5t260.5 49.5q75 0 164 -11.5t139 -23.5l52 -12v-1554l-183 -33v659q-40 -59 -118.5 -100.5t-188.5 -41.5q-207 0 -331.5 148.5t-124.5 374.5zM299 506q0 -169 79.5 -269t207.5 -100q152 0 283 139v634q-80 23 -181 23 q-174 0 -281.5 -111t-107.5 -316z"/>
<glyph unicode="r" horiz-adv-x="786" d="M175 0v1043l183 33v-209q18 32 43.5 65t64.5 71t92 61.5t109 23.5q26 0 48.5 -5t32.5 -11l10 -5l-47 -198q-46 19 -88.5 19t-86 -22.5t-78 -60t-58 -69t-42.5 -64.5v-672h-183z"/>
<glyph unicode="s" horiz-adv-x="924" d="M99 66l40 163q6 -5 15.5 -12t42.5 -24.5t66.5 -31.5t83 -25t96.5 -11q96 0 147 37t51 101q0 46 -29 83t-75 63.5t-101 51.5t-111 54.5t-102 65t-74.5 91t-28.5 124.5q0 129 96.5 210.5t289.5 81.5q79 0 153 -15t107 -29l34 -15l-49 -155q-14 7 -38.5 17.5t-93 27 t-127.5 16.5q-92 0 -139 -34t-47 -90q0 -44 28.5 -79t74.5 -60.5t102 -50t111 -54.5t101 -67t75 -93.5t29 -128.5q0 -141 -104.5 -224t-284.5 -83q-95 0 -179.5 23.5t-122.5 46.5z"/>
<glyph unicode="t" horiz-adv-x="852" d="M76 912v99l151 61v236l182 44v-292h344v-148h-344v-582q0 -198 130 -198q50 0 105.5 24.5t86.5 48.5l33 24l43 -149q-5 -4 -14.5 -11.5t-41.5 -26t-65.5 -33t-84 -26.5t-100.5 -12q-130 0 -202 76t-72 234v631h-151z"/>
<glyph unicode="u" d="M164 290v770h184v-718q0 -114 40.5 -160.5t110.5 -46.5q91 0 187 61.5t171 135.5v728h184v-732q0 -58 12 -140t23 -135l12 -53l-182 -16q-25 117 -34 193q-30 -31 -66.5 -61.5t-91 -65.5t-123.5 -57t-139 -22q-288 0 -288 319z"/>
<glyph unicode="v" horiz-adv-x="1072" d="M43 1060h193l280 -831l334 831h191l-448 -1072h-173z"/>
<glyph unicode="w" horiz-adv-x="1744" d="M49 1060h194l251 -853l304 853h166l254 -853l299 853h191l-411 -1072h-178l-252 808l-299 -808h-179z"/>
<glyph unicode="x" horiz-adv-x="1072" d="M63 0l366 530l-366 530h220l256 -388l259 388h213l-366 -525l366 -535h-211l-265 398l-269 -398h-203z"/>
<glyph unicode="y" horiz-adv-x="1075" d="M38 1060h200l308 -750l299 750h193l-472 -1140q-32 -76 -62.5 -136.5t-74 -122.5t-88.5 -105.5t-105.5 -74.5t-127.5 -39l-59 153q211 43 333 325l68 158z"/>
<glyph unicode="z" horiz-adv-x="1021" d="M97 110l564 792h-546v158h789v-111l-574 -791h596v-158h-827z"/>
<glyph unicode="{" horiz-adv-x="800" d="M38 553v130q62 1 111 27.5t80 61t53 97.5t32.5 109.5t16 126t6 118.5t0.5 113v32q0 191 131 284.5t350 93.5v-121q-75 -6 -128 -17t-88.5 -33.5t-56.5 -47.5t-31.5 -72t-13.5 -92t-3 -120q0 -523 -252 -621v-4q49 -20 91 -62.5t79.5 -116t59.5 -194.5t22 -276 q0 -64 2 -104.5t9 -83t21 -67t37 -49.5t57.5 -38t82 -23.5t112.5 -15.5v-120q-481 0 -481 377v32v88t-3 94t-7.5 101t-15 96t-24.5 93.5t-37 78t-52.5 66.5t-70.5 41.5t-89 17.5z"/>
<glyph unicode="|" horiz-adv-x="548" d="M198 -530v2294h153v-2294h-153z"/>
<glyph unicode="}" horiz-adv-x="800" d="M-16 -412q76 6 127.5 17t88 34t56.5 47.5t31 71t14 91.5t3 120q0 155 21.5 276t59 194.5t79.5 116t91 62.5v4q-251 98 -251 621q0 75 -3 120t-14 92t-31 72t-56.5 47.5t-88.5 33.5t-127 17v121q218 0 348.5 -93.5t130.5 -284.5v-29q0 -73 1 -114t6 -119t16 -126 t32.5 -110t53 -97.5t81 -62t111.5 -27.5v-130q-62 -1 -111.5 -28.5t-81 -64.5t-53 -102.5t-32 -114.5t-16 -131t-6.5 -121.5t-1 -115.5v-30q0 -377 -479 -377v120z"/>
<glyph unicode="~" horiz-adv-x="1369" d="M151 412q0 187 79.5 276t226.5 89q74 0 134.5 -23.5t98.5 -57.5t71.5 -67t73 -56.5t84.5 -23.5q48 0 81.5 21.5t48 58.5t20 69.5t5.5 69.5h151q0 -187 -80 -276.5t-226 -89.5q-75 0 -135.5 24t-98.5 58t-71 67t-73 56.5t-84 23.5q-49 0 -82 -21.5t-47.5 -58.5t-20.5 -70 t-6 -69h-150z"/>
<glyph unicode="¡" horiz-adv-x="602" d="M158 946.5q0 58.5 41 100t100 41.5t100 -41.5t41 -100t-41 -100t-100 -41.5t-100 41.5t-41 100zM191 -539l31 1137h162l25 -1137h-218z"/>
<glyph unicode="¢" horiz-adv-x="1059" d="M99 654q0 187 112 329.5t310 167.5l7 208h103l-4 -204q63 -3 119.5 -18.5t92.5 -35.5t63 -39.5t39 -33.5l12 -13l-105 -129q-10 10 -28 26t-77 46t-121 36l-19 -677q73 0 144 29t104 56l35 29l63 -137l-14.5 -14.5t-43.5 -32.5t-71.5 -40.5t-98 -32.5t-123.5 -16l-5 -210 h-103l4 216q-179 32 -287 168.5t-108 321.5zM292 661q0 -116 54 -205.5t153 -123.5l17 657q-104 -24 -164 -115t-60 -213z"/>
<glyph unicode="£" horiz-adv-x="1266" d="M94 128q6 2 16.5 6t36 20.5t47 38t41.5 60.5t26 86l27 223h-144v119h157l27 195q12 104 40.5 184t76.5 142.5t123 95.5t174 33q65 0 125.5 -14.5t99.5 -35.5t69 -42t43 -36l13 -14l-105 -129q-4 5 -11.5 12.5t-31.5 26.5t-51.5 33.5t-70 26.5t-87.5 12 q-98 0 -154.5 -66.5t-72.5 -235.5l-18 -188h438l-11 -119h-439q-10 -103 -31 -199.5t-38 -141.5l-16 -44q24 -8 64 -20.5t138 -34t169 -21.5q112 0 175.5 61.5t75.5 212.5h149q-7 -69 -19.5 -125.5t-39 -116t-65 -100t-101.5 -66.5t-143 -26q-94 0 -267 46t-230 46 q-72 0 -158 -33z"/>
<glyph unicode="¥" horiz-adv-x="1308" d="M94 1303h210l350 -570l359 570h196l-349 -550h247v-117h-323l-40 -66v-94h363v-118h-363v-358h-184v358h-338v118h338v92l-44 68h-294v117h221z"/>
<glyph unicode="¦" horiz-adv-x="583" d="M207 407h170v-843h-170v843zM207 773v843h170v-843h-170z"/>
<glyph unicode="§" horiz-adv-x="1151" d="M66 -436l71 121q16 -13 45.5 -31.5t111 -49.5t153.5 -31q144 0 219.5 105.5t75.5 272.5q0 80 -12 139l-130 713q-25 149 -25 235q0 157 61 245l130 -25q-40 -85 -40 -217q0 -60 11 -131l142 -802q13 -80 13 -160q0 -104 -26 -194.5t-78.5 -160.5t-138 -110.5 t-197.5 -40.5q-62 0 -125 13t-107.5 30.5t-81 35.5t-54.5 31zM229 1090q0 105 26.5 196t78.5 161.5t138 111.5t197 41q62 0 125 -13t107.5 -30.5t81 -36t54.5 -31.5l19 -12l-72 -120q-5 5 -16 12.5t-45.5 26t-69.5 33t-84.5 26.5t-94.5 12q-144 0 -220.5 -105.5 t-76.5 -271.5q0 -69 14 -139l130 -713q23 -136 23 -236q0 -158 -59 -245l-130 27q41 93 41 216q0 61 -12 132l-141 801q-14 80 -14 157z"/>
<glyph unicode="¨" horiz-adv-x="1186" d="M259 1456q0 48 36.5 84t86.5 36q48 0 83.5 -36t35.5 -84t-35.5 -84.5t-83.5 -36.5q-50 0 -86.5 35.5t-36.5 85.5zM683 1456q0 48 35.5 84t84.5 36t86 -36t37 -84q0 -50 -37 -85.5t-86 -35.5t-84.5 36.5t-35.5 84.5z"/>
<glyph unicode="©" horiz-adv-x="1831" d="M104 784.5q0 219.5 109 407t296.5 296.5t407.5 109q164 0 314.5 -64t259.5 -173.5t173 -260t64 -315t-64 -315t-173 -260t-259.5 -174t-314.5 -64.5q-220 0 -407.5 109.5t-296.5 297t-109 407zM224 784q0 -192 91.5 -353.5t251 -256t350 -94.5t350 94.5t251 256 t91.5 353.5t-91.5 354t-251 256t-350 94t-350 -94t-251 -256t-91.5 -354zM461 777q0 94 31 180.5t90 156t152 111.5t208 42q64 0 123 -14t96.5 -35.5t66 -42t40.5 -34.5l13 -15l-106 -130l-11.5 11.5t-32.5 26.5t-52 34t-68.5 27t-82.5 12q-129 0 -201.5 -89.5t-72.5 -221.5 q0 -134 82 -227t220 -93q43 0 85.5 11.5t72 28t53 33.5t35.5 28l11 12l63 -137q-4 -6 -12.5 -15t-39.5 -32.5t-67 -41.5t-94 -33t-121 -15q-211 0 -346 133.5t-135 328.5z"/>
<glyph unicode="ª" horiz-adv-x="908" d="M110 1005q0 116 115 192t333 106v25q0 81 -22 115t-91 34q-56 0 -117 -24t-93 -48l-33 -23l-40 128q6 3 15.5 9.5t42 22t68 27t90 21.5t110.5 10q127 0 177.5 -54t50.5 -182v-326q0 -42 21.5 -65t42.5 -25l20 -2l-47 -121q-150 5 -183 115q-96 -122 -247 -122 q-95 0 -154 51.5t-59 135.5zM278 1018q0 -78 82 -78q30 0 58 10t54.5 32.5t43 40t42.5 47.5v124q-146 -27 -213 -69t-67 -107z"/>
<glyph unicode="«" horiz-adv-x="1202" d="M56 586v10q34 26 90 86.5t370 405.5l127 -36l-355 -461q14 -22 355 -461l-127 -36q-77 84 -146.5 159.5t-109.5 119t-75 82t-52.5 57t-33 34.5t-24 24t-19.5 16zM506 586v10q33 26 89.5 86.5t370.5 405.5l126 -36l-355 -461q15 -22 355 -461l-126 -36 q-77 84 -146.5 159.5t-110 119t-75.5 82t-52 57t-32.5 34.5t-24.5 24t-19 16z"/>
<glyph unicode="¬" horiz-adv-x="1353" d="M128 764v153h1078v-656h-163v503h-915z"/>
<glyph unicode="­" horiz-adv-x="795" d="M132 504v170h533v-170h-533z"/>
<glyph unicode="®" horiz-adv-x="1016" d="M101 1250q0 168 119.5 288t287.5 120t288.5 -120t120.5 -288t-120.5 -287.5t-288.5 -119.5t-287.5 119.5t-119.5 287.5zM182 1250q0 -138 94.5 -238t229.5 -100t232.5 100t97.5 238t-97.5 237.5t-232.5 99.5t-229.5 -99.5t-94.5 -237.5zM358 1056v400h141q166 0 166 -121 q0 -77 -79 -115l120 -164h-108l-101 145h-43v-145h-96zM454 1265h52q60 0 60 61q0 63 -76 63h-36v-124z"/>
<glyph unicode="¯" horiz-adv-x="1162" d="M313 1385v143h537v-143h-537z"/>
<glyph unicode="°" horiz-adv-x="780" d="M104 1316.5q0 117.5 83.5 200.5t203.5 83t203.5 -83t83.5 -200.5t-83.5 -200t-203.5 -82.5t-203.5 82.5t-83.5 200zM222 1316.5q0 -73.5 49 -124t120 -50.5t120 50.5t49 124t-49 123.5t-120 50t-120 -50t-49 -123.5z"/>
<glyph unicode="±" d="M90 737v153h438v424h162v-424h443v-153h-443v-454h-162v454h-438zM92 0v153h1043v-153h-1043z"/>
<glyph unicode="²" horiz-adv-x="802" d="M66 961q16 15 47 46q195 187 267 275q126 158 126 280q0 73 -43.5 113t-111.5 40q-44 0 -90.5 -21.5t-71.5 -42.5l-25 -21l-81 94q4 6 13 14.5t38 31t62 39.5t84.5 31t105.5 14q135 0 210.5 -77t75.5 -197q0 -111 -75.5 -232t-286.5 -333h425v-129h-657z"/>
<glyph unicode="³" horiz-adv-x="760" d="M56 942l64 114q10 -6 28 -14.5t69.5 -23.5t99.5 -15q84 0 134 38.5t50 102.5q0 74 -67.5 112.5t-165.5 38.5h-54v128q92 8 168.5 61.5t76.5 133.5q0 101 -117 101q-45 0 -91.5 -14.5t-71.5 -28.5l-24 -15l-61 101q5 3 13 9.5t35.5 22.5t57 28t73 22t87.5 10 q116 0 191.5 -60.5t75.5 -154.5q0 -81 -54.5 -142.5t-136.5 -102.5q108 -23 170.5 -89t62.5 -156q0 -119 -102 -199.5t-252 -80.5q-69 0 -134 18.5t-95 37.5z"/>
<glyph unicode="´" horiz-adv-x="1186" d="M373 1256l237 391h201l-330 -456z"/>
<glyph unicode="¶" horiz-adv-x="1555" d="M80 994q0 110 43.5 212t124 184t212 131.5t293.5 49.5h686v-135h-174v-1436h-146v1436h-177v-1483q0 -511 -412 -511l-36 149q153 0 223 85t70 277v469h-21q-171 0 -306 48.5t-216 129.5t-122.5 181.5t-41.5 212.5z"/>
<glyph unicode="·" horiz-adv-x="588" d="M153 598q0 59 41.5 100t100 41t100 -41t41.5 -100t-41.5 -100t-100 -41t-100 41t-41.5 100z"/>
<glyph unicode="¸" horiz-adv-x="1186" d="M386 -485l50 115q8 -7 23 -18t58 -29.5t83 -18.5q51 0 86 23t35 55q0 27 -30 48t-65.5 34.5t-65.5 40t-30 63.5q0 13 5 31t10 30t15 35t13 29l20 47h118l-19 -40q-25 -59 -25 -77q0 -21 20.5 -37.5t50 -31t59 -32t50 -48.5t20.5 -73q0 -88 -75.5 -153.5t-186.5 -65.5 q-56 0 -111 18t-81 36z"/>
<glyph unicode="¹" horiz-adv-x="661" d="M78 886v119h198v712h-182v120h342v-832h186v-119h-544z"/>
<glyph unicode="º" horiz-adv-x="971" d="M104 1206q0 57 15.5 112t47 106t76.5 90.5t108.5 62.5t138.5 23q172 0 275.5 -112.5t103.5 -265.5q0 -70 -24.5 -140t-70.5 -130t-122 -97t-169 -37q-115 0 -203.5 56t-132 143.5t-43.5 188.5zM268 1220q0 -116 56 -198t164 -82q97 0 156.5 72t59.5 189 q0 113 -55.5 194.5t-163.5 81.5q-99 0 -158 -71t-59 -186z"/>
<glyph unicode="»" horiz-adv-x="1205" d="M113 130l356 461q-16 17 -356 461l127 36l2 -1l1 -1l1 -2l1 -1l1 -2l1 -1l1 -1l2 -1l1 -2l1 -1l1 -1l1 -1l1 -2l1 -1l2 -2l1 -1l1 -1l1 -1l1 -1l1 -1l1 -2l2 -2l1 -1l1 -1l1 -1l1 -1l1 -2l2 -1l1 -1l1 -1l1 -1l1 -3l1 -1l1 -1l2 -1l1 -1l1 -1l1 -1l1 -2l1 -1l2 -1l1 -1 l1 -1l1 -2l1 -2l1 -1l1 -1l2 -1l1 -1l1 -1l1 -1l1 -2l1 -1l1 -1l2 -1l1 -1l1 -3l1 -1l1 -1l1 -1l1 -1l2 -1l1 -1l1 -2l1 -1l1 -1l1 -1l2 -1l1 -1v-2l1 -1l1 -1l1 -1l1 -2l1 -1l2 -2l1 -1l1 -1l1 -1l1 -1l1 -1l2 -1l1 -2l1 -1l1 -1l1 -1l1 -1l1 -1v-1l2 -2l1 -1l1 -1l1 -1 l1 -1l1 -1l1 -2l2 -1l1 -1l1 -1l1 -1l1 -1l1 -1l1 -2v-1l2 -1l1 -1l1 -2l1 -2l1 -1l1 -1l2 -1l1 -1l1 -1l1 -1l1 -2l1 -1q277 -304 308 -332q9 -7 21 -17v-10q-14 -11 -26 -22.5t-43.5 -45.5t-69 -75.5t-126.5 -138.5t-194 -210zM562 130l357 461q-16 17 -357 461l128 36 l1 -1l1 -1l1 -2l2 -1l1 -2l1 -1l1 -1l1 -1l1 -2l2 -1l1 -1l1 -1l1 -2l1 -1l1 -2l1 -1l2 -1l1 -1l1 -1l1 -1l1 -2l1 -2l1 -1l2 -1l1 -1l1 -1l1 -2l1 -1l1 -1l1 -1l2 -1l1 -3l1 -1l1 -1l1 -1l1 -1l2 -1l1 -1l1 -2l1 -1l1 -1l1 -1l1 -1l2 -2l1 -2l1 -1l1 -1l1 -1l1 -1l2 -1 l1 -1l1 -2l1 -1l1 -1l1 -1l1 -1l2 -3l1 -1l1 -1l1 -1l1 -1l1 -1l1 -1l2 -2l1 -1l1 -1l1 -1l1 -1l1 -1v-2l1 -1l2 -1l1 -1l1 -2l1 -1l1 -2l1 -1l2 -1l1 -1l1 -1l1 -1l1 -1l1 -2l1 -1l2 -1l1 -1l1 -1l1 -1v-1l1 -2l1 -1l2 -1l1 -1l1 -1l1 -1l1 -2l1 -1l1 -1l2 -1l1 -1l1 -1 l1 -1l1 -2v-1l1 -1l1 -1l2 -2l1 -2l1 -1l1 -1l1 -1l1 -1l1 -1l2 -1l1 -2l1 -1q277 -304 308 -332q8 -7 21 -17v-10q-14 -11 -26 -22.5t-43.5 -45.5t-69 -75.5t-126.5 -138.5t-194 -210z"/>
<glyph unicode="¼" horiz-adv-x="1921" d="M110 631v120h198v712h-180v119h341v-831h185v-120h-544zM407 0l935 1618l135 -49l-902 -1569h-168zM1095 339l457 620h144v-586h141v-126h-141v-247h-156v247h-433zM1263 373h277v373z"/>
<glyph unicode="½" horiz-adv-x="2060" d="M108 631v120h198v712h-181v119h342v-831h185v-120h-544zM407 0l935 1618l135 -49l-902 -1569h-168zM1308 76q196 190 249 247q174 189 189 322q2 16 2 31q0 74 -43.5 113.5t-112.5 39.5q-44 0 -90.5 -21t-70.5 -42l-25 -22l-82 94q4 6 13 14.5t38 31t62 40t84.5 31 t105.5 13.5q135 0 210 -77t75 -196q0 -112 -75 -232.5t-285 -332.5h424v-130h-657z"/>
<glyph unicode="¾" horiz-adv-x="1895" d="M94 688l64 112q89 -51 197 -51q84 0 134 38.5t50 102.5q0 74 -67.5 112.5t-165.5 38.5h-54v127q92 8 168.5 61.5t76.5 134.5q0 101 -117 101q-45 0 -91.5 -15t-71.5 -29l-24 -15l-61 102q5 3 13 9.5t35.5 22.5t57 28t73 22t87.5 10q116 0 191.5 -60.5t75.5 -154.5 q0 -81 -55 -142.5t-136 -102.5q108 -23 170 -89.5t62 -155.5q0 -119 -101.5 -199.5t-251.5 -80.5q-44 0 -86.5 7.5t-72.5 18t-53.5 21.5t-34.5 19zM382 0l935 1618l134 -49l-902 -1569h-167zM1070 339l456 620h144v-586h141v-126h-141v-247h-155v247h-434zM1236 373h279v373 z"/>
<glyph unicode="¿" horiz-adv-x="823" d="M83 -108q0 42 20 85.5t53 82.5t72 81t78.5 90t72.5 100.5t53 121.5t20 145h148q7 -32 7 -79q0 -84 -31.5 -165t-77 -141t-91 -113t-77 -101t-31.5 -86q0 -46 44.5 -94.5t108 -84.5t127 -66t106.5 -45l45 -16l-40 -175q-13 3 -34.5 10.5t-85 32t-120.5 51t-127 67.5 t-120.5 85t-85 100t-34.5 114zM377 946.5q0 58.5 41.5 100t100 41.5t99.5 -41.5t41 -100t-41 -100t-99.5 -41.5t-100 41.5t-41.5 100z"/>
<glyph unicode="À" horiz-adv-x="1457" d="M33 0l603 1582h186l603 -1582h-203l-177 474h-640l-176 -474h-196zM409 1858l74 169l454 -223l-45 -114zM467 636h517l-258 692z"/>
<glyph unicode="Á" horiz-adv-x="1457" d="M33 0l603 1582h186l603 -1582h-203l-177 474h-640l-176 -474h-196zM467 636h517l-258 692zM513 1804l455 223l73 -169l-483 -168z"/>
<glyph unicode="Â" horiz-adv-x="1457" d="M33 0l603 1582h186l603 -1582h-203l-177 474h-640l-176 -474h-196zM348 1780l297 272h162l295 -272l-106 -90l-268 234l-274 -234zM467 636h517l-258 692z"/>
<glyph unicode="Ã" horiz-adv-x="1457" d="M33 0l603 1582h186l603 -1582h-203l-177 474h-640l-176 -474h-196zM308 1726v14q0 25 3 51t17 68t37.5 73t70.5 54t110 23q52 0 96.5 -16t74 -38.5t56.5 -45.5t57.5 -39t61.5 -16q34 0 56.5 15t31.5 39t12.5 43.5t3.5 39.5v18h146v-16q0 -25 -3 -52t-18 -70t-39 -75 t-72.5 -55.5t-112.5 -23.5q-52 0 -95 16t-72.5 38.5t-56 45.5t-55.5 39t-60 16q-34 0 -56 -15t-31.5 -38.5t-13 -42t-3.5 -36.5v-14h-146zM467 636h517l-258 692z"/>
<glyph unicode="Ä" horiz-adv-x="1457" d="M33 0l603 1582h186l603 -1582h-203l-177 474h-640l-176 -474h-196zM335 1867.5q0 49.5 36 85t86 35.5q48 0 84 -36t36 -84.5t-36 -84t-84 -35.5q-50 0 -86 35t-36 84.5zM467 636h517l-258 692zM876 1867.5q0 48.5 36 84.5t84 36q49 0 86 -35.5t37 -84.5t-37 -84.5 t-86 -35.5q-48 0 -84 35.5t-36 84z"/>
<glyph unicode="Å" horiz-adv-x="1457" d="M33 0l603 1582h186l603 -1582h-203l-177 474h-640l-176 -474h-196zM467 636h517l-258 692zM504 1865q0 76 58 131.5t163.5 55.5t163 -55.5t57.5 -131.5q0 -79 -56.5 -135t-163.5 -56t-164.5 56.5t-57.5 134.5zM615 1863q0 -45 28.5 -76.5t82.5 -31.5q51 0 81.5 32 t30.5 76q0 45 -28.5 76.5t-83.5 31.5q-57 0 -84 -31.5t-27 -76.5z"/>
<glyph unicode="Æ" horiz-adv-x="2032" d="M-5 0l877 1571h1040v-162h-732v-526h580v-162h-580v-559h730v-162h-923v526h-495l-290 -526h-207zM582 688h405v732z"/>
<glyph unicode="Ç" horiz-adv-x="1591" d="M120 775q0 170 59.5 321t167.5 262.5t267.5 176.5t349.5 65q87 0 172.5 -14t145.5 -34t108 -39.5t70 -33.5l24 -14l-78 -175q-8 6 -21.5 16t-60 34t-96.5 42.5t-126 34t-153 15.5q-121 0 -223.5 -36.5t-175 -98t-123.5 -143.5t-75 -174.5t-24 -190.5q0 -133 46.5 -252.5 t128 -207t199 -139t251.5 -51.5q75 0 151 16t131 39t99 46.5t67 40.5l22 16l80 -146q-9 -7 -26 -19t-73.5 -43t-118 -55t-156.5 -43.5t-192 -19.5h-4q-3 -4 -12.5 -26.5t-14 -37t-4.5 -24.5q0 -21 20.5 -37.5t50 -31t58.5 -32t50 -48.5t21 -73q0 -88 -75 -153.5t-186 -65.5 q-57 0 -111.5 18t-80.5 36l-27 19l50 115q8 -7 23 -18t58 -29.5t83 -18.5q51 0 85.5 23t34.5 55q0 27 -30 48t-65 34.5t-65 40t-30 63.5q0 10 2 22.5t8 27.5t9.5 25t11.5 27t10 23l13 26q-309 38 -504.5 256.5t-195.5 539.5z"/>
<glyph unicode="È" horiz-adv-x="1276" d="M231 0v1571h926v-162h-733v-526h579v-162h-579v-559h731v-162h-924zM391 1858l72 169l456 -223l-45 -114z"/>
<glyph unicode="É" horiz-adv-x="1276" d="M231 0v1571h926v-162h-733v-526h579v-162h-579v-559h731v-162h-924zM494 1804l455 223l73 -169l-483 -168z"/>
<glyph unicode="Ê" horiz-adv-x="1276" d="M231 0v1571h926v-162h-733v-526h579v-162h-579v-559h731v-162h-924zM330 1780l297 272h162l294 -272l-105 -90l-270 234l-272 -234z"/>
<glyph unicode="Ë" horiz-adv-x="1276" d="M231 0v1571h926v-162h-733v-526h579v-162h-579v-559h731v-162h-924zM315 1868q0 49 37 84.5t86 35.5q47 0 83.5 -36t36.5 -84.5t-36 -84t-84 -35.5q-49 0 -86 35.5t-37 84.5zM857 1867.5q0 48.5 36 84.5t85 36t85 -35.5t36 -85t-36 -84.5t-85 -35t-85 35.5t-36 84z"/>
<glyph unicode="Ì" horiz-adv-x="654" d="M12 1858l73 169l454 -223l-45 -114zM231 0v1571h193v-1571h-193z"/>
<glyph unicode="Í" horiz-adv-x="654" d="M115 1804l455 223l73 -169l-483 -168zM231 0v1571h193v-1571h-193z"/>
<glyph unicode="Î" horiz-adv-x="654" d="M-49 1780l296 272h162l295 -272l-106 -90l-268 234l-274 -234zM231 0v1571h193v-1571h-193z"/>
<glyph unicode="Ï" horiz-adv-x="654" d="M-2 1867.5q0 49.5 36 85t86 35.5q48 0 84 -36t36 -84.5t-36 -84t-84 -35.5q-50 0 -86 35t-36 84.5zM231 0v1571h193v-1571h-193zM422 1867.5q0 48.5 36 84.5t84 36q49 0 86 -35.5t37 -84.5t-37 -84.5t-86 -35.5t-84.5 35.5t-35.5 84z"/>
<glyph unicode="Ð" horiz-adv-x="1721" d="M80 716v163h170v692h476q133 0 255.5 -25t237 -83t198 -143.5t133.5 -216t50 -292.5q0 -259 -123 -443.5t-339 -276t-502 -91.5h-386v716h-170zM443 162h169q167 0 299.5 32.5t221 88t146.5 135.5t84 171.5t26 199.5q0 287 -180.5 453.5t-516.5 166.5h-249v-530h405v-163 h-405v-554z"/>
<glyph unicode="Ñ" horiz-adv-x="1758" d="M231 0v1571h193l916 -1281v1281h188v-1571h-193l-915 1263v-1263h-189zM461 1726v14q0 25 3 51t16.5 68t37.5 73t71 54t110 23q52 0 96.5 -16t74 -38.5t56.5 -45.5t57.5 -39t61.5 -16q34 0 56.5 15t31.5 39t12.5 43.5t3.5 39.5v18h146v-16q0 -25 -3 -52t-18 -70t-39 -75 t-72.5 -55.5t-112.5 -23.5q-52 0 -95 16t-72.5 38.5t-56 45.5t-55.5 39t-60 16q-34 0 -56.5 -15t-31.5 -38.5t-12.5 -42t-3.5 -36.5v-14h-146z"/>
<glyph unicode="Ò" horiz-adv-x="1872" d="M117 782q0 158 56.5 304t159.5 261t262 184t351 69q180 0 333 -61.5t256.5 -167.5t161.5 -249.5t58 -306.5q0 -132 -38 -257.5t-111.5 -231t-173 -185.5t-230 -125t-276.5 -45q-235 0 -422 112.5t-287 296.5t-100 402zM325 796q0 -94 25.5 -188t76.5 -178.5t122.5 -149.5 t170.5 -103t213 -38q140 0 259 57t195 150.5t118.5 210.5t42.5 239q0 98 -25.5 190.5t-77.5 173t-124 141.5t-171.5 96t-214.5 35q-114 0 -213.5 -36t-170.5 -97.5t-123 -142.5t-77.5 -173t-25.5 -187zM620 1858l72 169l455 -223l-45 -114z"/>
<glyph unicode="Ó" horiz-adv-x="1872" d="M117 782q0 158 56.5 304t159.5 261t262 184t351 69q180 0 333 -61.5t256.5 -167.5t161.5 -249.5t58 -306.5q0 -132 -38 -257.5t-111.5 -231t-173 -185.5t-230 -125t-276.5 -45q-235 0 -422 112.5t-287 296.5t-100 402zM325 796q0 -94 25.5 -188t76.5 -178.5t122.5 -149.5 t170.5 -103t213 -38q140 0 259 57t195 150.5t118.5 210.5t42.5 239q0 98 -25.5 190.5t-77.5 173t-124 141.5t-171.5 96t-214.5 35q-114 0 -213.5 -36t-170.5 -97.5t-123 -142.5t-77.5 -173t-25.5 -187zM723 1804l455 223l72 -169l-482 -168z"/>
<glyph unicode="Ô" horiz-adv-x="1872" d="M117 782q0 158 56.5 304t159.5 261t262 184t351 69q180 0 333 -61.5t256.5 -167.5t161.5 -249.5t58 -306.5q0 -132 -38 -257.5t-111.5 -231t-173 -185.5t-230 -125t-276.5 -45q-235 0 -422 112.5t-287 296.5t-100 402zM325 796q0 -94 25.5 -188t76.5 -178.5t122.5 -149.5 t170.5 -103t213 -38q140 0 259 57t195 150.5t118.5 210.5t42.5 239q0 98 -25.5 190.5t-77.5 173t-124 141.5t-171.5 96t-214.5 35q-114 0 -213.5 -36t-170.5 -97.5t-123 -142.5t-77.5 -173t-25.5 -187zM558 1780l296 272h164l294 -272l-106 -90l-269 234l-272 -234z"/>
<glyph unicode="Õ" horiz-adv-x="1872" d="M117 782q0 158 56.5 304t159.5 261t262 184t351 69q180 0 333 -61.5t256.5 -167.5t161.5 -249.5t58 -306.5q0 -132 -38 -257.5t-111.5 -231t-173 -185.5t-230 -125t-276.5 -45q-235 0 -422 112.5t-287 296.5t-100 402zM325 796q0 -94 25.5 -188t76.5 -178.5t122.5 -149.5 t170.5 -103t213 -38q140 0 259 57t195 150.5t118.5 210.5t42.5 239q0 98 -25.5 190.5t-77.5 173t-124 141.5t-171.5 96t-214.5 35q-114 0 -213.5 -36t-170.5 -97.5t-123 -142.5t-77.5 -173t-25.5 -187zM519 1726v14q0 25 2.5 51t16.5 68t37 73t70 54t111 23q51 0 95.5 -16 t74.5 -38.5t57 -45.5t57.5 -39t61.5 -16q33 0 55.5 15t32 39t13 43.5t3.5 39.5v18h146v-16q0 -25 -2.5 -52t-17.5 -70t-39.5 -75t-72.5 -55.5t-113 -23.5q-51 0 -94.5 16t-72.5 38.5t-55.5 45.5t-56 39t-60.5 16q-33 0 -55.5 -15t-31.5 -38.5t-12.5 -42t-3.5 -36.5v-14h-146 z"/>
<glyph unicode="Ö" horiz-adv-x="1872" d="M117 782q0 158 56.5 304t159.5 261t262 184t351 69q180 0 333 -61.5t256.5 -167.5t161.5 -249.5t58 -306.5q0 -132 -38 -257.5t-111.5 -231t-173 -185.5t-230 -125t-276.5 -45q-235 0 -422 112.5t-287 296.5t-100 402zM325 796q0 -94 25.5 -188t76.5 -178.5t122.5 -149.5 t170.5 -103t213 -38q140 0 259 57t195 150.5t118.5 210.5t42.5 239q0 98 -25.5 190.5t-77.5 173t-124 141.5t-171.5 96t-214.5 35q-114 0 -213.5 -36t-170.5 -97.5t-123 -142.5t-77.5 -173t-25.5 -187zM544 1868q0 49 37 84.5t86 35.5q48 0 84 -36t36 -84.5t-36 -84 t-84 -35.5q-49 0 -86 35.5t-37 84.5zM1086 1867.5q0 48.5 36 84.5t84 36q50 0 86 -35.5t36 -85t-36 -84.5t-86 -35q-48 0 -84 35.5t-36 84z"/>
<glyph unicode="×" d="M94 164l412 425l-412 426l104 109l414 -427l415 427l103 -109l-414 -426l414 -425l-105 -108l-413 425l-412 -425z"/>
<glyph unicode="Ø" horiz-adv-x="1872" d="M117 782q0 158 56.5 304t159.5 261t262 184t351 69q247 0 439 -114l118 155h155l-172 -225q127 -108 198 -264.5t71 -336.5q0 -132 -38 -257.5t-111.5 -231t-173 -185.5t-230 -125t-276.5 -45q-253 0 -443 126l-128 -167h-157l184 242q-127 114 -196 272.5t-69 337.5z M325 796q0 -128 45.5 -251t130.5 -217l769 1009q-144 95 -335 95q-141 0 -259 -55.5t-193 -146t-116.5 -203.5t-41.5 -231zM593 243q151 -104 340 -104q140 0 259 57t195 150.5t118.5 210.5t42.5 239q0 131 -47 252.5t-135 209.5z"/>
<glyph unicode="Ù" horiz-adv-x="1692" d="M209 566v1005h193v-968q0 -236 122 -350t324 -114q198 0 320 113.5t122 336.5v982h194v-973q0 -120 -33 -222t-91 -176t-138 -126t-175.5 -77.5t-201.5 -25.5q-135 0 -247.5 33.5t-201 102.5t-138 185.5t-49.5 273.5zM530 1858l73 169l455 -223l-45 -114z"/>
<glyph unicode="Ú" horiz-adv-x="1692" d="M209 566v1005h193v-968q0 -236 122 -350t324 -114q198 0 320 113.5t122 336.5v982h194v-973q0 -120 -33 -222t-91 -176t-138 -126t-175.5 -77.5t-201.5 -25.5q-135 0 -247.5 33.5t-201 102.5t-138 185.5t-49.5 273.5zM634 1804l454 223l74 -169l-484 -168z"/>
<glyph unicode="Û" horiz-adv-x="1692" d="M209 566v1005h193v-968q0 -236 122 -350t324 -114q198 0 320 113.5t122 336.5v982h194v-973q0 -120 -33 -222t-91 -176t-138 -126t-175.5 -77.5t-201.5 -25.5q-135 0 -247.5 33.5t-201 102.5t-138 185.5t-49.5 273.5zM469 1780l297 272h162l294 -272l-105 -90l-269 234 l-273 -234z"/>
<glyph unicode="Ü" horiz-adv-x="1692" d="M209 566v1005h193v-968q0 -236 122 -350t324 -114q198 0 320 113.5t122 336.5v982h194v-973q0 -120 -33 -222t-91 -176t-138 -126t-175.5 -77.5t-201.5 -25.5q-135 0 -247.5 33.5t-201 102.5t-138 185.5t-49.5 273.5zM454 1868q0 49 37 84.5t86 35.5t84.5 -36t35.5 -84.5 t-35.5 -84t-84.5 -35.5t-86 35.5t-37 84.5zM996 1867.5q0 48.5 36 84.5t85 36t85.5 -35.5t36.5 -85t-36.5 -84.5t-85.5 -35t-85 35.5t-36 84z"/>
<glyph unicode="Ý" horiz-adv-x="1353" d="M18 1571h229l434 -699l438 699h216l-560 -886v-685h-193v683zM478 1804l455 223l72 -169l-482 -168z"/>
<glyph unicode="Þ" horiz-adv-x="1320" d="M231 0v1571h193v-358h297q143 0 248 -33t163.5 -93t85.5 -132t27 -159q0 -216 -140 -336.5t-384 -120.5h-297v-339h-193zM424 501h261q187 0 270 71t83 208q0 60 -16.5 106t-55 84.5t-109 59t-172.5 20.5h-261v-549z"/>
<glyph unicode="ß" horiz-adv-x="1330" d="M66 912v97l167 63v90q0 251 118 389.5t337 138.5q96 0 174 -28t125.5 -74.5t73 -104t25.5 -119.5q0 -58 -23 -113t-56.5 -98.5t-67 -86t-56.5 -93t-23 -99.5q0 -48 22 -92t57 -78.5t77.5 -69t85 -70.5t77.5 -76.5t57 -94t22 -115.5q0 -141 -104 -224t-280 -83 q-89 0 -166 22t-110 44l-32 22l39 163q5 -4 14 -10.5t37.5 -23.5t58.5 -29.5t75 -23t89 -10.5q88 0 137 38t49 105q0 44 -22 83.5t-56.5 71.5t-76.5 65t-84 69t-76.5 76.5t-56 95t-21.5 116.5q0 65 23 123.5t55 102t64 85.5t55 91t23 100q0 86 -63.5 135t-152.5 49 q-116 0 -188 -88t-72 -272v-1171h-183v912h-167z"/>
<glyph unicode="à" horiz-adv-x="1104" d="M85 238q0 161 164.5 264.5t471.5 142.5v40v38.5t-1 35t-3.5 35t-6.5 31t-10.5 30t-15.5 23.5t-22 21t-29.5 15t-38 11t-48.5 3q-78 0 -161.5 -29.5t-126.5 -58.5l-44 -29l-56 148q6 6 20 14.5t59 30.5t92.5 39t121 31t147.5 14q170 0 238 -77.5t68 -259.5v-477 q0 -39 12 -68t30 -42t35 -21t29 -10l12 -1l-61 -148q-104 11 -157 55t-71 116q-12 -19 -35.5 -44t-66 -59.5t-108.5 -57.5t-141 -23q-135 0 -216 74.5t-81 192.5zM196 1647h200l238 -391l-108 -65zM281 250q0 -59 38.5 -88.5t100.5 -29.5q87 0 158 49.5t143 133.5v196 q-229 -38 -334.5 -99t-105.5 -162z"/>
<glyph unicode="á" horiz-adv-x="1104" d="M85 238q0 161 164.5 264.5t471.5 142.5v40v38.5t-1 35t-3.5 35t-6.5 31t-10.5 30t-15.5 23.5t-22 21t-29.5 15t-38 11t-48.5 3q-78 0 -161.5 -29.5t-126.5 -58.5l-44 -29l-56 148q6 6 20 14.5t59 30.5t92.5 39t121 31t147.5 14q170 0 238 -77.5t68 -259.5v-477 q0 -39 12 -68t30 -42t35 -21t29 -10l12 -1l-61 -148q-104 11 -157 55t-71 116q-12 -19 -35.5 -44t-66 -59.5t-108.5 -57.5t-141 -23q-135 0 -216 74.5t-81 192.5zM281 250q0 -59 38.5 -88.5t100.5 -29.5q87 0 158 49.5t143 133.5v196q-229 -38 -334.5 -99t-105.5 -162z M431 1256l238 391h200l-330 -456z"/>
<glyph unicode="â" horiz-adv-x="1104" d="M85 238q0 161 164.5 264.5t471.5 142.5v40v38.5t-1 35t-3.5 35t-6.5 31t-10.5 30t-15.5 23.5t-22 21t-29.5 15t-38 11t-48.5 3q-78 0 -161.5 -29.5t-126.5 -58.5l-44 -29l-56 148q6 6 20 14.5t59 30.5t92.5 39t121 31t147.5 14q170 0 238 -77.5t68 -259.5v-477 q0 -39 12 -68t30 -42t35 -21t29 -10l12 -1l-61 -148q-104 11 -157 55t-71 116q-12 -19 -35.5 -44t-66 -59.5t-108.5 -57.5t-141 -23q-135 0 -216 74.5t-81 192.5zM205 1248l264 399h127l264 -399l-116 -59l-212 295l-211 -295zM281 250q0 -59 38.5 -88.5t100.5 -29.5 q87 0 158 49.5t143 133.5v196q-229 -38 -334.5 -99t-105.5 -162z"/>
<glyph unicode="ã" horiz-adv-x="1104" d="M85 238q0 161 164.5 264.5t471.5 142.5v40v38.5t-1 35t-3.5 35t-6.5 31t-10.5 30t-15.5 23.5t-22 21t-29.5 15t-38 11t-48.5 3q-78 0 -161.5 -29.5t-126.5 -58.5l-44 -29l-56 148q6 6 20 14.5t59 30.5t92.5 39t121 31t147.5 14q170 0 238 -77.5t68 -259.5v-477 q0 -39 12 -68t30 -42t35 -21t29 -10l12 -1l-61 -148q-104 11 -157 55t-71 116q-12 -19 -35.5 -44t-66 -59.5t-108.5 -57.5t-141 -23q-135 0 -216 74.5t-81 192.5zM186 1300v12q0 24 2.5 50t14 69t31.5 75.5t60 56.5t92 24q48 0 86.5 -18.5t63 -45t46 -53.5t43.5 -45.5 t47 -18.5q71 0 79 151v16h128v-11q0 -24 -3 -51t-15 -72t-32.5 -78.5t-60.5 -59t-94 -25.5q-47 0 -85 19t-63 45.5t-45.5 53t-43 45.5t-46.5 19t-41.5 -17t-24 -44t-9.5 -48t-3 -39v-10h-127zM281 250q0 -59 38.5 -88.5t100.5 -29.5q87 0 158 49.5t143 133.5v196 q-229 -38 -334.5 -99t-105.5 -162z"/>
<glyph unicode="ä" horiz-adv-x="1104" d="M85 238q0 161 164.5 264.5t471.5 142.5v40v38.5t-1 35t-3.5 35t-6.5 31t-10.5 30t-15.5 23.5t-22 21t-29.5 15t-38 11t-48.5 3q-78 0 -161.5 -29.5t-126.5 -58.5l-44 -29l-56 148q6 6 20 14.5t59 30.5t92.5 39t121 31t147.5 14q170 0 238 -77.5t68 -259.5v-477 q0 -39 12 -68t30 -42t35 -21t29 -10l12 -1l-61 -148q-104 11 -157 55t-71 116q-12 -19 -35.5 -44t-66 -59.5t-108.5 -57.5t-141 -23q-135 0 -216 74.5t-81 192.5zM198 1456q0 48 36.5 84t86.5 36q48 0 83.5 -36t35.5 -84t-36 -84.5t-83 -36.5q-50 0 -86.5 35.5t-36.5 85.5z M281 250q0 -59 38.5 -88.5t100.5 -29.5q87 0 158 49.5t143 133.5v196q-229 -38 -334.5 -99t-105.5 -162zM622 1456q0 48 35.5 84t84.5 36t86 -36t37 -84q0 -50 -37 -85.5t-86 -35.5q-47 0 -83.5 36.5t-36.5 84.5z"/>
<glyph unicode="å" horiz-adv-x="1104" d="M85 238q0 161 164.5 264.5t471.5 142.5v40v38.5t-1 35t-3.5 35t-6.5 31t-10.5 30t-15.5 23.5t-22 21t-29.5 15t-38 11t-48.5 3q-78 0 -161.5 -29.5t-126.5 -58.5l-44 -29l-56 148q6 6 20 14.5t59 30.5t92.5 39t121 31t147.5 14q170 0 238 -77.5t68 -259.5v-477 q0 -39 12 -68t30 -42t35 -21t29 -10l12 -1l-61 -148q-104 11 -157 55t-71 116q-12 -19 -35.5 -44t-66 -59.5t-108.5 -57.5t-141 -23q-135 0 -216 74.5t-81 192.5zM281 250q0 -59 38.5 -88.5t100.5 -29.5q87 0 158 49.5t143 133.5v196q-229 -38 -334.5 -99t-105.5 -162z M315 1460q0 80 56 135.5t161.5 55.5t161 -55.5t55.5 -135.5t-55.5 -138.5t-161 -58.5t-161.5 58.5t-56 138.5zM424 1458q0 -44 27 -73.5t81 -29.5t82.5 30.5t28.5 72.5t-27 71.5t-84 29.5t-82.5 -29t-25.5 -72z"/>
<glyph unicode="æ" horiz-adv-x="1768" d="M85 238q0 151 169 252.5t490 138.5v56q0 45 -0.5 66t-5 56t-15.5 51.5t-30 35.5t-50 26.5t-75 7.5q-83 0 -171.5 -29.5t-135.5 -58.5l-47 -29l-56 148q6 6 20 14.5t59 30.5t92.5 39t120 31t143.5 14q122 0 190.5 -39t97.5 -121q141 160 358 160q186 0 304 -124t118 -342 l-113 -33l-627 -83q11 -166 104.5 -270t246.5 -104q83 0 164.5 32.5t122.5 64.5l41 32l65 -133q-7 -7 -19 -17.5t-53 -37.5t-85.5 -47.5t-115 -37.5t-142.5 -17q-149 0 -261.5 67t-175.5 189q-29 -63 -78.5 -117.5t-135 -96.5t-185.5 -42q-144 0 -236.5 75.5t-92.5 191.5z M281 250q0 -57 41 -87.5t116 -30.5q136 0 216.5 95t80.5 265q-454 -66 -454 -242zM928 647l530 69q-1 10 -3.5 24t-18 52t-38.5 67t-70 52.5t-108 23.5q-117 0 -193 -79.5t-99 -208.5z"/>
<glyph unicode="ç" horiz-adv-x="1072" d="M104 519q0 109 36.5 210t103 181.5t171.5 129t230 48.5q63 0 122.5 -12t98 -29t68.5 -33.5t44 -29.5l13 -11l-81 -144q-5 4 -13.5 10.5t-37 24t-58 30t-75.5 23.5t-92 11q-153 0 -245 -115.5t-92 -284.5q0 -167 92.5 -281.5t251.5 -114.5q48 0 95 11.5t80.5 28.5t60 33.5 t38.5 27.5l13 12l63 -137q-4 -6 -14 -15t-44.5 -32.5t-73.5 -41.5t-101.5 -33t-130.5 -15h-7q-34 -57 -34 -91q0 -20 21 -37t50.5 -31t58.5 -31.5t50 -48.5t21 -74q0 -87 -75 -152.5t-186 -65.5q-57 0 -112 18t-82 36l-26 18l49 115q8 -7 23.5 -17.5t59 -29t83.5 -18.5 q51 0 85.5 23t34.5 55q0 26 -30 47.5t-66 35t-65.5 39.5t-29.5 63q0 14 5 32t9.5 30t15 35t12.5 29l14 33q-183 39 -292.5 185.5t-109.5 349.5z"/>
<glyph unicode="è" horiz-adv-x="1146" d="M106 506q0 252 142.5 417t366.5 165q189 0 306 -125.5t117 -347.5l-112 -33l-625 -83q13 -167 105.5 -267t245.5 -100q51 0 103.5 14t92.5 33.5t71.5 39t48.5 33.5l16 14l54 -141q-5 -5 -17 -16t-52.5 -37.5t-84 -46.5t-112.5 -37t-141 -17q-127 0 -229 44.5t-166 119 t-97 170t-33 201.5zM254 1647h200l238 -391l-108 -65zM304 641l532 67q-1 10 -4 25.5t-18 54.5t-38 68.5t-68.5 54t-104.5 24.5q-122 0 -200.5 -82.5t-98.5 -211.5z"/>
<glyph unicode="é" horiz-adv-x="1146" d="M106 506q0 252 142.5 417t366.5 165q189 0 306 -125.5t117 -347.5l-112 -33l-625 -83q13 -167 105.5 -267t245.5 -100q51 0 103.5 14t92.5 33.5t71.5 39t48.5 33.5l16 14l54 -141q-5 -5 -17 -16t-52.5 -37.5t-84 -46.5t-112.5 -37t-141 -17q-127 0 -229 44.5t-166 119 t-97 170t-33 201.5zM304 641l532 67q-1 10 -4 25.5t-18 54.5t-38 68.5t-68.5 54t-104.5 24.5q-122 0 -200.5 -82.5t-98.5 -211.5zM490 1256l238 391h200l-330 -456z"/>
<glyph unicode="ê" horiz-adv-x="1146" d="M106 506q0 252 142.5 417t366.5 165q189 0 306 -125.5t117 -347.5l-112 -33l-625 -83q13 -167 105.5 -267t245.5 -100q51 0 103.5 14t92.5 33.5t71.5 39t48.5 33.5l16 14l54 -141q-5 -5 -17 -16t-52.5 -37.5t-84 -46.5t-112.5 -37t-141 -17q-127 0 -229 44.5t-166 119 t-97 170t-33 201.5zM263 1248l265 399h126l265 -399l-116 -59l-212 295l-211 -295zM304 641l532 67q-1 10 -4 25.5t-18 54.5t-38 68.5t-68.5 54t-104.5 24.5q-122 0 -200.5 -82.5t-98.5 -211.5z"/>
<glyph unicode="ë" horiz-adv-x="1146" d="M106 506q0 252 142.5 417t366.5 165q189 0 306 -125.5t117 -347.5l-112 -33l-625 -83q13 -167 105.5 -267t245.5 -100q51 0 103.5 14t92.5 33.5t71.5 39t48.5 33.5l16 14l54 -141q-5 -5 -17 -16t-52.5 -37.5t-84 -46.5t-112.5 -37t-141 -17q-127 0 -229 44.5t-166 119 t-97 170t-33 201.5zM256 1456q0 48 37 84t87 36q48 0 83.5 -36t35.5 -84t-35.5 -84.5t-83.5 -36.5q-50 0 -87 35.5t-37 85.5zM304 641l532 67q-1 10 -4 25.5t-18 54.5t-38 68.5t-68.5 54t-104.5 24.5q-122 0 -200.5 -82.5t-98.5 -211.5zM681 1456q0 48 35.5 84t83.5 36 q50 0 86.5 -36t36.5 -84q0 -50 -36.5 -85.5t-86.5 -35.5q-48 0 -83.5 36.5t-35.5 84.5z"/>
<glyph unicode="ì" horiz-adv-x="541" d="M-66 1647h201l238 -391l-110 -65zM179 0v1060h183v-1060h-183z"/>
<glyph unicode="í" horiz-adv-x="541" d="M169 1256l238 391h200l-329 -456zM179 0v1060h183v-1060h-183z"/>
<glyph unicode="î" horiz-adv-x="541" d="M-56 1248l263 399h128l263 -399l-115 -59l-212 295l-212 -295zM179 0v1060h183v-1060h-183z"/>
<glyph unicode="ï" horiz-adv-x="541" d="M-63 1455.5q0 49.5 36 85t86 35.5q48 0 84 -36t36 -84t-36 -84.5t-84 -36.5q-50 0 -86 35.5t-36 85zM179 0v1060h183v-1060h-183zM360 1456q0 48 36 84t85 36t85.5 -35.5t36.5 -85t-36.5 -85t-85.5 -35.5t-85 36.5t-36 84.5z"/>
<glyph unicode="ð" horiz-adv-x="1268" d="M104 516q0 149 64.5 279.5t184.5 211.5t265 81q81 0 158 -25.5t126 -75.5q-86 227 -266 384l-297 -182l-68 119l248 150q-151 92 -323 142l40 143q248 -49 442 -188l325 198l67 -119l-281 -169q168 -155 259.5 -365t91.5 -441q0 -311 -144.5 -499.5t-395.5 -188.5 q-115 0 -211 47.5t-157 125t-94.5 174.5t-33.5 198zM297 535q0 -58 12 -114t37 -108.5t62 -92t89.5 -64t114.5 -24.5q152 0 246.5 126.5t94.5 388.5q0 129 -71 205t-217 76q-164 0 -266 -111t-102 -282z"/>
<glyph unicode="ñ" horiz-adv-x="1240" d="M175 0v1043l183 33v-207q32 34 70 65.5t95.5 69.5t129 61t143.5 23q126 0 202 -77t76 -241v-770h-184v719q0 207 -144 207q-48 0 -107 -25t-115 -65t-94.5 -72.5t-71.5 -64.5v-699h-183zM288 1300v12q0 24 2 50t13.5 69t31.5 75.5t60 56.5t93 24q47 0 85.5 -18.5t63 -45 t46 -53.5t44 -45.5t46.5 -18.5q71 0 79 151v16h128v-11q0 -24 -3 -51t-15 -72t-32 -78.5t-60.5 -59t-94.5 -25.5q-47 0 -85 19t-62.5 45.5t-45.5 53t-43.5 45.5t-46.5 19t-41 -17t-24 -44t-10 -48t-3 -39v-10h-126z"/>
<glyph unicode="ò" horiz-adv-x="1254" d="M104 526q0 101 33.5 199t97.5 180t167 132.5t229 50.5q120 0 220 -45.5t164.5 -121t100 -171.5t35.5 -199q0 -79 -20.5 -160t-63.5 -156t-104 -133.5t-150 -94.5t-191 -36q-118 0 -218 47.5t-164.5 125.5t-100 177t-35.5 205zM290 1647h200l238 -391l-108 -65zM297 546 q0 -80 20 -152t59 -132t104 -95t149 -35q150 0 240 108t90 281q0 79 -19 149.5t-57.5 129.5t-104 93.5t-151.5 34.5q-150 0 -240 -104.5t-90 -277.5z"/>
<glyph unicode="ó" horiz-adv-x="1254" d="M104 526q0 101 33.5 199t97.5 180t167 132.5t229 50.5q120 0 220 -45.5t164.5 -121t100 -171.5t35.5 -199q0 -79 -20.5 -160t-63.5 -156t-104 -133.5t-150 -94.5t-191 -36q-118 0 -218 47.5t-164.5 125.5t-100 177t-35.5 205zM297 546q0 -80 20 -152t59 -132t104 -95 t149 -35q150 0 240 108t90 281q0 79 -19 149.5t-57.5 129.5t-104 93.5t-151.5 34.5q-150 0 -240 -104.5t-90 -277.5zM526 1256l238 391h200l-330 -456z"/>
<glyph unicode="ô" horiz-adv-x="1254" d="M104 526q0 101 33.5 199t97.5 180t167 132.5t229 50.5q120 0 220 -45.5t164.5 -121t100 -171.5t35.5 -199q0 -79 -20.5 -160t-63.5 -156t-104 -133.5t-150 -94.5t-191 -36q-118 0 -218 47.5t-164.5 125.5t-100 177t-35.5 205zM297 546q0 -80 20 -152t59 -132t104 -95 t149 -35q150 0 240 108t90 281q0 79 -19 149.5t-57.5 129.5t-104 93.5t-151.5 34.5q-150 0 -240 -104.5t-90 -277.5zM299 1248l263 399h128l263 -399l-115 -59l-211 295l-213 -295z"/>
<glyph unicode="õ" horiz-adv-x="1254" d="M104 526q0 101 33.5 199t97.5 180t167 132.5t229 50.5q120 0 220 -45.5t164.5 -121t100 -171.5t35.5 -199q0 -79 -20.5 -160t-63.5 -156t-104 -133.5t-150 -94.5t-191 -36q-118 0 -218 47.5t-164.5 125.5t-100 177t-35.5 205zM281 1300v12q0 24 2 50t13.5 69t31.5 75.5 t60 56.5t93 24q47 0 85.5 -18.5t63 -45t46 -53.5t44 -45.5t46.5 -18.5q71 0 79 151v16h128v-11q0 -24 -3 -51t-15 -72t-32 -78.5t-60.5 -59t-94.5 -25.5q-47 0 -85 19t-62.5 45.5t-45.5 53t-43.5 45.5t-46.5 19t-41 -17t-24 -44t-10 -48t-3 -39v-10h-126zM297 546 q0 -80 20 -152t59 -132t104 -95t149 -35q150 0 240 108t90 281q0 79 -19 149.5t-57.5 129.5t-104 93.5t-151.5 34.5q-150 0 -240 -104.5t-90 -277.5z"/>
<glyph unicode="ö" horiz-adv-x="1254" d="M104 526q0 101 33.5 199t97.5 180t167 132.5t229 50.5q120 0 220 -45.5t164.5 -121t100 -171.5t35.5 -199q0 -79 -20.5 -160t-63.5 -156t-104 -133.5t-150 -94.5t-191 -36q-118 0 -218 47.5t-164.5 125.5t-100 177t-35.5 205zM292 1455.5q0 49.5 36.5 85t85.5 35.5 q48 0 84.5 -36t36.5 -84t-36.5 -84.5t-84.5 -36.5q-49 0 -85.5 35.5t-36.5 85zM297 546q0 -80 20 -152t59 -132t104 -95t149 -35q150 0 240 108t90 281q0 79 -19 149.5t-57.5 129.5t-104 93.5t-151.5 34.5q-150 0 -240 -104.5t-90 -277.5zM716 1456q0 48 36 84t84 36 q50 0 86.5 -36t36.5 -84q0 -50 -36.5 -85.5t-86.5 -35.5q-47 0 -83.5 36.5t-36.5 84.5z"/>
<glyph unicode="÷" d="M85 513v154h1055v-154h-1055zM472 139q0 59 40.5 100.5t99 41.5t100 -41.5t41.5 -100.5t-41.5 -100t-100 -41t-99 41t-40.5 100zM472 1040.5q0 58.5 40.5 100t99 41.5t100 -41.5t41.5 -100t-41.5 -100t-100 -41.5t-99 41.5t-40.5 100z"/>
<glyph unicode="ø" horiz-adv-x="1254" d="M104 526q0 101 33.5 199t97.5 180t167 132.5t229 50.5q159 0 281 -79l91 121h146l-146 -197q70 -76 109 -176t39 -206q0 -79 -20.5 -160t-63.5 -156t-104 -133.5t-150 -94.5t-191 -36q-156 0 -276 78l-90 -119h-148l146 195q-73 79 -111.5 183.5t-38.5 217.5zM297 546 q0 -162 70 -270l444 596q-75 56 -184 56q-150 0 -240 -104.5t-90 -277.5zM447 186q81 -54 182 -54q150 0 240 108t90 281q0 151 -67 263z"/>
<glyph unicode="ù" horiz-adv-x="1227" d="M167 290v770h184v-718q0 -114 40 -160.5t110 -46.5q91 0 188.5 62t170.5 135v728h183v-732q0 -58 12 -140t24 -135l11 -53l-180 -16q-27 117 -36 193q-30 -31 -66 -61.5t-91 -65.5t-124 -57t-139 -22q-287 0 -287 319zM271 1647h201l236 -391l-108 -65z"/>
<glyph unicode="ú" horiz-adv-x="1227" d="M167 290v770h184v-718q0 -114 40 -160.5t110 -46.5q91 0 188.5 62t170.5 135v728h183v-732q0 -58 12 -140t24 -135l11 -53l-180 -16q-27 117 -36 193q-30 -31 -66 -61.5t-91 -65.5t-124 -57t-139 -22q-287 0 -287 319zM506 1256l238 391h200l-329 -456z"/>
<glyph unicode="û" horiz-adv-x="1227" d="M167 290v770h184v-718q0 -114 40 -160.5t110 -46.5q91 0 188.5 62t170.5 135v728h183v-732q0 -58 12 -140t24 -135l11 -53l-180 -16q-27 117 -36 193q-30 -31 -66 -61.5t-91 -65.5t-124 -57t-139 -22q-287 0 -287 319zM281 1248l263 399h128l263 -399l-115 -59l-213 295 l-211 -295z"/>
<glyph unicode="ü" horiz-adv-x="1227" d="M167 290v770h184v-718q0 -114 40 -160.5t110 -46.5q91 0 188.5 62t170.5 135v728h183v-732q0 -58 12 -140t24 -135l11 -53l-180 -16q-27 117 -36 193q-30 -31 -66 -61.5t-91 -65.5t-124 -57t-139 -22q-287 0 -287 319zM274 1455.5q0 49.5 36 85t86 35.5q48 0 84 -36 t36 -84t-36 -84.5t-84 -36.5q-50 0 -86 35.5t-36 85zM697 1456q0 48 36 84t85 36t85.5 -35.5t36.5 -85t-36.5 -85t-85.5 -35.5t-85 36.5t-36 84.5z"/>
<glyph unicode="ý" horiz-adv-x="1075" d="M38 1060h200l308 -750l299 750h193l-472 -1140q-32 -76 -62.5 -136.5t-74 -122.5t-88.5 -105.5t-105.5 -74.5t-127.5 -39l-59 153q211 43 333 325l68 158zM447 1256l238 391h201l-331 -456z"/>
<glyph unicode="þ" horiz-adv-x="1238" d="M179 -546v2195l183 32v-762q43 72 125 120.5t196 48.5q204 0 327 -151.5t123 -378.5q0 -118 -37.5 -224t-106 -186.5t-172.5 -128.5t-228 -48q-150 0 -227 65v-549zM362 266q0 -134 198 -134q177 0 277 110t100 304q0 175 -77.5 276t-200.5 101q-56 0 -109 -21.5 t-91.5 -56t-59.5 -57.5t-37 -46v-476z"/>
<glyph unicode="ÿ" horiz-adv-x="1075" d="M38 1060h200l308 -750l299 750h193l-472 -1140q-32 -76 -62.5 -136.5t-74 -122.5t-88.5 -105.5t-105.5 -74.5t-127.5 -39l-59 153q211 43 333 325l68 158zM214 1456q0 48 37 84t86 36q48 0 84 -36t36 -84t-36.5 -84.5t-83.5 -36.5q-49 0 -86 35.5t-37 85.5zM638 1456 q0 48 36 84t84 36q49 0 86 -36t37 -84q0 -50 -37 -85.5t-86 -35.5q-47 0 -83.5 36.5t-36.5 84.5z"/>
<glyph unicode="Œ" horiz-adv-x="2310" d="M117 782q0 126 33.5 244.5t104 223t171 182.5t241.5 123t308 45q141 0 295 -29h921v-162h-733v-526h580v-162h-580v-559h730v-162h-923q-169 -29 -309 -29q-194 0 -354 65.5t-265 176.5t-162.5 258t-57.5 311zM325 796q0 -92 22 -182t72 -176.5t123 -152t183 -106 t243 -40.5q166 0 297 23v1234q-133 36 -304 36q-155 0 -279.5 -55t-200.5 -146t-116 -202.5t-40 -232.5z"/>
<glyph unicode="œ" horiz-adv-x="1998" d="M104 526q0 101 33.5 199t97.5 180t167 132.5t229 50.5q142 0 252.5 -62.5t179.5 -168.5q65 110 168 170.5t236 60.5q189 0 307 -125.5t118 -347.5l-114 -33l-631 -83q12 -167 106.5 -267t251.5 -100q51 0 103.5 13.5t90 32.5t69 38t47.5 32l15 13l66 -133 q-7 -7 -19 -17.5t-52.5 -37.5t-85.5 -47.5t-114.5 -37.5t-140.5 -17q-148 0 -258 63t-176 171q-152 -234 -428 -234q-118 0 -218 47.5t-164.5 125.5t-100 177t-35.5 205zM297 546q0 -80 20 -152t59 -132t104 -95t149 -35q150 0 240 108t90 281q0 79 -19 149.5t-57.5 129.5 t-104 93.5t-151.5 34.5q-150 0 -240 -104.5t-90 -277.5zM1149 638l539 70q-1 10 -3.5 25.5t-17 54.5t-37.5 68.5t-68.5 54t-105.5 24.5q-128 0 -207 -82.5t-100 -214.5z"/>
<glyph unicode="Ÿ" horiz-adv-x="1353" d="M18 1571h229l434 -699l438 699h216l-560 -886v-685h-193v683zM299 1868q0 49 37 84.5t86 35.5q47 0 83.5 -36t36.5 -84.5t-36 -84t-84 -35.5q-49 0 -86 35.5t-37 84.5zM841 1867.5q0 48.5 36 84.5t84 36q50 0 86 -35.5t36 -85t-36 -84.5t-86 -35q-48 0 -84 35.5t-36 84z "/>
<glyph unicode="ˆ" horiz-adv-x="1186" d="M266 1248l264 399h127l264 -399l-116 -59l-212 295l-211 -295z"/>
<glyph unicode="˜" horiz-adv-x="1186" d="M247 1300v12q0 24 2.5 50t14 69t31.5 75.5t59.5 56.5t92.5 24q47 0 86 -18.5t63.5 -45t46 -53.5t43.5 -45.5t47 -18.5q72 0 80 151v16h127v-11q0 -24 -3 -51t-15 -72t-32.5 -78.5t-60.5 -59t-94 -25.5q-47 0 -85 19t-63 45.5t-45.5 53t-43 45.5t-46.5 19t-41.5 -17 t-24 -44t-9 -48t-2.5 -39v-10h-128z"/>
<glyph unicode=" " horiz-adv-x="1026"/>
<glyph unicode=" " horiz-adv-x="2052"/>
<glyph unicode=" " horiz-adv-x="1026"/>
<glyph unicode=" " horiz-adv-x="2052"/>
<glyph unicode=" " horiz-adv-x="684"/>
<glyph unicode=" " horiz-adv-x="513"/>
<glyph unicode=" " horiz-adv-x="342"/>
<glyph unicode=" " horiz-adv-x="342"/>
<glyph unicode=" " horiz-adv-x="256"/>
<glyph unicode=" " horiz-adv-x="410"/>
<glyph unicode=" " horiz-adv-x="114"/>
<glyph unicode="‐" horiz-adv-x="795" d="M132 504v170h533v-170h-533z"/>
<glyph unicode="‑" horiz-adv-x="795" d="M132 504v170h533v-170h-533z"/>
<glyph unicode="‒" horiz-adv-x="795" d="M132 504v170h533v-170h-533z"/>
<glyph unicode="–" horiz-adv-x="1229" d="M132 521v153h965v-153h-965z"/>
<glyph unicode="—" horiz-adv-x="2147" d="M132 521v153h1884v-153h-1884z"/>
<glyph unicode="‘" horiz-adv-x="496" d="M115 1368q0 103 55 200t153 172l82 -84q-115 -91 -115 -207q0 -59 26 -115t96 -130l-179 -105q-118 113 -118 269z"/>
<glyph unicode="’" horiz-adv-x="486" d="M90 1636l178 104q118 -113 118 -268q0 -102 -54.5 -200t-152.5 -173l-82 85q115 91 115 208q0 58 -26 114.5t-96 129.5z"/>
<glyph unicode="‚" horiz-adv-x="560" d="M115 177l193 104q126 -119 126 -269q0 -101 -57.5 -198.5t-158.5 -173.5l-81 84q122 95 122 208q0 53 -34 109t-110 136z"/>
<glyph unicode="“" horiz-adv-x="877" d="M115 1368q0 103 55 200t153 172l82 -84q-115 -91 -115 -207q0 -59 26 -115t96 -130l-179 -105q-118 113 -118 269zM497 1368q0 103 54.5 200t152.5 172l83 -84q-115 -91 -115 -207q0 -59 25.5 -115t96.5 -130l-179 -105q-118 113 -118 269z"/>
<glyph unicode="”" horiz-adv-x="868" d="M90 1636l178 104q118 -113 118 -268q0 -102 -54.5 -200t-152.5 -173l-82 85q115 91 115 208q0 58 -26 114.5t-96 129.5zM472 1636l178 104q118 -113 118 -268q0 -102 -55 -200t-153 -173l-82 85q115 91 115 208q0 58 -25.5 114.5t-95.5 129.5z"/>
<glyph unicode="„" horiz-adv-x="941" d="M115 177l193 104q126 -119 126 -269q0 -101 -57.5 -198.5t-158.5 -173.5l-81 84q122 95 122 208q0 53 -34 109t-110 136zM497 177l193 104q125 -119 125 -269q0 -101 -57.5 -198.5t-157.5 -173.5l-81 84q122 95 122 208q0 53 -34 109t-110 136z"/>
<glyph unicode="•" horiz-adv-x="894" d="M122 603q0 138 93.5 231.5t231.5 93.5t232 -93.5t94 -231.5t-94 -231.5t-232 -93.5t-231.5 93.5t-93.5 231.5z"/>
<glyph unicode="…" horiz-adv-x="1831" d="M139 112.5q0 58.5 41.5 100t100 41.5t100 -41.5t41.5 -100t-41.5 -100t-100 -41.5t-100 41.5t-41.5 100zM775 112.5q0 58.5 41.5 100t100 41.5t100 -41.5t41.5 -100t-41.5 -100t-100 -41.5t-100 41.5t-41.5 100zM1411 112.5q0 58.5 41.5 100t100 41.5t100 -41.5 t41.5 -100t-41.5 -100t-100 -41.5t-100 41.5t-41.5 100z"/>
<glyph unicode=" " horiz-adv-x="410"/>
<glyph unicode="‹" horiz-adv-x="753" d="M56 586v10q34 26 90 86.5t370 405.5l127 -36l-355 -461q14 -22 355 -461l-127 -36q-77 84 -146.5 159.5t-109.5 119t-75 82t-52.5 57t-33 34.5t-24 24t-19.5 16z"/>
<glyph unicode="›" horiz-adv-x="755" d="M113 130l356 461q-16 17 -356 461l127 36l2 -1l1 -1l1 -2l1 -1l1 -2l1 -1l1 -1l2 -1l1 -2l1 -1l1 -1l1 -1l1 -2l1 -1l2 -2l1 -1l1 -1l1 -1l1 -1l1 -1l1 -2l2 -2l1 -1l1 -1l1 -1l1 -1l1 -2l2 -1l1 -1l1 -1l1 -1l1 -3l1 -1l1 -1l2 -1l1 -1l1 -1l1 -1l1 -2l1 -1l2 -1l1 -1 l1 -1l1 -2l1 -2l1 -1l1 -1l2 -1l1 -1l1 -1l1 -1l1 -2l1 -1l1 -1l2 -1l1 -1l1 -3l1 -1l1 -1l1 -1l1 -1l2 -1l1 -1l1 -2l1 -1l1 -1l1 -1l2 -1l1 -1v-2l1 -1l1 -1l1 -1l1 -2l1 -1l2 -2l1 -1l1 -1l1 -1l1 -1l1 -1l2 -1l1 -2l1 -1l1 -1l1 -1l1 -1l1 -1v-1l2 -2l1 -1l1 -1l1 -1 l1 -1l1 -1l1 -2l2 -1l1 -1l1 -1l1 -1l1 -1l1 -1l1 -2v-1l2 -1l1 -1l1 -2l1 -2l1 -1l1 -1l2 -1l1 -1l1 -1l1 -1l1 -2l1 -1q277 -304 308 -332q9 -7 21 -17v-10q-14 -11 -26 -22.5t-43.5 -45.5t-69 -75.5t-126.5 -138.5t-194 -210z"/>
<glyph unicode=" " horiz-adv-x="513"/>
<glyph unicode="€" horiz-adv-x="1313" d="M99 431v118h125q-6 39 -6 94q0 13 6 90h-120v117h139q50 216 205 348.5t386 132.5q95 0 185 -23t132 -46l43 -23l-50 -167q-6 3 -16 10t-43.5 24.5t-68.5 30t-87.5 23.5t-103.5 11q-158 0 -254.5 -88.5t-134.5 -232.5h645l-36 -117h-631q-2 -27 -2 -76q0 -46 8 -108h574 l-35 -118h-512q46 -138 146 -218.5t243 -80.5q75 0 150 20t113 41l38 21l57 -144q-6 -3 -17 -10t-48 -24.5t-77 -30t-102.5 -23.5t-127.5 -11q-218 0 -371 124.5t-206 335.5h-146z"/>
<glyph unicode="™" horiz-adv-x="1562" d="M87 1470v101h533v-101h-206v-526h-122v526h-205zM723 944l23 627h180l146 -427l148 427h174l24 -627h-118l-19 485l-171 -485h-81l-172 488l-14 -488h-120z"/>
<glyph unicode="" horiz-adv-x="1058" d="M0 1058h1058v-1058h-1058v1058z"/>
</font>
</defs>
</svg>
